<svg id="Layer_1" data-name="Layer 1" xmlns="http://www.w3.org/2000/svg" viewBox="0 0 24 24"><defs><style>.cls-1,.cls-2{fill:#058e3f;}.cls-1{opacity:0.1;isolation:isolate;}</style></defs><path class="cls-1" d="M16,24H8a8,8,0,0,1-8-8V8A8,8,0,0,1,8,0h8a8,8,0,0,1,8,8v8A8,8,0,0,1,16,24Z"/><path class="cls-2" d="M18.5,11a3.65,3.65,0,0,0-.74.08L17.05,9.2A5.34,5.34,0,0,1,18.5,9a.5.5,0,0,0,0-1,6.32,6.32,0,0,0-1.8.26L16,6.32A.5.5,0,0,0,15.5,6h-3a.5.5,0,0,0,0,1h2.65l.61,1.62A6,6,0,0,0,13.83,10H10.17a4.7,4.7,0,0,0-.66-.6,4.78,4.78,0,0,0-.84-.57A6.43,6.43,0,0,0,5.5,8a.5.5,0,0,0,0,1,5.4,5.4,0,0,1,2.62.67L7.89,10l-.66,1L7,11.34A3.41,3.41,0,0,0,5.5,11,3.5,3.5,0,1,0,9,15H12.5a.5.5,0,0,0,.5-.5,4.07,4.07,0,0,1,0-.5,5.4,5.4,0,0,1,1.23-3,5.79,5.79,0,0,1,.7-.7,4.81,4.81,0,0,1,1.15-.74l.7,1.88A3.49,3.49,0,1,0,18.5,11Zm-13,6a2.5,2.5,0,0,1,0-5,2.46,2.46,0,0,1,.94.18l-1.36,2A.5.5,0,0,0,5.5,15H8A2.5,2.5,0,0,1,5.5,17Zm.93-3,.85-1.26A2.53,2.53,0,0,1,8,14Zm6.07-2A6.37,6.37,0,0,0,12,14H9a3.46,3.46,0,0,0-1.13-2.1l.61-.9L9,10.23a5.22,5.22,0,0,1,.79.77H13A6,6,0,0,0,12.5,12Zm6,5a2.5,2.5,0,0,1-1.33-4.61L18,14.68a.51.51,0,0,0,.47.32l.18,0a.52.52,0,0,0,.29-.65L18.11,12l.39,0a2.5,2.5,0,0,1,0,5ZM8.5,7a.47.47,0,0,1-.35-.15l-1-1a.49.49,0,0,1,.7-.7l.65.64,1.65-1.64a.49.49,0,0,1,.7.7l-2,2A.47.47,0,0,1,8.5,7Z"/></svg>