<svg xmlns="http://www.w3.org/2000/svg" width="21" height="24" viewBox="0 0 21 24"><defs><style>.a{fill:#fff;}</style></defs><path class="a" d="M3.6,8.663a.222.222,0,0,0,0-.1.2.2,0,0,0,0-.084V8.373l.075-.181h0a.583.583,0,0,1,.112-.133l.112-.1h.062l4.9-3h0l4.626-2.775A1.069,1.069,0,0,1,13.85,2h.1a1.051,1.051,0,0,1,.336,0h.124a1.431,1.431,0,0,1,.41.157L24.109,7.77l.112.084.112.1.124.084.062.072h0l.075.181v.181a.808.808,0,0,1,0,.241V19.244a1.2,1.2,0,0,1-.584,1.026l-9.327,5.6h0l-.187.072h-.1a1.1,1.1,0,0,1-.647,0h-.1l-.187-.072h0L4.212,20.354a1.2,1.2,0,0,1-.584-1.026V8.8A.638.638,0,0,1,3.6,8.663ZM14.161,4.621,11.947,5.948,18.9,10.122,21.124,8.8Zm1.244,18.1,6.84-4.054v-7.71l-6.84,4.1Zm-1.244-9.785,2.375-1.388L9.584,7.359,7.2,8.8ZM6.077,18.629l6.84,4.126v-7.7l-6.84-4.1Z" transform="translate(-3.603 -1.989)"/></svg>