<svg xmlns="http://www.w3.org/2000/svg" width="28.902" height="44.005" viewBox="0 0 28.902 44.005"><defs><style>.a{fill:#32cc3e;}</style></defs><g transform="translate(-87.853 0)"><path class="a" d="M115.7,276.575l-12.66,6.571a1.577,1.577,0,0,1-1.394,0l-12.731-6.579a.725.725,0,0,0-1.058.644v3.317a.725.725,0,0,0,.393.645l13.478,6.941a1.333,1.333,0,0,0,1.223,0l13.416-6.947a.725.725,0,0,0,.392-.644v-3.3A.725.725,0,0,0,115.7,276.575Z" transform="translate(0 -252.721)"/><path class="a" d="M115.7,178.113l-12.66,6.571a1.576,1.576,0,0,1-1.394,0l-12.731-6.579a.725.725,0,0,0-1.058.644v3.317a.725.725,0,0,0,.393.645l13.478,6.95a1.333,1.333,0,0,0,1.224,0l13.415-6.947a.725.725,0,0,0,.392-.644v-3.313A.725.725,0,0,0,115.7,178.113Z" transform="translate(0 -162.722)"/><path class="a" d="M115.7,375l-12.66,6.571a1.576,1.576,0,0,1-1.394,0L88.911,375a.725.725,0,0,0-1.058.644v3.309a.725.725,0,0,0,.393.645l13.478,6.95a1.333,1.333,0,0,0,1.224,0l13.415-6.947a.725.725,0,0,0,.392-.644v-3.313A.725.725,0,0,0,115.7,375Z" transform="translate(0 -342.689)"/><path class="a" d="M164.342,7.018l2.825,2.754-.667,3.888a1.289,1.289,0,0,0,1.871,1.359l3.492-1.836,3.492,1.836a1.289,1.289,0,0,0,1.871-1.359l-.667-3.888,2.825-2.754a1.289,1.289,0,0,0-.714-2.2l-3.9-.567L173.019.714a1.293,1.293,0,0,0-2.312,0L168.96,4.251l-3.9.567a1.289,1.289,0,0,0-.715,2.2Z" transform="translate(-69.558 0)"/></g></svg>