<svg xmlns="http://www.w3.org/2000/svg" xmlns:xlink="http://www.w3.org/1999/xlink" width="40" height="29.925" viewBox="0 0 40 29.925"><defs><style>.a{fill:url(#a);}.b{fill:#ffc400;}.c{fill:#fff2b8;}</style><linearGradient id="a" x1="0.5" x2="0.5" y2="1" gradientUnits="objectBoundingBox"><stop offset="0" stop-color="#ffc400"/><stop offset="1" stop-color="#fd5d00"/></linearGradient></defs><g transform="translate(0.03 -3)"><path class="a" d="M1.5,31.262V10.6a1.663,1.663,0,0,1,2.835-1.18l5.478,5.44,7.78-11.145a1.661,1.661,0,0,1,2.726,0L28.1,14.857l5.478-5.44a1.663,1.663,0,0,1,2.835,1.18V31.262a1.663,1.663,0,0,1-1.662,1.662H3.162A1.663,1.663,0,0,1,1.5,31.262Z" transform="translate(1.014 0)"/><ellipse class="b" cx="4" cy="5" rx="4" ry="5" transform="translate(-0.03 18.962)"/><ellipse class="b" cx="3.741" cy="4.987" rx="3.741" ry="4.987" transform="translate(16.229 18.794)"/><ellipse class="b" cx="4" cy="5" rx="4" ry="5" transform="translate(31.97 18.962)"/><circle class="c" cx="1.247" cy="1.247" r="1.247" transform="translate(26.828 22.534)"/><circle class="c" cx="1.247" cy="1.247" r="1.247" transform="translate(10.618 22.534)"/></g></svg>