<svg xmlns="http://www.w3.org/2000/svg" width="24" height="24" viewBox="0 0 24 24"><defs><style>.a{fill:#fff;}</style></defs><path class="a" d="M6.455,14.091H2.091A1.091,1.091,0,0,0,1,15.182v8.727A1.091,1.091,0,0,0,2.091,25H6.455a1.091,1.091,0,0,0,1.091-1.091V15.182A1.091,1.091,0,0,0,6.455,14.091ZM5.364,22.818H3.182V16.273H5.364ZM23.909,9.727H19.545a1.091,1.091,0,0,0-1.091,1.091V23.909A1.091,1.091,0,0,0,19.545,25h4.364A1.091,1.091,0,0,0,25,23.909V10.818A1.091,1.091,0,0,0,23.909,9.727ZM22.818,22.818H20.636V11.909h2.182ZM15.182,1H10.818A1.091,1.091,0,0,0,9.727,2.091V23.909A1.091,1.091,0,0,0,10.818,25h4.364a1.091,1.091,0,0,0,1.091-1.091V2.091A1.091,1.091,0,0,0,15.182,1ZM14.091,22.818H11.909V3.182h2.182Z" transform="translate(-1 -1)"/></svg>