<svg xmlns="http://www.w3.org/2000/svg" width="24" height="24" viewBox="0 0 24 24"><defs><style>.a{fill:#fff;}</style></defs><path class="a" d="M23.646,9.416V3.2a1.2,1.2,0,0,0-2.406,0V9.416a3.6,3.6,0,0,0,0,6.768V24.8a1.2,1.2,0,0,0,2.406,0V16.184a3.6,3.6,0,0,0,0-6.768ZM22.443,14a1.2,1.2,0,1,1,1.2-1.2A1.2,1.2,0,0,1,22.443,14Zm-7.217,2.616V3.2a1.2,1.2,0,0,0-2.406,0V16.616a3.6,3.6,0,0,0,0,6.768V24.8a1.2,1.2,0,0,0,2.406,0V23.384a3.6,3.6,0,0,0,0-6.768Zm-1.2,4.584a1.2,1.2,0,1,1,1.2-1.2A1.2,1.2,0,0,1,14.024,21.2ZM6.807,7.016V3.2A1.2,1.2,0,0,0,4.4,3.2V7.016a3.6,3.6,0,0,0,0,6.768V24.8a1.2,1.2,0,0,0,2.406,0V13.784a3.6,3.6,0,0,0,0-6.768ZM5.6,11.6a1.2,1.2,0,1,1,1.2-1.2A1.2,1.2,0,0,1,5.6,11.6Z" transform="translate(26 -2.024) rotate(90)"/></svg>