<svg xmlns="http://www.w3.org/2000/svg" xmlns:xlink="http://www.w3.org/1999/xlink" width="18" height="17.2" viewBox="0 0 18 17.2"><defs><style>.a{fill:url(#a);}</style><linearGradient id="a" x1="0.5" x2="0.5" y2="1" gradientUnits="objectBoundingBox"><stop offset="0" stop-color="#ffc400"/><stop offset="1" stop-color="#fd5d00"/></linearGradient></defs><path class="a" d="M19.976,8.942a.9.9,0,0,0-.773-.6l-5.114-.746L11.8,2.943a.9.9,0,0,0-1.618,0L7.888,7.584,2.774,8.34a.886.886,0,0,0-.5,1.511l3.712,3.6-.9,5.109a.9.9,0,0,0,1.3.962l4.6-2.4,4.584,2.41a.835.835,0,0,0,.413.108.9.9,0,0,0,.89-1.07l-.9-5.109,3.712-3.6A.9.9,0,0,0,19.976,8.942Z" transform="translate(-2.006 -2.436)"/></svg>