<svg xmlns="http://www.w3.org/2000/svg" width="23" height="25" viewBox="0 0 23 25"><defs><style>.a{fill:#fff;stroke:#fff;}</style></defs><g transform="translate(-17.256 0.5)"><g transform="translate(17.756)"><path class="a" d="M37.438,9.921h-.059V8.465a8.473,8.473,0,0,0-16.945,0V9.921h-.357a2.42,2.42,0,0,0-2.319,2.5v3.713a2.347,2.347,0,0,0,2.288,2.405h2.231a.565.565,0,0,0,.538-.59c0-.011,0-.022,0-.034V10.634c0-.356-.208-.713-.535-.713h-.654V8.465a7.284,7.284,0,0,1,14.567,0V9.921h-.654c-.327,0-.535.356-.535.713v7.277a.564.564,0,0,0,.5.621l.034,0h.684l-.059.089A4.7,4.7,0,0,1,32.384,20.5,2.941,2.941,0,1,0,29.53,24a3.063,3.063,0,0,0,2.14-.921,2.613,2.613,0,0,0,.714-1.426,5.888,5.888,0,0,0,4.727-2.347l.565-.832a2.023,2.023,0,0,0,2.081-2.05V12.713C39.756,11.436,38.805,9.921,37.438,9.921ZM21.622,17.347H20.076a1.159,1.159,0,0,1-1.131-1.186q0-.016,0-.032V12.416a1.232,1.232,0,0,1,1.13-1.307h1.546Zm9.186,4.9a1.755,1.755,0,0,1-1.278.564,1.813,1.813,0,0,1-1.784-1.753,1.754,1.754,0,0,1,3.508,0h0A1.574,1.574,0,0,1,30.808,22.248Zm7.759-5.822c0,.8-.773.921-1.13.921H36.189V11.109h1.249c.654,0,1.13.921,1.13,1.6Z" transform="translate(-17.756)"/></g></g></svg>