<svg xmlns="http://www.w3.org/2000/svg" xmlns:xlink="http://www.w3.org/1999/xlink" width="597.863" height="230.598" viewBox="0 0 597.863 230.598">
  <defs>
    <linearGradient id="linear-gradient" x1="0.098" y1="-0.044" x2="0.503" y2="0.505" gradientUnits="objectBoundingBox">
      <stop offset="0" stop-color="#4e9cff"/>
      <stop offset="0.193" stop-color="#4090f4"/>
      <stop offset="0.709" stop-color="#2274dc"/>
      <stop offset="1" stop-color="#176ad4"/>
    </linearGradient>
    <linearGradient id="linear-gradient-2" x1="-0.008" y1="0.128" x2="0.929" y2="0.946" gradientUnits="objectBoundingBox">
      <stop offset="0" stop-color="#3b66d6"/>
      <stop offset="0.193" stop-color="#4090f4"/>
      <stop offset="0.709" stop-color="#2274dc"/>
      <stop offset="1" stop-color="#176ad4"/>
    </linearGradient>
  </defs>
  <g id="Group_16929" data-name="Group 16929" transform="translate(-1574.348 -751.546)">
    <g id="Group_16926" data-name="Group 16926">
      <path id="Path_19373" data-name="Path 19373" d="M2171.335,847.691a6.01,6.01,0,1,0-11.876,1.857c.863,5.6,1.961,23.135-4.091,30.192a8.074,8.074,0,0,1-4.879,2.8l.552-33.4a8.688,8.688,0,1,0-17.372.072l1.57,63.387a8.1,8.1,0,0,1-5.085-2.832c-6.051-7.056-4.953-24.594-4.091-30.192a6.01,6.01,0,1,0-11.875-1.858c-.432,2.759-3.906,27.315,6.827,39.857a20.344,20.344,0,0,0,14.524,7.139l.683,27.591h13.115l.952-57.644a20.31,20.31,0,0,0,14.219-7.117C2175.241,875.005,2171.767,850.449,2171.335,847.691Z" fill="#bdbdbd"/>
      <path id="Path_19374" data-name="Path 19374" d="M1611.337,901.425a3.832,3.832,0,0,0-7.571,1.184c.55,3.568,1.25,14.748-2.608,19.246a5.141,5.141,0,0,1-3.11,1.789l.352-21.293a5.538,5.538,0,1,0-11.074.046l1,40.408a5.165,5.165,0,0,1-3.241-1.806c-3.858-4.5-3.158-15.678-2.609-19.246a3.831,3.831,0,1,0-7.57-1.184c-.275,1.758-2.49,17.412,4.352,25.407a12.972,12.972,0,0,0,9.259,4.551l.436,17.588h8.36l.607-36.746a12.951,12.951,0,0,0,9.064-4.537C1613.827,918.837,1611.612,903.184,1611.337,901.425Z" fill="#bdbdbd"/>
    </g>
    <g id="Group_16928" data-name="Group 16928">
      <path id="Path_19375" data-name="Path 19375" d="M1818.5,909h-11.844a17.9,17.9,0,0,1-17.878-17.877,4.6,4.6,0,0,0-4.595-4.595h-13.721a6.641,6.641,0,0,1,0-13.282h13.721a17.9,17.9,0,0,1,17.877,17.877,4.6,4.6,0,0,0,4.6,4.6H1818.5a6.641,6.641,0,1,1,0,13.282Z" fill="url(#linear-gradient)"/>
      <path id="Path_19376" data-name="Path 19376" d="M1857.537,751.546h0c-35.3-.009-65.17,29.639-66.029,64.808-.817,37.671-.274,74.868,5.962,112.113a358.84,358.84,0,0,0,11.548,43.435c2.014,5.662,8.521,10.242,14.237,10.242h1.038c5.716,0,8.246-4.487,6-10.056h0c-1.532-3.8.411-6.85,4.181-6.8h0c3.771.052,8.011,3.16,9.644,6.918h0c2.394,5.509,9.279,9.935,14.995,9.935h1.039c5.715,0,7.867-4.333,5.244-9.748h0c-1.79-3.7-.025-6.674,3.746-6.621h0c3.77.053,8.188,3.088,10.08,6.742h0c2.773,5.354,10.037,9.627,15.752,9.627h1.039c5.716,0,7.489-4.18,4.487-9.441h0c-2.049-3.59-.461-6.5,3.309-6.443h0c3.77.052,8.367,3.015,10.517,6.564h0c3.152,5.2,10.794,9.32,16.509,9.32h.52c6,0,7.465-4.228,3.943-9.6a166.659,166.659,0,0,1-17.676-40.36c-8.424-38.142-4.9-75.851-.572-114.3C1921.305,781.8,1893.81,751.532,1857.537,751.546Z" fill="url(#linear-gradient-2)"/>
      <g id="Group_16927" data-name="Group 16927">
        <path id="Path_19377" data-name="Path 19377" d="M1803.976,829.489c6.222,4.392,16.368-3.4,11.436-20.745a1,1,0,0,0-1.891-.145C1809.015,819.4,1796.556,824.251,1803.976,829.489Z" fill="#1c2b6b"/>
        <path id="Path_19378" data-name="Path 19378" d="M1832.092,804.884c-7.444,3.143,5.9,44.8,26.616,31.66,12.627-8.006,1.236-15.86-11.579-20.616C1839.355,813.042,1836.569,802.994,1832.092,804.884Z" fill="#1c2b6b"/>
        <ellipse id="Ellipse_2756" data-name="Ellipse 2756" cx="9.817" cy="14.304" rx="9.817" ry="14.304" transform="translate(1818.732 836.031)" fill="#1c2b6b"/>
      </g>
      <path id="Path_19379" data-name="Path 19379" d="M1866.534,909H1854.69a17.9,17.9,0,0,1-17.877-17.877,4.6,4.6,0,0,0-4.6-4.595H1818.5a6.641,6.641,0,0,1,0-13.282h13.72a17.9,17.9,0,0,1,17.878,17.877,4.6,4.6,0,0,0,4.595,4.6h11.844a6.641,6.641,0,1,1,0,13.282Z" fill="#4e9cff"/>
    </g>
  </g>
</svg>
