<svg xmlns="http://www.w3.org/2000/svg" width="805.47" height="745.491" viewBox="0 0 805.47 745.491">
  <defs>
    <style>
      .cls-1, .cls-18, .cls-19, .cls-20, .cls-3, .cls-7, .cls-8 {
        fill: none;
      }

      .cls-1, .cls-20 {
        stroke: #778194;
      }

      .cls-1 {
        stroke-linejoin: round;
        stroke-width: 2px;
        opacity: 0.195;
      }

      .cls-1, .cls-18, .cls-19, .cls-20, .cls-3, .cls-4, .cls-7, .cls-8 {
        stroke-miterlimit: 10;
      }

      .cls-2 {
        fill: #e6e6e6;
      }

      .cls-19, .cls-3, .cls-4, .cls-8 {
        stroke: #000;
      }

      .cls-3, .cls-4 {
        stroke-width: 0.75px;
      }

      .cls-13, .cls-4 {
        fill: #fff;
      }

      .cls-5 {
        fill: #ffc400;
      }

      .cls-6 {
        fill: #96e296;
      }

      .cls-7 {
        stroke: #ffc400;
      }

      .cls-9 {
        fill: #778194;
      }

      .cls-10 {
        fill: #f8f8f8;
      }

      .cls-11 {
        fill: #eee;
      }

      .cls-12 {
        fill: #5d7183;
      }

      .cls-14 {
        fill: #cacede;
      }

      .cls-15 {
        fill: #abdff5;
      }

      .cls-16 {
        fill: #fff7bf;
      }

      .cls-17 {
        fill: #ffeea4;
      }

      .cls-18 {
        stroke: #979eb7;
      }

      .cls-19 {
        opacity: 0.205;
      }
    </style>
  </defs>
  <g id="Group_271" data-name="Group 271" transform="translate(-960.444 -150.455)">
    <path id="Path_803" data-name="Path 803" class="cls-1" d="M739.866,859.2a26.174,26.174,0,0,1,2.345-11.731c1.781-4.009,4.206-7.349,6.544-11.019.66-1.036,1.9-4.531,3.632-4.092s.821,5.953.827,7.2c.019,3.855.2,8.028-1.9,11.467.665-2.691,2.695-5.3,4.246-7.512,2.692-3.841,5.481-7.663,8.26-11.44a80.532,80.532,0,0,1,6.64-7.705c.775-.817,1.934-2.193,3.028-2.431.058,1.176.921,1.7,1.137,2.806a27.921,27.921,0,0,1-.156,7.719c-.831,6.873-5.473,12.943-8.3,19.1-2.208,4.816-5.555,9.069-7.518,13.714,1.405.494,2.9-.572,4.281-.957,2.651-.742,5.394-1.336,8.088-1.9,1.628-.34,10.647-3.38,11.253-1.251-.933,1.542-2.589,2.771-3.678,4.26-1.566,2.143-3.379,4.247-5.1,6.28-2.495,2.948-6.6,4.773-9.627,6.609-1.711,1.036-3.193,2.964-4.925,3.931-1.422.792-5.331,1.584-5.648,3.484,1.387.573,2.942.208,4.425.824a40.209,40.209,0,0,0,3.691,1.826q1.369.178,2.74.347a6.333,6.333,0,0,1,2.441,1.654,18.7,18.7,0,0,1,3.2,1.751c-.71.855-1.551.536-2.355,1.07a35,35,0,0,0-3.082,2.905c-1.253,1.125-2.3,2.455-3.6,3.528-.8.659-1.917,1.043-2.124,2.118,1.487.633,2.83.12,4.382.979,2.013,1.116,3.365,3.279,5.312,4.538,2.938,1.9,5.809,4.39,7.234,7.7-1.157-.776-.926-1.607-.986-2.8a64.832,64.832,0,0,1,.858-13.022,66.44,66.44,0,0,1,6.313-20.081c-.359,6.945.183,13.926-.057,20.874-.277-1.2.477-1.832,1.022-2.773a52.3,52.3,0,0,1,5.243-7.677c2.3-2.7,6.193-7.482,9.61-8.845.8,3.131-1.075,6.156-2,9.075-2.107,6.664-5.023,12.985-7.508,19.5,4.78-2.557,8.49-6.781,13.405-9.221a50.9,50.9,0,0,1,12.3-3.939c-.176.231-1.1.878-1.157,1.17-.21,1.013-.834,2.54-1.13,3.736-1.171,4.741-2.246,10.753-4.978,14.933,1.814-2.2,5.615-3.224,8.251-3.324,5.328-.2,10.454,1.144,15.7.927q-.785.006-1.57,0" transform="translate(748.239 -609.136)"/>
    <g id="Group_270" data-name="Group 270" transform="translate(-41)">
      <g id="Group_269" data-name="Group 269" transform="translate(1711.28 640)">
        <path id="Path_1634" data-name="Path 1634" class="cls-2" d="M949.7,900.274a7.533,7.533,0,0,0,2.106-.575,5.784,5.784,0,0,1,1.281.009c.638.008,1.081-.263,1.695-.288,1.766-.074,3.3-1.053,5.081-1.13a18.464,18.464,0,0,0,2.259-.573c.234-.037.468.037.706-.008.257-.048.437-.23.7-.274.178-.029.4.072.58.031.244-.055.3-.257.536-.313.277-.065.6.095.875.03.124-.029.265-.22.331-.234.44-.095.914.044,1.348-.048a6.816,6.816,0,0,1,1.13-.3c.559-.031,1.135.006,1.695.006h2.54c.467,0,.946-.031,1.412-.006.51.027.9.275,1.412.3a11.869,11.869,0,0,1,2.541.494c.448.118.9.032,1.349.125.061.013.21.206.33.234a4.833,4.833,0,0,0,1-.014c.421,0,.85.027,1.27.006a7.259,7.259,0,0,0,1.632-.509,11.4,11.4,0,0,1,1.191-.361,8.022,8.022,0,0,0,.848-.047,2.889,2.889,0,0,1,.847-.233,4.847,4.847,0,0,1,1.259.3c.494.136,1.077.162,1.571.346,1.225.455,2.405.99,3.671,1.348,1.149.324,2.248.584,3.38.856.549.132,1.246.138,1.769.317.192.065.306.267.465.339a4.6,4.6,0,0,0,3.429-.072,3.517,3.517,0,0,1,1.2-.133c.431.021.83.252,1.25.246.331-.005.663,0,.995,0h-.571" transform="translate(-929.944 -716.957)"/>
        <rect id="Rectangle_6" data-name="Rectangle 6" class="cls-3" width="37.267" height="8.47" rx="3" transform="translate(26.809 156.496)"/>
        <path id="Path_1635" data-name="Path 1635" class="cls-4" d="M988.065,897.427H965.408l-3.176-17.222h28.8Z" transform="translate(-931.258 -715.239)"/>
        <path id="Path_1650" data-name="Path 1650" class="cls-2" d="M963.005,880.89l-.127.164c.128.39.829.421,1.14.517a10.077,10.077,0,0,1,1.095.378c.5.223,1.019.4,1.492.635a2.846,2.846,0,0,0,1.416.4,6.147,6.147,0,0,1,1.925.19c.421.094.852.2,1.276.265.347.056.7.185,1.055.218,1.3.124,2.608.266,3.9.4.382.039.675.205,1.059.227s.788,0,1.176,0a8.343,8.343,0,0,1,2,.165,11.153,11.153,0,0,0,2.44.047c.368,0,.744-.022,1.112,0s.7.177,1.07.227a11.536,11.536,0,0,0,1.471-.011,4.112,4.112,0,0,1,.859-.011c.258.062.326.189.619.227a5.248,5.248,0,0,0,1.714.01c.41-.178.134-1.08.243-1.5a2.877,2.877,0,0,0,.165-.846,2.108,2.108,0,0,1,.165-.682,5.85,5.85,0,0,1,.47-1.225" transform="translate(-931.326 -715.289)"/>
        <g id="Group_14" data-name="Group 14" transform="translate(0.241)">
          <path id="Path_1636" data-name="Path 1636" class="cls-5" d="M981.179,855.264c.017.073.033.148.042.217-2.056-1.189-5.586-.744-8.012-.808a19.764,19.764,0,0,1-5.245-.742c-3.888-1.187-7.747-1.426-11.139-3.7a21.785,21.785,0,0,1-6.037-6.675,27.1,27.1,0,0,1-4.032-9A63.262,63.262,0,0,1,945.275,824c-.064-1.932-.446-3.832-.412-5.765.033-1.9-.349-3.7-.424-5.577-.248-6.187.06-12.44.079-18.634,0-.71.014-1.421.007-2.13a4.374,4.374,0,0,1,.339-1.428c.234-.852-.106-1.114.949-.994a6.724,6.724,0,0,0,2.374.268,5.519,5.519,0,0,1,1.948-.365c.678.09,1.016.32,1.7.4a39.015,39.015,0,0,0,4.313-.021c.709,0,1.419,0,2.129-.005.4,0,.828-.035,1.227-.012.567.032.662.241,1.039.305.54.092,1.087-.014,1.626.063a16.546,16.546,0,0,1,2.578,1.079,22.185,22.185,0,0,1,7.909,4.293c1.124,1.06,2.364,2.149,3.416,3.288a27.809,27.809,0,0,1,3.28,5.359A19.258,19.258,0,0,1,981,807.986a13.376,13.376,0,0,1,.443,1.949,4.877,4.877,0,0,0,.439,1.282,15.594,15.594,0,0,1,.828,5.776c.015,1.724-.382,3.444.066,5.135.787,2.97.523,6.166.6,9.216a19.5,19.5,0,0,1,.086,2.43,20.2,20.2,0,0,0-.426,3c.061,1.5.088,3.01.126,4.516.064,2.562.111,5.125.2,7.686.034,1.021-.369,1.81-.407,2.78C982.914,852.647,983.006,853.557,981.179,855.264Z" transform="translate(-929.623 -705.713)"/>
          <path id="Path_1637" data-name="Path 1637" class="cls-6" d="M975.636,854.01a24.319,24.319,0,0,0,.282-5.106,42.086,42.086,0,0,1,3.431-14.057c3.035-7.62,7.588-14.863,14.012-20.034,2.524-2.032,4.912-4.222,8.115-4.924,1.367-.3,2.393-1.009,3.777-1.226,1.005-.158,2.036-.448,3.021-.543a12.64,12.64,0,0,0,2.735-.228c.748-.227,1.459-.646,2.215-.839a16.136,16.136,0,0,1,4.2-.378c.62.019.9-.414,1.076.5.131.692-.618,2.113-.71,2.813-.234,1.783-.517,3.6-.7,5.394-.182,1.775-.651,3.524-.78,5.288-.221,3.012-1.092,5.837-1.347,8.85a25.828,25.828,0,0,1-2.473,8.211c-.881,1.955-1.516,4.308-2.758,6.048s-2.678,3.427-4.064,5.061a25.763,25.763,0,0,1-4.692,4.066,23.1,23.1,0,0,1-2.857,2.067c-.74.359-1.747.473-2.526.766a20.273,20.273,0,0,1-5.46.794,17.123,17.123,0,0,1-4.647,0c-1.568-.311-3.089-.874-4.652-1.2-.828-.176-1.1.09-1.812.077C978.22,855.389,977.378,855.027,975.636,854.01Z" transform="translate(-932.905 -707.52)"/>
          <path id="Path_1638" data-name="Path 1638" class="cls-6" d="M978.416,750.544c-.807-.247-.765.33-1.255.439a6.36,6.36,0,0,1-1.557.124c-1.461-.019-2.927-.014-4.388,0a11.2,11.2,0,0,1-8.279-3.692c-1.761-1.914-2.666-4.834-3.656-7.317-.824-2.07-1.416-4.371-2.237-6.35,1.165-1.583,6.734-.863,8.385-.426,1.425.377,3.014-.013,4.517.253a23.905,23.905,0,0,1,4.181,1.208,7.724,7.724,0,0,1,1.769,1.294,4.128,4.128,0,0,1,1.156,1.756c.831,1.637,2.336,2.884,2.508,4.788.127,1.412.813,2.509.423,3.97C979.527,748.307,979.293,749.515,978.416,750.544Z" transform="translate(-930.955 -699.779)"/>
          <path id="Path_1639" data-name="Path 1639" class="cls-7" d="M996.536,739.312c.807.246.765-.33,1.255-.439a6.327,6.327,0,0,1,1.557-.124c1.461.019,2.927.014,4.387,0a11.2,11.2,0,0,1,8.279,3.691c1.761,1.915,2.667,4.835,3.656,7.318.684,1.717,1.18,3.5,1.808,5.237.13.36.494,1.175.244,1.557-.263.4-1.875.366-2.378.423-1.189.137-2.358.072-3.551.152a16.743,16.743,0,0,1-2.359.066c-.858-.064-1.664-.246-2.554-.241a5.681,5.681,0,0,1-1.749-.347,28.615,28.615,0,0,1-3.126-1.067,11.783,11.783,0,0,1-1.521-.951,5.184,5.184,0,0,1-1.276-1.193c-.3-.453-.574-1.027-.824-1.506a10.161,10.161,0,0,1-.673-1.8,27.994,27.994,0,0,1-.693-3.7c-.064-.445-.266-.849-.359-1.285a5.69,5.69,0,0,1-.058-1.379,8.473,8.473,0,0,0-.2-1.223c-.148-1.14-.114-2.3-.263-3.444C996.134,739.328,996.331,739.553,996.536,739.312Z" transform="translate(-935.054 -700.406)"/>
          <path id="Path_1640" data-name="Path 1640" class="cls-8" d="M955.182,800.719c-.8.281-.42.721-.749,1.1a6.373,6.373,0,0,1-1.18,1.024c-1.187.852-2.364,1.726-3.531,2.6a11.2,11.2,0,0,1-8.854,1.945c-2.553-.495-5.016-2.307-7.286-3.718-1.569-.976-3.027-2.115-4.563-3.141-.318-.212-1.1-.653-1.12-1.107-.027-.48,1.292-1.408,1.662-1.754.875-.815,1.855-1.457,2.768-2.231a16.6,16.6,0,0,1,1.859-1.453c.727-.458,1.484-.79,2.2-1.324a5.717,5.717,0,0,1,1.614-.758,28.586,28.586,0,0,1,3.148-1,11.732,11.732,0,0,1,1.789-.138,5.185,5.185,0,0,1,1.735.2c.508.188,1.072.485,1.557.721a10.048,10.048,0,0,1,1.613,1.053,27.9,27.9,0,0,1,2.753,2.563c.316.319.718.525,1.053.82a5.69,5.69,0,0,1,.865,1.076,8.485,8.485,0,0,0,.888.865c.795.83,1.455,1.783,2.257,2.616C955.5,800.468,955.2,800.4,955.182,800.719Z" transform="translate(-927.899 -705.861)"/>
          <path id="Path_1642" data-name="Path 1642" class="cls-9" d="M1003.352,834.9c.542-.584,1.315-.932,1.875-1.5a8.694,8.694,0,0,0,.565-.754,20.741,20.741,0,0,1,2.961-2.582,11.2,11.2,0,0,1,8.728-2.449c2.577.347,5.14,2.015,7.487,3.293,1.957,1.066,3.882,2.458,5.778,3.456.115,1.961-4.63,4.966-6.178,5.684-1.337.62-2.309,1.937-3.637,2.692-1.525.868-3.2,1.784-4.985,1.565-1.815-.224-3.449.086-5.212-.637a3.763,3.763,0,0,1-1.491-1.046c-.436-.483-.966-.7-1.4-1.226a15.458,15.458,0,0,1-2.266-3.072c-.335-.726-.93-.845-1.435-1.377-.464-.487-.453-1.384-1.151-1.557A2.453,2.453,0,0,1,1003.352,834.9Z" transform="translate(-935.773 -709.714)"/>
          <path id="Path_1643" data-name="Path 1643" class="cls-8" d="M976.49,854.206V760.474s-2.26-10.728,12.987-22.021c0,0,11.858-3.953,11.858-25.409" transform="translate(-932.982 -697.71)"/>
          <path id="Path_1644" data-name="Path 1644" class="cls-8" d="M1003.391,836.147s-26.256-5.929-26.256,22.445" transform="translate(-933.062 -710.565)"/>
          <path id="Path_1645" data-name="Path 1645" class="cls-8" d="M974.465,827.947s3.292-25.646-15.624-25.646" transform="translate(-931.143 -707.07)"/>
          <path id="Path_1641" data-name="Path 1641" class="cls-6" d="M1002.525,717.328c-.1-.789.124-1.608.046-2.4a8.546,8.546,0,0,0-.219-.916,20.7,20.7,0,0,1-.093-3.928,11.2,11.2,0,0,1,3.691-8.279c1.915-1.761,4.834-2.666,7.318-3.655,2.069-.825,4.371-1.417,6.35-2.238,1.583,1.166.863,6.735.426,8.385-.378,1.425.014,3.014-.253,4.517-.307,1.728-.675,3.606-1.982,4.836-1.332,1.253-2.137,2.708-3.82,3.6a3.757,3.757,0,0,1-1.756.479c-.65.027-1.156.3-1.836.29a15.387,15.387,0,0,1-3.81-.219c-.773-.206-1.244.175-1.976.226-.671.045-1.354-.536-1.934-.11A2.424,2.424,0,0,1,1002.525,717.328Z" transform="translate(-935.691 -695.914)"/>
        </g>
        <path id="Path_1647" data-name="Path 1647" class="cls-8" d="M1003.47,717.6l.172-.041c0-.382.569-.8.775-1.112.534-.8,1.2-1.47,1.77-2.234.24-.321.352-.705.56-1.043a8.6,8.6,0,0,1,.712-.81,5.978,5.978,0,0,0,.391-.794,8.985,8.985,0,0,1,.715-.8c1.766-2.3,3.756-4.4,5.628-6.623.645-.766,1.317-1.532,1.977-2.261.363-.4.561-.867.894-1.28a14.573,14.573,0,0,0,1.125-1.327c.314-.5.563-.951.9-1.415.269-.367.571-1.1,1.105-1.224" transform="translate(-935.583 -695.99)"/>
        <path id="Path_1649" data-name="Path 1649" class="cls-8" d="M1004.417,835.491c.943,0,1.813.222,2.751.214.713-.006,1.428.018,2.141,0,.575-.013,1.1-.207,1.672-.225,1.329-.041,2.687-.028,4.018,0,.75.018,1.483.26,2.229.206.876-.063,1.662-.2,2.554-.2a18.769,18.769,0,0,1,2.638.047,4.907,4.907,0,0,0,2.015.058,12.151,12.151,0,0,1,2.8-.106,18.684,18.684,0,0,1,2.38,0,2.57,2.57,0,0,1,.79.268,1.945,1.945,0,0,0,.9.159" transform="translate(-935.682 -710.545)"/>
        <path id="Path_1648" data-name="Path 1648" class="cls-8" d="M927.9,801.007q-.322.043-.261-.219a1.847,1.847,0,0,1,1.119.078,10.239,10.239,0,0,0,2.44.134c1.167-.012,2.288.266,3.449.3.774.025,1.551-.052,2.324-.025.588.021,1.073.255,1.642.3s1.143-.053,1.71-.014c1.312.088,2.579.294,3.921.289,2.275-.007,4.47.574,6.737.566.916,0,1.84.042,2.755,0,.952-.041,1.66-.854,2.679-.85" transform="translate(-927.63 -706.905)"/>
        <path id="Path_1646" data-name="Path 1646" class="cls-8" d="M957.58,733.544c.367.121.609.543.923.781.828.627,1.691,1.273,2.57,1.824.92.577,1.868,1.1,2.757,1.724.832.586,1.55,1.288,2.388,1.868.635.44,1.146,1.019,1.8,1.436a6.241,6.241,0,0,1,1.048.779,14.244,14.244,0,0,0,2.917,1.963c.848.491,1.685.972,2.545,1.441a8.386,8.386,0,0,1,1.214.9c.37.289.9.491,1.276.836.229.213.522.819.863.809.039-.132-.023-.19-.185-.174" transform="translate(-930.771 -699.86)"/>
      </g>
      <g id="Group_266" data-name="Group 266" transform="translate(913.56 85)">
        <path id="Path_1759" data-name="Path 1759" class="cls-10" d="M281.756,761.907c-11.443-26.45-13.509-58.229-42.1-78.6-34.553-24.612-68.383-40-97.219-72.953C114.225,578.127,99.954,545.09,100,503.448c.054-49,2.908-97.528,29.43-138.351A704.128,704.128,0,0,1,295.442,186.542c67.3-50.712,150.2-102.154,238.151-82.1,16.357,3.73,35.319,7.438,47.451,20.023,26.239,27.228-1.526,63.679,6.895,94.585,13.5,49.559,63.442,36.489,96.816,32.833,44.641-4.89,89.593-1.628,113.1,48.783,34.385,73.746-5.256,159.973-46.307,222.238-49.042,74.385-118,135.724-186.487,192-64.21,52.767-164.254,127.517-252.23,81.88C296.391,788.26,287.776,775.821,281.756,761.907Z" transform="translate(-0.162 0)"/>
        <path id="Path_1760" data-name="Path 1760" class="cls-11" d="M830.945,999.067c-.539.83-4.571,1.733-13.083,2.713-59.68,6.873-130.158,4.742-191.514,4.78-115.278.072-230.564-1.407-345.729-1.407-71.878-1.452-155.519-5.095-84.352-10.113,80.969-5.708,168.8-4.869,250.705-5.537q111.3-.907,222.587,1.327C682.12,991.082,833.933,994.434,830.945,999.067Z" transform="translate(-20.164 -257.039)"/>
        <g id="Group_104" data-name="Group 104" transform="translate(286.304 170.198)">
          <rect id="Rectangle_25" data-name="Rectangle 25" class="cls-10" width="340.303" height="447.116" rx="10" transform="translate(30.899 29.735)"/>
          <g id="Group_88" data-name="Group 88" transform="translate(100.227 28.529)">
            <path id="Path_1761" data-name="Path 1761" class="cls-12" d="M753.869,241.269c5.828,0,18.03-2.4,18.628,6.076.055.791,0,1.607,0,2.4V674.063c0,4.393,1.051,11.552-5.229,11.93-4.5.27-9.1,0-13.6,0H505.045c-1.915,0-2.675,2.391-.337,2.391H764.655c6.007,0,11.244-2.821,11.31-9.523.134-13.632,0-27.27,0-40.9V253.292c0-4.208.764-9.38-2.827-12.4-2.719-2.285-6.038-2.019-9.349-2.019h-9.584c-1.915,0-2.675,2.392-.338,2.392Z" transform="translate(-503.256 -238.868)"/>
          </g>
          <rect id="Rectangle_26" data-name="Rectangle 26" class="cls-13" width="340.303" height="447.116" rx="10" transform="translate(1.75 1.297)"/>
          <g id="Group_101" data-name="Group 101" transform="translate(20.953 70.282)">
            <g id="Group_94" data-name="Group 94" transform="translate(7.049 0)">
              <g id="Group_92" data-name="Group 92" transform="translate(109.272 25.497)">
                <g id="Group_91" data-name="Group 91">
                  <g id="Group_89" data-name="Group 89">
                    <path id="Path_1762" data-name="Path 1762" class="cls-14" d="M556.869,336.09h166.97c2,0,2.6-2.63.274-2.63H557.143c-2,0-2.6,2.63-.274,2.63Z" transform="translate(-555.367 -333.459)"/>
                  </g>
                  <g id="Group_90" data-name="Group 90" transform="translate(0.004 28.359)">
                    <path id="Path_1763" data-name="Path 1763" class="cls-14" d="M556.865,375.932H723.834c1.986,0,2.614-2.584.286-2.584H557.151c-1.986,0-2.614,2.584-.286,2.584Z" transform="translate(-555.372 -373.348)"/>
                  </g>
                </g>
              </g>
              <circle id="Ellipse_10" data-name="Ellipse 10" class="cls-15" cx="33.962" cy="33.962" r="33.962" transform="translate(0 15.931) rotate(-13.565)"/>
              <g id="Group_93" data-name="Group 93" transform="translate(19.866 18.008)">
                <path id="Path_1764" data-name="Path 1764" class="cls-12" d="M429.787,337.209,447.981,355.4c.83.831,2.574.155,3.2-.622,9.066-11.332,20.135-23.3,33.1-30.075,2.1-1.095.174-2.333-1.385-1.518-13.757,7.191-25.315,19.445-34.93,31.464l3.2-.622-18.194-18.195c-.889-.889-4.147.407-3.181,1.373Z" transform="translate(-429.61 -322.925)"/>
              </g>
            </g>
            <g id="Group_100" data-name="Group 100" transform="translate(0 227.543)">
              <g id="Group_98" data-name="Group 98" transform="translate(116.322 32.546)">
                <g id="Group_97" data-name="Group 97">
                  <g id="Group_95" data-name="Group 95">
                    <path id="Path_1765" data-name="Path 1765" class="cls-14" d="M556.869,666.062H722.352c2,0,2.6-2.631.274-2.631H557.143c-2,0-2.6,2.631-.274,2.631Z" transform="translate(-555.367 -663.431)"/>
                  </g>
                  <g id="Group_96" data-name="Group 96" transform="translate(0.004 28.359)">
                    <path id="Path_1766" data-name="Path 1766" class="cls-14" d="M556.865,705.9H724.138c1.986,0,2.614-2.583.286-2.583H557.151c-1.986,0-2.614,2.583-.286,2.583Z" transform="translate(-555.372 -703.32)"/>
                  </g>
                </g>
              </g>
              <circle id="Ellipse_11" data-name="Ellipse 11" class="cls-15" cx="33.962" cy="33.962" r="33.962" transform="translate(0 48.029) rotate(-45)"/>
              <g id="Group_99" data-name="Group 99" transform="translate(26.915 25.057)">
                <path id="Path_1767" data-name="Path 1767" class="cls-12" d="M429.787,667.182l18.194,18.2c.83.83,2.574.154,3.2-.623,9.066-11.333,20.135-23.3,33.1-30.074,2.1-1.1.174-2.334-1.385-1.519-13.757,7.191-25.315,19.445-34.93,31.465l3.2-.623-18.194-18.194c-.889-.889-4.147.407-3.181,1.373Z" transform="translate(-429.61 -652.897)"/>
              </g>
            </g>
          </g>
          <g id="Group_102" data-name="Group 102" transform="translate(112.585 258.972)">
            <path id="Path_1768" data-name="Path 1768" class="cls-12" d="M748.372,564.366v173.04c0,2.561.127,5.159,0,7.718-.25,5.052-3.725,6.124-7.724,6.124H600.456c-25.577,0-51.213-.513-76.786,0-.414.009-.829,0-1.243,0-1.915,0-2.675,2.391-.338,2.391H737.316c1.752,0,3.534.094,5.285,0,6.157-.328,9.239-4.926,9.239-10.566v-179c0-1.726-3.469-1.164-3.469.295Z" transform="translate(-520.638 -563.003)"/>
          </g>
          <g id="Group_103" data-name="Group 103" transform="translate(0)">
            <path id="Path_1769" data-name="Path 1769" class="cls-12" d="M365.763,482.979V211.323c0-1.347-.073-2.717,0-4.062.235-4.342,3.278-6.03,7-6.03H693c1.237,0,2.541-.119,3.774,0,5.432.524,5.82,5.22,5.82,9.351V347.229c0,1.726,3.469,1.164,3.469-.3V209.246c0-5.392-2.365-10.045-8.46-10.4-3.941-.232-7.961,0-11.906,0H379.223c-5.868,0-13.583-1.088-16.333,5.715-.761,1.882-.6,3.932-.6,5.916v272.8c0,1.725,3.469,1.163,3.469-.3Z" transform="translate(-362.279 -198.739)"/>
          </g>
        </g>
        <g id="Group_112" data-name="Group 112" transform="translate(346.138 324.496)">
          <g id="Group_106" data-name="Group 106" transform="translate(0)">
            <path id="Path_1770" data-name="Path 1770" class="cls-13" d="M744.278,512.882,466.221,543.95A7.53,7.53,0,0,1,457.9,537.3l-9.038-80.884a7.531,7.531,0,0,1,6.648-8.321l278.057-31.068a7.532,7.532,0,0,1,8.321,6.649l9.038,80.884A7.53,7.53,0,0,1,744.278,512.882Z" transform="translate(-447.126 -416.121)"/>
            <g id="Group_105" data-name="Group 105">
              <path id="Path_1771" data-name="Path 1771" class="cls-12" d="M743.827,511.589,698.11,516.7l-99.308,11.1-95.635,10.685-29.38,3.283c-5.907.66-13.768,2.886-14.913-5.777-1.693-12.8-2.871-25.691-4.3-38.523-1.516-13.566-3.3-27.132-4.55-40.727-.783-8.5,6.03-8.206,11.954-8.868l28.523-3.186,95.714-10.694,99.635-11.133,33.386-3.73c4.371-.488,8.991-1.486,13.4-1.5,6.808-.016,6.907,6.618,7.454,11.517q1.149,10.285,2.3,20.57,2.682,24.013,5.365,48.026c.5,4.484,2.647,12.7-3.92,13.852-1.62.284-2.842,2.3-.473,1.887,5.019-.879,8.93-4.317,8.6-9.725-.055-.914-.2-1.833-.306-2.743q-1.06-9.481-2.119-18.962-2.822-25.247-5.642-50.494c-.392-3.5-.168-8.341-1.9-11.544-2.141-3.96-6.32-4.559-10.324-4.111l-20.942,2.34-91.007,10.169L513.762,440.244c-19.279,2.154-38.611,4.036-57.858,6.465-5.3.669-9.8,3.99-9.445,9.819.215,3.531.791,7.077,1.183,10.59l5.707,51.077q.969,8.682,1.94,17.363c.622,5.569,4.033,9.479,10.093,8.976,5.064-.42,10.12-1.131,15.169-1.695l85.066-9.5,107.211-11.979,67.225-7.511,3.3-.369C745.019,513.291,746.211,511.322,743.827,511.589Z" transform="translate(-446.439 -415.771)"/>
            </g>
          </g>
          <g id="Group_110" data-name="Group 110" transform="translate(124.31 39.325)">
            <g id="Group_109" data-name="Group 109">
              <g id="Group_107" data-name="Group 107">
                <path id="Path_1772" data-name="Path 1772" class="cls-12" d="M622.691,485.968l99.389-11.1,14.045-1.569c1.785-.2,2.755-2.452.392-2.188l-99.389,11.1-14.045,1.569c-1.785.2-2.755,2.452-.392,2.188Z" transform="translate(-621.29 -471.084)"/>
              </g>
              <g id="Group_108" data-name="Group 108" transform="translate(3.116 27.733)">
                <path id="Path_1773" data-name="Path 1773" class="cls-12" d="M627.166,525.635l100.89-11.273,14.324-1.6c1.959-.219,2.6-2.913.267-2.653l-100.89,11.273-14.324,1.6c-1.959.219-2.6,2.913-.267,2.653Z" transform="translate(-625.674 -510.092)"/>
              </g>
            </g>
          </g>
          <circle id="Ellipse_12" data-name="Ellipse 12" class="cls-16" cx="33.962" cy="33.962" r="33.962" transform="translate(9.95 74.96) rotate(-45)"/>
          <g id="Group_111" data-name="Group 111" transform="translate(35.93 48.594)">
            <path id="Path_1774" data-name="Path 1774" class="cls-12" d="M497.169,504.007l20.1,16.062a2.485,2.485,0,0,0,3.2-.623c7.855-12.432,17.564-25.577,29.862-33.863,1.924-1.3-1.008-1.888-2.156-1.114-12.71,8.564-22.8,22-30.918,34.849l3.2-.622-20.1-16.062c-.985-.788-4.18.574-3.18,1.374Z" transform="translate(-496.978 -484.122)"/>
          </g>
        </g>
        <g id="Group_134" data-name="Group 134" transform="translate(601.297 338.318)">
          <g id="Group_115" data-name="Group 115" transform="translate(76.58 247.977)">
            <path id="Path_1775" data-name="Path 1775" class="cls-15" d="M915.507,786.75c.587,30.958,11.723,104.82,18.782,136.084,1.571,6.957,4.169,13.482,9.512,11.1,2.722-1.216,3.536-4.533,4.472-7.363,8.971-27.1,11.943-67.506,35.011-136.345C985.215,784.457,915.407,781.484,915.507,786.75Z" transform="translate(-913.764 -784.011)"/>
            <g id="Group_113" data-name="Group 113" transform="translate(0 8.059)">
              <path id="Path_1776" data-name="Path 1776" class="cls-12" d="M913.058,796.744c1.985,29.371,6.5,58.719,11.113,87.77,2.235,14.054,4.471,28.188,7.692,42.057,1.27,5.468,4.055,14.845,11.581,11.807,3.4-1.375,4.561-4.658,5.623-7.9q1.525-4.662,2.8-9.4c5.549-20.694,8.994-41.939,13.912-62.789.395-1.671-3.119-1.27-3.479.257-4.17,17.68-7.483,35.542-11.555,53.241a192.386,192.386,0,0,1-5.386,19.594c-.745,2.163-2.056,6.159-5.238,4.7-1.433-.659-2.409-2.882-2.973-4.228a55.824,55.824,0,0,1-2.692-10.054c-5.908-27.858-9.854-56.212-13.5-84.441-1.753-13.577-3.493-27.2-4.416-40.864-.122-1.8-3.583-1.273-3.48.258Z" transform="translate(-913.056 -795.347)"/>
            </g>
            <path id="Path_1777" data-name="Path 1777" class="cls-15" d="M1051.662,792.418c-1.766,5.43-8.674,45.415-9.433,48.983-7.228,34.017-16.657,55.356-22.85,87.574-1.745,9.073-6.814,12.426-11.881,9.5-2.581-1.492-22.483-47.577-35.76-141.689C969.226,778.984,1051.662,792.418,1051.662,792.418Z" transform="translate(-930.002 -785.037)"/>
            <g id="Group_114" data-name="Group 114" transform="translate(46.453 12.07)">
              <path id="Path_1778" data-name="Path 1778" class="cls-12" d="M1050.108,802.123c-4.47,38.1-15.523,74.9-25.6,111.783-1.84,6.735-3.346,13.554-5.157,20.292-.81,3.014-2.906,9.617-7.091,8.107-1.425-.514-1.763-1.168-2.43-2.451-5.294-10.181-8.565-21.782-11.967-32.679a501.537,501.537,0,0,1-16.028-66.162c-.125-.743-3.585.016-3.434.92a500.882,500.882,0,0,0,15.387,64.092c2.384,7.747,4.925,15.452,7.754,23.048,1.547,4.152,3,8.664,5.276,12.494,1.86,3.124,6.277,3,9.285,1.623,6.444-2.944,7.053-11.606,8.567-17.642,4.421-17.626,9.691-35.031,14.327-52.6,6.227-23.6,11.7-47.475,14.544-71.745.056-.477-3.308-.149-3.433.92Z" transform="translate(-978.396 -800.989)"/>
            </g>
          </g>
          <path id="Path_1779" data-name="Path 1779" class="cls-13" d="M945.759,535.371q.2-1.2.418-2.4c2.446-13.539,4.231-28.16,9.257-40.977,3.923-10.1,10.563-20.78,20.682-25.615a19.792,19.792,0,0,1,12-1.853c16.3,2.928,21.024,24.089,21.084,37.871.058,13.268-4.464,25.97-4.628,39.214a45.274,45.274,0,0,0,3.8,19.714c3.046,6.522,5.385,13.5,7.86,20.306a240.783,240.783,0,0,1,9.276,31.271c3.059,14.119,5.639,26.655,6.788,41.042.952,11.915.606,25.719,1.068,37.662,1.624,1.093-63.415,17.526-120.05,3.78-2.171-51.716,1.95-73.862,25.144-128.032C942.756,557.32,943.949,546.1,945.759,535.371Z" transform="translate(-836.404 -443.607)"/>
          <g id="Group_121" data-name="Group 121" transform="translate(72.972 244.492)">
            <path id="Path_1780" data-name="Path 1780" class="cls-13" d="M1032.838,791.966c-.567.788-8.836,1.987-12,2.267q-15,1.323-30.069,1.539a394.258,394.258,0,0,1-39.629-1.455q-9.937-.866-19.827-2.226-4.978-.685-9.942-1.489-2.492-.4-4.981-.838a24.6,24.6,0,0,1-4.226-.727c-1.973-.9-1.617-8.387-1.617-8.387s4.34.764,5.012.917c39.967,9.133,77.553,9.239,118.134,2.287C1033.689,783.853,1033.778,790.658,1032.838,791.966Z" transform="translate(-908.714 -779.554)"/>
            <g id="Group_116" data-name="Group 116">
              <path id="Path_1781" data-name="Path 1781" class="cls-12" d="M927.846,790.044q-4.545-.67-9.077-1.426c-1.525-.257-4.878-.2-6.065-1.107-1.665-1.278-1.245-5.578-1.165-7.475l-2.747,1.226c6.291,1.108,12.5,2.586,18.79,3.726,1.3.236,4.057-1.748,2.036-2.115-6.286-1.14-12.5-2.618-18.79-3.726-.79-.139-2.7.073-2.747,1.226-.1,2.478-.5,7.009,1.56,8.814,1.26,1.1,3.539.99,5.095,1.217,3.959.575,7.9,1.31,11.857,1.893,1.533.226,3.556-1.913,1.254-2.252Z" transform="translate(-907.981 -779.109)"/>
            </g>
            <g id="Group_117" data-name="Group 117" transform="translate(45.144 3.473)">
              <path id="Path_1782" data-name="Path 1782" class="cls-12" d="M972.692,789.645c26.212,2.062,52.443.352,78.34-4.037l-1.439-.328a40.742,40.742,0,0,1-.2,5.228c-.332,2.778-.915,2.484-3.682,2.961a175.385,175.385,0,0,1-20.2,1.878,398.515,398.515,0,0,1-51.3-.521c-.9-.066-3.97,1.493-2.166,1.627a405.343,405.343,0,0,0,60.935-.033c5.557-.425,12.235-.439,17.46-2.595,3.347-1.381,2.625-6.422,2.595-9.465,0-.48-1.221-.364-1.439-.327-25.366,4.3-51.052,6.005-76.729,3.986-.9-.07-3.972,1.484-2.167,1.626Z" transform="translate(-971.479 -783.994)"/>
            </g>
            <g id="Group_119" data-name="Group 119" transform="translate(20.709 1.701)">
              <path id="Path_1783" data-name="Path 1783" class="cls-13" d="M945.578,795.81l8.276,1.1c3.4.439,6.472-1.379,6.91-4.778h0c.439-3.4-1.922-7.094-5.322-7.533l-10.026-1.221c-3.4-.438-5.383,2.625-5.822,6.025h0C939.156,792.805,942.179,795.372,945.578,795.81Z" transform="translate(-937.815 -782.033)"/>
              <g id="Group_118" data-name="Group 118">
                <path id="Path_1784" data-name="Path 1784" class="cls-12" d="M944.274,796.51c4.586.611,10.851,2.6,14.9-.547,5.334-4.138,1.967-12.161-4.077-13.15-3.953-.647-10.639-2.483-14.288-.2a8.555,8.555,0,0,0-3.678,7.623c.321,3.744,3.826,5.651,7.139,6.271,1.669.313,3.484-2.033,1.2-2.461-3.19-.6-5.393-2.913-4.688-6.227a4.146,4.146,0,0,1,4.645-3.58,48.059,48.059,0,0,1,8.474,1.032c5.535,1.289,6.323,10.277-.44,9.841-2.663-.172-5.346-.713-7.992-1.066C943.8,793.827,941.965,796.2,944.274,796.51Z" transform="translate(-937.109 -781.501)"/>
              </g>
            </g>
            <g id="Group_120" data-name="Group 120" transform="translate(66.259 7.822)">
              <path id="Path_1785" data-name="Path 1785" class="cls-12" d="M1003.212,799.966c3.989-1.346,3.733-6.4,1.751-9.386-.782-1.177-4.083.066-3.159,1.457a6.421,6.421,0,0,1,1.078,3.227,5.83,5.83,0,0,1-.1,1.556c-.069.326-.613,1.161-.145,1-.606.2-1.649.712-1.43,1.532.2.765,1.414.81,2,.611Z" transform="translate(-1001.179 -790.111)"/>
            </g>
          </g>
          <g id="Group_126" data-name="Group 126" transform="translate(89.202 136.479)">
            <g id="Group_123" data-name="Group 123" transform="translate(0 11.863)">
              <path id="Path_1786" data-name="Path 1786" class="cls-17" d="M953.281,649.106c-.341,10.761-.647,21.525-1.052,32.286-.412,10.953,2.058,27.892,2.756,32.406a3.756,3.756,0,0,1-.4,2.348c-2.766,5.186-12.54,19.542-12.54,19.542-1.517-2.06-9.684-17.141-8.772-24.3a395.937,395.937,0,0,1,6.515-39.614c1.056-4.866,5.992-26.857,10.127-26.513l1.517.127c1.182.1,2.018,1.646,1.868,3.456C953.289,648.933,953.284,649.019,953.281,649.106Z" transform="translate(-931.501 -644.27)"/>
              <g id="Group_122" data-name="Group 122">
                <path id="Path_1787" data-name="Path 1787" class="cls-12" d="M950.871,648.908c-.606,19.2-1.81,38.152.628,57.262.328,2.565,1.493,6.055,1.066,8.636-.448,2.7-3.17,5.771-4.608,8.017q-4.009,6.264-8.21,12.405l3.2-.626c-4.039-5.742-7.639-13.836-8.557-20.79-.545-4.119.608-8.6,1.157-12.684.645-4.8,1.366-9.6,2.2-14.37,1.492-8.539,3.207-17.072,5.446-25.45a88.266,88.266,0,0,1,3.525-11.012c.621-1.5,1.613-2.786,2.267-4.226q.792-.627-.417-.2l.758.063c1.018.992,1.655,1.162,1.55,2.975-.083,1.447,3.37.789,3.439-.409.32-5.552-6.1-5.9-8.805-2.186-3.747,5.141-5.095,12.633-6.6,18.676-2.115,8.506-3.8,17.135-5.213,25.783-.729,4.458-1.358,8.932-1.94,13.412-.451,3.463-1.273,7.053-.8,10.548.963,7.163,4.647,15.317,8.808,21.235.636.9,2.713.083,3.2-.626q4.183-6.149,8.21-12.4c1.467-2.292,3.387-4.724,4.388-7.268.975-2.479.051-5.4-.3-7.968a173.838,173.838,0,0,1-2.039-25.091c.122-11.365.735-22.75,1.094-34.111C954.356,647.038,950.908,647.717,950.871,648.908Z" transform="translate(-930.81 -643.867)"/>
              </g>
            </g>
            <g id="Group_125" data-name="Group 125" transform="translate(15.48)">
              <path id="Path_1788" data-name="Path 1788" class="cls-17" d="M961.183,629.589c-2.176-4.209-5.72,3.638-5.907,5.447-.106,1.03-.276,2.391.587,2.943.973.623,2.933.567,4.067.848,3.155.783,2.537-4.657,2.152-6.214A14.675,14.675,0,0,0,961.183,629.589Z" transform="translate(-953.337 -627.523)"/>
              <g id="Group_124" data-name="Group 124">
                <path id="Path_1789" data-name="Path 1789" class="cls-12" d="M962.148,628.787c-1.672-2.923-5.253-1.37-6.9.81-1.312,1.741-3.771,6.154-2.11,8.306,1.023,1.325,3.793,1.322,5.31,1.492a4.722,4.722,0,0,0,4.115-1.459c1.758-2.249.609-6.856-.418-9.149-.474-1.058-3.831.033-3.434.92a14.762,14.762,0,0,1,1.216,5.617,15.126,15.126,0,0,1-.528,2.662q1.492-.336.444-.431-.466-.075-.936-.124a7.065,7.065,0,0,1-1.774-.294c-1.9-.781-.716-3.748-.1-5.137a12.258,12.258,0,0,1,1.383-2.451c.072-.1.845-.865.839-.912q-1.811-.1-1.013.422a2.356,2.356,0,0,1,.472.648C959.309,630.746,962.589,629.559,962.148,628.787Z" transform="translate(-952.584 -627.181)"/>
              </g>
            </g>
          </g>
          <path id="Path_1790" data-name="Path 1790" class="cls-15" d="M1049.316,465.651c3.885,6.991,3.083,17,.056,24.363-5.582,13.58-18.871,15.2-29.558,11.4-4.717-1.675-9.285-4.686-11.458-9.668-1.7-3.895-1.766-8.584-3.351-12.546a13.763,13.763,0,0,0-9.949-8.585c-6.487-1.219-13.32,4.124-19.806,2.182-6.022-1.8-5.209-10.213-3.685-15.281a30.453,30.453,0,0,1,11.611-15.859c7.077-4.96,15.742-6.785,24.065-6.4,6.959.324,16.676,1.565,22.685,5.389,4.8,3.053,6.854,8.791,9.028,13.962,1.817,4.319,6.47,5.594,9.144,9.156A16.415,16.415,0,0,1,1049.316,465.651Z" transform="translate(-853.072 -435.212)"/>
          <path id="Path_1791" data-name="Path 1791" class="cls-12" d="M970.651,556.107c1.474,1.27,3.8,2.64,5.817,2.5.576-.038,1.27-.125,1.538.533.312.769-.662,2.271-1.011,2.928-.61,1.151-1.344,2.23-2.039,3.33-.842,1.332-2.691,3.059-4.438,2.072-1.076-.609-1.5-2.163-1.74-3.27a23.577,23.577,0,0,1-.194-8.1.906.906,0,0,1,.579-.765c.486-.142.933.279,1.311.617Z" transform="translate(-852.453 -469.927)"/>
          <g id="Group_127" data-name="Group 127" transform="translate(103.418 19.873)">
            <path id="Path_1792" data-name="Path 1792" class="cls-12" d="M954.219,557.666c5.905-23.057,5.5-48.122,15.5-70.062,4.557-10,13.545-23.274,26.015-22.831,9.261.33,15.563,7.946,18.776,15.939a59.94,59.94,0,0,1,3.932,23.815c-.352,12.544-4.448,24.664-4.6,37.229a47.082,47.082,0,0,0,2.811,17.383c2.208,5.776,4.8,11.377,6.9,17.209,3.956,11,7.743,22.026,10.65,33.36,6.6,25.714,8.9,52.144,8.013,78.64-.023.687,3.4.2,3.433-.92.857-25.487-1.217-50.932-7.285-75.735a355.28,355.28,0,0,0-11.16-35.66c-2.168-6.035-4.82-11.841-7.112-17.814a48.255,48.255,0,0,1-2.752-19.365c.563-13.017,4.907-25.613,4.545-38.708-.235-8.494-1.883-17.449-6.113-24.91-3.993-7.043-10.686-12.1-19.025-12.069-10.093.038-18.847,6.8-24.507,14.665-7.647,10.624-11.065,23.559-13.483,36.238-2.793,14.646-4.233,29.695-7.934,44.145-.232.905,3.157.412,3.4-.547Z" transform="translate(-950.806 -463.166)"/>
          </g>
          <g id="Group_128" data-name="Group 128" transform="translate(74.699 132.624)">
            <path id="Path_1793" data-name="Path 1793" class="cls-12" d="M914.018,731.393c-.491-18.138-.06-36.319,3.459-54.172,3.729-18.915,10.565-37.036,17.9-54.805.454-1.1-2.964-.719-3.435.423-7.46,18.074-14.4,36.513-18.089,55.774-3.389,17.7-3.755,35.731-3.268,53.7.03,1.1,3.469.422,3.433-.92Z" transform="translate(-910.411 -621.759)"/>
          </g>
          <path id="Path_1794" data-name="Path 1794" class="cls-13" d="M1013.542,601.705c-39.286,22.034-64.56,7.985-68.22-.451.041.093-5.174,9.807-6.156,11.634a.512.512,0,0,0,.051.561c.946,1.2,4.868,6.064,6.841,6.859a3.989,3.989,0,0,0,3.231-.146,3.143,3.143,0,0,0,.608-.42q1.934-1.621,3.8-3.32c.747-.68,1.632-1.889,2.562-2.254,1.524-.6,2.705.257,3.342,1.711a10.711,10.711,0,0,1,.638,2.476q.52,2.977,1.04,5.956a4.386,4.386,0,0,0,.5,1.6c.8,1.273,3.645,1.045,4.927,1.157q3.267.286,6.548.253a72.726,72.726,0,0,0,13.9-1.477,77.46,77.46,0,0,0,16.865-5.552,86.874,86.874,0,0,0,14.033-8.17Z" transform="translate(-844.006 -483.207)"/>
          <g id="Group_129" data-name="Group 129" transform="translate(93.45 117.132)">
            <path id="Path_1795" data-name="Path 1795" class="cls-12" d="M1011.838,600.945c-13.874,7.677-30.036,13.387-46.083,10.637-6.753-1.157-16.259-4.321-19.386-11.16-.466-1.017-3.124-.124-3.424.712-.967,2.7-2.765,5.3-4.114,7.826-.512.957-1.959,2.714-2.041,3.807-.1,1.275,1.314,2.392,2.081,3.279,2.415,2.793,4.837,5.72,8.892,4.813,2.333-.521,3.956-2.239,5.68-3.782,1.076-.964,2.063-2.688,3.776-1.11.843.776.864,3.764,1.055,4.858.319,1.829.194,4.778,1.91,5.937,1.566,1.059,4.309.768,6.085.874a76.961,76.961,0,0,0,18.7-1.1,86.484,86.484,0,0,0,33.768-14.6c1.5-1.053-1.929-.908-2.7-.367-10.246,7.19-21.833,12.264-34.3,13.935a67.128,67.128,0,0,1-9.766.594c-2.256-.028-5.559.3-7.732-.443-4.342-1.483-1.114-9.768-4.936-12.312-2.217-1.475-4.933-.037-6.644,1.494-2.138,1.913-4.156,5.557-7.158,3.466a22.916,22.916,0,0,1-3.929-4.118c-.958-1.136-1.346-1.542-.825-2.945a35.7,35.7,0,0,1,2.2-4.1,51.623,51.623,0,0,0,3.411-6.509l-3.424.712c3.562,7.788,14.44,11.064,22.125,12.134,17.015,2.37,34.152-3.624,48.844-11.754,2.008-1.111-1.078-1.325-2.066-.778Z" transform="translate(-936.785 -599.968)"/>
          </g>
          <g id="Group_130" data-name="Group 130" transform="translate(152.088 267.941)">
            <path id="Path_1796" data-name="Path 1796" class="cls-12" d="M1019.287,813.545c2.434,8.336,6.18,17.909,16,19.147,1.056.134,4.023-1.586,2.113-1.827-9.141-1.152-12.444-10.586-14.679-18.239-.339-1.161-3.769-.227-3.434.92Z" transform="translate(-1019.264 -812.093)"/>
          </g>
          <g id="Group_131" data-name="Group 131" transform="translate(87.292 267.704)">
            <path id="Path_1797" data-name="Path 1797" class="cls-12" d="M931.878,813.578a10.72,10.72,0,0,1-3.189,10.661c-1.736,1.541.953,2.923,2.316,1.713a13.35,13.35,0,0,0,4.306-13.295c-.41-1.687-3.847-.781-3.434.92Z" transform="translate(-928.123 -811.759)"/>
          </g>
          <g id="Group_132" data-name="Group 132" transform="translate(0 77.055)">
            <path id="Path_1798" data-name="Path 1798" class="cls-12" d="M898.284,599.936c-10.505,14.609-30.421,14.713-45.529,7.781-16.51-7.574-31.171-22.693-35.591-40.616a42.912,42.912,0,0,1-1.21-7.915c-.118-2.138.233-4.343-.061-6.46-.6-4.348-4.163-7.142-7.855-8.979-1.488-.741-3.931,1.421-1.959,2.4,2.441,1.214,4.75,2.912,5.831,5.49,1.053,2.512.417,5.615.584,8.3a46.7,46.7,0,0,0,2.766,13.088,62.834,62.834,0,0,0,15.332,23.1c12.475,12.206,30.076,20.959,47.894,18.3a33.48,33.48,0,0,0,22.7-13.4c1.285-1.787-1.928-2.449-2.9-1.1Z" transform="translate(-805.34 -543.597)"/>
          </g>
          <g id="Group_133" data-name="Group 133" transform="translate(108.239 144.583)">
            <path id="Path_1799" data-name="Path 1799" class="cls-12" d="M1018.955,639.936c1.246,19.161-2.519,38.67-12.278,55.338-10.88,18.585-28.24,31.884-48.1,39.746-2.241.887-.174,1.757,1.294,1.177,15.942-6.311,30.576-15.85,41.618-29.09a91.438,91.438,0,0,0,19.43-41.665,105.953,105.953,0,0,0,1.472-26.426c-.06-.926-3.51-.262-3.434.92Z" transform="translate(-957.586 -638.58)"/>
          </g>
        </g>
        <g id="Group_148" data-name="Group 148" transform="translate(99.44 338.318)">
          <g id="Group_139" data-name="Group 139" transform="translate(81.813 0)">
            <path id="Path_1800" data-name="Path 1800" class="cls-14" d="M217.127,922.278c.921-12.84,16.461-76.183,11.1-158.433-1.167-17.915,54.5.963,70.155,15.341a14.829,14.829,0,0,1,1.427,1.505,59.1,59.1,0,0,1,5.869-4.079c8-4.941,17.3-8.817,26.606-7.461a7.668,7.668,0,0,1,3.693,1.324c1.75,1.374,6.512,1.1,6.866,3.3,1.461,9.024-.126,18.848-1.213,27.991a205.851,205.851,0,0,1-4.3,22.649,474.56,474.56,0,0,1-14.269,49.473c-2.028,5.752-17.908,58.1-30.785,58.1-12.818,0-11.852-102.171-12.509-106.222-2.871,4.927-30.4,69.907-47.111,98.128-2.972,5.021-9.271,10.69-13.586,6.763C216.869,928.654,216.915,925.243,217.127,922.278Z" transform="translate(-215.244 -528.092)"/>
            <g id="Group_135" data-name="Group 135" transform="translate(0 261.921)">
              <path id="Path_1801" data-name="Path 1801" class="cls-12" d="M340.056,804.706c-1.182,17.851-5.407,35.526-10.1,52.737a518.741,518.741,0,0,1-17.744,53.7c-2.719,6.9-5.6,13.753-8.9,20.4-2.026,4.077-4.151,8.674-7.323,12.017a6.019,6.019,0,0,1-1.242,1.12c-.316.182.873-.058-.07-.085a6.489,6.489,0,0,1-1.477-.166,7.353,7.353,0,0,1-4.385-4.074c-2.993-5.795-3.194-13.207-3.579-19.567-1.659-27.342-.894-54.633-4.481-81.872-.092-.705-3.174.242-3.406.776-10.867,24.979-22.166,49.822-34.342,74.192-3.617,7.239-7.314,14.449-11.336,21.473-2.082,3.637-8.908,14.186-12.769,6.928-1.478-2.779-.9-6.408-.508-9.429,1.765-13.708,4.458-27.3,6.293-41a619.183,619.183,0,0,0,5.651-83.832c0-.468-3.436-.006-3.433.92a615.662,615.662,0,0,1-5.149,80c-1.924,15-4.866,29.846-6.8,44.834-.423,3.289-1.083,7.416,1.012,10.235,2.27,3.052,6.347,2.448,9.39,1.078,7.527-3.386,11.218-12.916,14.851-19.792,9-17.028,17.157-34.5,25.18-52.007q7.815-17.047,15.335-34.23l-3.406.776c3.457,26.247,3.053,52.557,4.323,78.931.384,7.981.016,30.359,13.623,26.8,3.277-.858,5.223-3.8,6.943-6.512a127.677,127.677,0,0,0,8.8-17.472,466.607,466.607,0,0,0,19.535-54.945c6-20.406,11.532-41.546,12.942-62.849.026-.4-3.369-.047-3.433.921Z" transform="translate(-214.517 -803.625)"/>
            </g>
            <path id="Path_1802" data-name="Path 1802" class="cls-13" d="M347.19,701.1c1.482-55.449.625-79.706-28.185-138.694a58.085,58.085,0,0,1-5.914-25.964c.065-7.948.1-16.731.1-19v-4.817c0-26.878-13.208-48.667-29.5-48.667s-29.5,21.789-29.5,48.667v4.817c0,8.18-.734,15.865-.538,24.043.048,2.007-.525,3.388-.533,5.308a37.921,37.921,0,0,1-.909,7.022c-13.7,58.328-22.19,72.005-24.86,149.437C225.692,704.4,289.163,716.124,347.19,701.1Z" transform="translate(-218.216 -443.521)"/>
            <path id="Path_1803" data-name="Path 1803" class="cls-13" d="M249.71,603.232c-10.059,41.052-18.671,58.9-22.351,138.982,3.071,3.306,72.981,11.635,119.844-2.15,7.281-68.112-17.446-118.352-30.128-141.311,0,0-23.178,11.168-66.054.742C250.761,599.43,249.71,603.232,249.71,603.232Z" transform="translate(-218.229 -482.484)"/>
            <path id="Path_1804" data-name="Path 1804" class="cls-14" d="M258.64,449.957c-.617-.31,3.07-6.373,3.46-6.953,4.931-7.321,15.329-10.422,22.832-5.162.252.176,2.018,1.512,3.537,2.737a4.862,4.862,0,0,0,4.958.636c12.21-5.142,28.274,6.515,26.181,21.23-.631,4.436-2.329,8.9-6.306,11.064-4.378,2.387-10.029,1.957-13.2-2.2-6.091,13.7-12.4,15.3-21.386,12.734,2.171.265-1.08,11.563-1.633,12.82-5.576,12.678-21.844,15.237-32.6,7.606a26.862,26.862,0,0,1-9.676-12.7c-3.094-8.6,1.391-11.615,3.732-19.04,1.4-4.439.167-9.127,1.844-13.63C243.032,451.99,251.2,446.924,258.64,449.957Z" transform="translate(-220.078 -435.213)"/>
            <g id="Group_136" data-name="Group 136" transform="translate(7.357 19.066)">
              <path id="Path_1805" data-name="Path 1805" class="cls-12" d="M321.55,566.587c-12.614-23.059-3.07-49.42-9.355-73.716-4.01-15.5-16.126-35.8-35.217-29.743-8.738,2.771-14.9,10.511-18.748,18.492-5.086,10.556-6.49,22.085-6.49,33.673,0,7.244-.507,14.471-.566,21.712a87.981,87.981,0,0,1-1.23,15.443c-1.9,10.155-4.871,20.214-7.454,30.215-4.373,16.925-8.818,33.832-11.661,51.1-1.68,10.2-2.871,20.482-3.755,30.783-.538,6.281-.964,12.571-1.313,18.865q-.278,5-.494,10-.116,2.65-.218,5.3c-.038,1,.057,2.153.013,3.117a5.907,5.907,0,0,0-.188,1.024c.727,2.493,6.763,2.643,8.857,3a251.607,251.607,0,0,0,25.47,2.822c26.254,1.73,52.955.616,78.733-4.869,2.742-.584,6.894-.81,9.308-2.249a2.611,2.611,0,0,0,1.3-1.829c.8-2.643.372-6.09.354-8.807-.046-6.965-.394-13.921-.614-20.881-.47-14.9-1.465-29.89-4.394-44.529a191.773,191.773,0,0,0-13.111-40.627c-2.791-6.238-5.892-12.331-9.232-18.293-.748-1.336-4.023-.058-3.143,1.512a199.22,199.22,0,0,1,24.85,77.514c1.053,10.369,1.4,20.769,1.793,31.177.266,7.1.81,14.38.227,21.475a4.3,4.3,0,0,1-.16,1.454c-.342.6.256-.268-.845.129-3.38,1.219-7.254,1.694-10.779,2.38-6.952,1.352-13.972,2.352-21.015,3.087a301.141,301.141,0,0,1-38.376,1.478c-9.832-.233-19.663-.886-29.429-2.053-3.346-.4-6.689-.858-10.011-1.427-1.9-.325-3.917-1.045-5.826-1.2-.174-.014-.488-.24-.644-.2-1.022.266,1.2-.683-.138.62-.36.351.016.983.273.192a6.349,6.349,0,0,0,.1-1.548c.118-2.24.167-4.485.262-6.726q.412-9.726,1.048-19.442c.692-10.306,1.624-20.6,2.986-30.841a417.936,417.936,0,0,1,9.744-48.2c4.5-17.643,10.108-35.281,12.1-53.4.355-3.226.072-6.578.168-9.825.111-3.758.311-7.513.414-11.271.146-5.347-.1-10.709.335-16.045.9-11.114,4.059-22.819,11.133-31.664,5.643-7.056,14.11-11.362,23.015-7.729,8.469,3.455,13.7,12.336,16.821,20.489,7.983,20.875,1.83,43.247,5.976,64.767a57.415,57.415,0,0,0,5.981,16.807C319.141,569.441,322.415,568.168,321.55,566.587Z" transform="translate(-224.865 -462.031)"/>
            </g>
            <g id="Group_137" data-name="Group 137" transform="translate(105.053 39.464)">
              <path id="Path_1806" data-name="Path 1806" class="cls-12" d="M444.853,490.761c-11.523,2-12.761,13.96-14.252,23.5a89.882,89.882,0,0,1-5.076,17.6c-6.165,16.414-15,34.32-29.682,44.706-9.313,6.586-20.163,7.8-30.822,3.851-1.46-.541-4.019,1.558-1.982,2.312,37.9,14.034,61.192-32.4,69.545-61.859,2.554-9.009.972-25.687,12.9-27.761,2.178-.379,1.5-2.72-.63-2.35Z" transform="translate(-362.281 -490.721)"/>
            </g>
            <g id="Group_138" data-name="Group 138" transform="translate(31.829 124.498)">
              <path id="Path_1807" data-name="Path 1807" class="cls-12" d="M325.79,610.934c-15.777,17.483-44.211,15.4-63.406,5.511-1.027-.529-4.17.95-2.724,1.7,20.782,10.7,51.915,12.224,68.9-6.595,1.359-1.505-1.967-1.5-2.766-.611Z" transform="translate(-259.286 -610.329)"/>
            </g>
            <path id="Path_1808" data-name="Path 1808" class="cls-12" d="M330.2,551.309c1.271-.515,2.5,1.239,2.2,3.209-.375,2.431-1.439,4.631-2.926,5.653-2.37,1.63-5.468.03-6.721-3.47a3.767,3.767,0,0,1-.357-1.74,2.34,2.34,0,0,1,1.547-2.234A32.125,32.125,0,0,0,330.2,551.309Z" transform="translate(-245.695 -468.745)"/>
          </g>
          <g id="Group_146" data-name="Group 146" transform="translate(0 121.94)">
            <g id="Group_141" data-name="Group 141" transform="translate(0 0)">
              <rect id="Rectangle_27" data-name="Rectangle 27" class="cls-13" width="96.45" height="294.849" rx="10.593" transform="matrix(0.421, -0.907, 0.907, 0.421, 0, 87.481)"/>
              <g id="Group_140" data-name="Group 140" transform="translate(1.01 1.626)">
                <path id="Path_1809" data-name="Path 1809" class="cls-12" d="M361.819,815.035,320.1,795.664l-90.634-42.079-87.282-40.522-26.814-12.449c-5.479-2.544-13.88-4.965-10.5-13.052,4.811-11.527,10.56-22.747,15.819-34.073l17.687-38.1c1.417-3.053,3.553-5.579,7.565-4,.276.108.537.257.808.375,2,.867,3.955,1.836,5.929,2.753L178.7,626.6l87.354,40.556,90.933,42.217,30.47,14.146c4.054,1.883,8.283,3.575,12.229,5.678,6.209,3.308,3.531,8.952,1.363,13.624l-8.465,18.231L372.039,805.31c-1.924,4.143-4.058,12.133-10.22,9.724-1.024-.4-4.144,1.1-2.734,1.654,4.4,1.721,9.861.537,12.516-3.622a26.3,26.3,0,0,0,1.508-3.1l7.727-16.643,21.532-46.378c1.516-3.263,3.969-6.959,4.648-10.557.859-4.556-2.142-7.7-5.905-9.448L382,718.065,298.939,679.5l-96.7-44.9c-17.6-8.169-35.094-16.6-52.8-24.516-4.581-2.047-10.406-1.285-13.286,3.265-1.908,3.014-3.15,6.64-4.645,9.86q-10.766,23.188-21.532,46.377L102.3,686.12c-2.235,4.813-2.328,9.926,3.093,12.786,4.481,2.365,9.252,4.3,13.844,6.428l77.637,36.044,97.846,45.427,61.353,28.485,3.012,1.4C360.09,817.156,363.231,815.69,361.819,815.035Z" transform="translate(-100.861 -609.017)"/>
              </g>
            </g>
            <g id="Group_145" data-name="Group 145" transform="translate(123.245 81.242)">
              <g id="Group_144" data-name="Group 144">
                <g id="Group_142" data-name="Group 142" transform="translate(11.888)">
                  <path id="Path_1810" data-name="Path 1810" class="cls-12" d="M289.945,722.923l90.708,42.113,12.819,5.951c1.16.539,4.252-1.087,2.692-1.812l-90.709-42.114-12.818-5.951c-1.16-.538-4.252,1.088-2.692,1.812Z" transform="translate(-289.514 -721.003)"/>
                </g>
                <g id="Group_143" data-name="Group 143" transform="translate(0 25.369)">
                  <path id="Path_1811" data-name="Path 1811" class="cls-12" d="M273.549,759.24l92.077,42.749,13.073,6.069c1.516.7,3.956-1.487,1.955-2.417l-92.078-42.749L275.5,756.823c-1.516-.7-3.956,1.487-1.954,2.417Z" transform="translate(-272.793 -756.686)"/>
                </g>
              </g>
            </g>
            <circle id="Ellipse_13" data-name="Ellipse 13" class="cls-14" cx="33.962" cy="33.962" r="33.962" transform="translate(21.436 79.207) rotate(-61.387)"/>
          </g>
          <g id="Group_147" data-name="Group 147" transform="translate(62.6 129.465)">
            <path id="Path_1812" data-name="Path 1812" class="cls-12" d="M234.146,618.32c-6.674,18.327-24.547,29.068-35.865,44.172-5.764,7.692-9.95,16.521-10.663,26.209a52.043,52.043,0,0,0,6.409,28.491c2.984,5.437,7.17,9.6,11.114,14.3,3.632,4.326,7.55,12.395,1.829,16.895-1.829,1.438.987,2.318,2.22,1.349,8.009-6.3,2.52-16.027-2.864-21.918-7.584-8.3-12.956-17.457-14.735-28.709a45.237,45.237,0,0,1,6.761-31.756c5.5-8.694,13.147-15.67,20.344-22.915,7.512-7.562,14.992-15.668,18.7-25.848.639-1.755-2.783-1.545-3.248-.267Z" transform="translate(-187.492 -617.316)"/>
          </g>
        </g>
      </g>
    </g>
    <g id="Group_20" data-name="Group 20" transform="translate(960.444 150.911)">
      <path id="Path_1681" data-name="Path 1681" class="cls-18" d="M892.509,471.513a1.471,1.471,0,0,1,.523-.138,3.83,3.83,0,0,0,1.174-.627,9.833,9.833,0,0,0,2.238-1.711,12.712,12.712,0,0,0,1.367-3.153l.046-.111a16.081,16.081,0,0,1,3.2-5.138,12.671,12.671,0,0,1,8.485-3.181c3.508-.073,6.923.163,10.128,1.7-.348.233-.814-1.112-.871-1.388-.53-2.559-1.085-5.4-.555-8,1.146-5.643,6.431-10.512,12.4-9.7a14.384,14.384,0,0,1,7.962,4.006,51.134,51.134,0,0,1,3.639,4.233c1.055,1.322,1.847,2.808,2.914,4.118,1.142,1.4,2.325,2.751,3.443,4.176a23.452,23.452,0,0,0,3.165,3.42c.9.767,2.488,2.429,3.749,2.324-1.418-.061-2.025-.846-3.06-1.86-1.593-1.561-3.063-4.936-1.188-6.907,1.9-2,6.33-.589,7.982,1.063,2.932,2.936,4.582,6.756,7.483,9.692.937.948,2.339,3,3.726,1.951,1.561-1.178,2.937-2.819,5.08-2.667a3.072,3.072,0,0,1,1.324.328,12.1,12.1,0,0,1,1.717,1.467c1.347,1.183,2.683,2.321,3.907,3.63a8.5,8.5,0,0,0,1.789,1.485c.346.213.652.514.994.715a1.534,1.534,0,0,0,.916.271c-.226-.036-.332.061-.53.112a4.169,4.169,0,0,1-1.01.032H896.276c-.423,0-.786.1-1.193.13-.484.036-.984-.131-1.473-.129a2.992,2.992,0,0,1-.569.007C892.851,471.621,892.712,471.489,892.509,471.513Z" transform="translate(-826.59 -347.052)"/>
      <path id="Path_1682" data-name="Path 1682" class="cls-13" d="M786.88,372.954c-.044.245,2.2-.9,3.448-1.716.425-.276.651-.778,1.059-1.08.161-.119.219-.03.356-.172.18-.187.243-.484.446-.69a17.6,17.6,0,0,1,1.584-1.319,14.424,14.424,0,0,1,2.048-1.4,9.01,9.01,0,0,1,2-.572,11.574,11.574,0,0,1,4.28.057,5.312,5.312,0,0,1,1.807.685c.766.386,1.589.507,2.365.851a10.05,10.05,0,0,0,2.474.819,5.364,5.364,0,0,1,1.007.182c.12.044.232.119.35.169.281.117.931.1,1.107.246a17.391,17.391,0,0,0-3.545-1.831c-2.8-1.43-5.811-2.911-7.615-5.6a11.479,11.479,0,0,1-2.095-5.672,7.365,7.365,0,0,1,2.611-5.813c1.62-1.207,4.125-1.587,5.775-.295a77.348,77.348,0,0,1-8.118-8.174,20.046,20.046,0,0,1-1.748-2.73,4.254,4.254,0,0,1-.7-2.367c-.109-2.956,1.454-5.087,4.041-6.463,3.752-1.994,8.091-1.711,12.105-.921a18.5,18.5,0,0,1,4.624,1.312,28.626,28.626,0,0,1,6.373,4.234q1.135,1.155,2.223,2.358c1.107,1.225,2.37,2.425,3.588,3.53a15.9,15.9,0,0,1,1.554,1.986c.4.5.808.942,1.231,1.409.476.525.912,1.08,1.395,1.6.6.644,1.079,1.358,1.644,2.026.716.848,1.634,1.517,2.379,2.346a18.271,18.271,0,0,0,2,2.079c.762.62,1.513,1.244,2.256,1.887.6.522,1.208,1.076,1.844,1.561.783.6,1.656,1.052,2.443,1.651,2.21,1.682,4.538,3.1,6.873,4.588,1.538.977,3.139,1.908,4.621,2.957a4.8,4.8,0,0,1-.926-1.426,12.964,12.964,0,0,1-1.448-3.262c-.369-1.672-.13-3.761,1.53-4.587a7.152,7.152,0,0,1,2.184-.958,8.14,8.14,0,0,1,3.2.359c.51.17.993.436,1.5.62a18.965,18.965,0,0,1,1.841.688,17.685,17.685,0,0,1,2.128,1.451c.7.477,1.458.882,2.131,1.4,2,1.532,4.008,3.06,5.97,4.639a18.185,18.185,0,0,0,4.218,2.559c2.667,1.137,5.243,2.467,7.918,3.57.778.321,1.523.731,2.273,1.113.693.353,1.409.56,2.088.916a10.6,10.6,0,0,0,1.566.759c.37.12.668.332,1.01.452Z" transform="translate(-786.879 -305.16)"/>
      <path id="Path_1683" data-name="Path 1683" class="cls-19" d="M1072.949,329.462c-.773-.135-.687-1.012-.957-1.619a12.561,12.561,0,0,1-1.156-2.371c-.8-3.5,1.219-6.271,4.242-7.822,3.943-2.023,7.751-2.061,11.976-.844.553.159.933.485,1.468.678a13.724,13.724,0,0,0,1.677.441c.384.086.668.226,1.03.335.175.053.361-.021.495.122a12.141,12.141,0,0,1-1.168-1.145c-.153-.144-.355-.221-.516-.354-.2-.162-.212-.313-.337-.507a13.823,13.823,0,0,0-1.166-1.276c-2.291-2.695-4.562-5.1-6.177-8.306-1.307-2.592-2.081-6.447-.87-9.188a9.628,9.628,0,0,1,7.16-5.454c4.162-.881,8.41-1.553,12.616-.648,5.415,1.166,10.746,3.114,14.849,6.973a27.556,27.556,0,0,1,3.449,3.869c1.3,1.789,3.059,5.137,3.153,7.445.122,3-2.659,2.885-4.821,2.3a14.107,14.107,0,0,1-7.481-4.909c-1.681-2.066-3.594-5.53-2.135-8.2,1.292-2.365,4.171-2.322,6.506-2.267,7.242.172,14.061,5.23,18.34,10.752,1.076,1.388,2.235,2.743,3.2,4.211a4.105,4.105,0,0,1,.357.69,15.406,15.406,0,0,0,.964,1.674,6.438,6.438,0,0,0,.5.782c-.044-.976-.332-1.935-.333-2.908a12.628,12.628,0,0,1,1-5.5,9.083,9.083,0,0,1,3.141-3.457c.238-.163.435-.4.688-.538a2.947,2.947,0,0,1,.51-.159c.213-.072.4-.19.61-.272a2.832,2.832,0,0,1,.594-.125,5.311,5.311,0,0,1,1.055-.193,8.193,8.193,0,0,1,1.684.142,8.863,8.863,0,0,1,1.35.564,10.315,10.315,0,0,1,2.764,1.863,23.867,23.867,0,0,1,4.2,4.028c3.594,5.052,5.077,12.164,10.4,15.9,1.405.988,4.205,2.254,5.94,1.772,2.274-.632,2.075-2.845,1.282-4.566-.849-1.843-2.4-4.429-4.252-5.484-1.18-.672-2.509-.66-2.245.945.346,2.106,2.542,3.706,4.088,4.9a39.682,39.682,0,0,0,8.4,5.046c4.048,1.754,8.688,1.509,12.884,2.345a22.939,22.939,0,0,1,2.247.775,9.318,9.318,0,0,0,3.075.436Z" transform="translate(-893.565 -291.073)"/>
    </g>
    <path id="Path_802" data-name="Path 802" class="cls-15" d="M452.455,377.85l-.358.044a8.191,8.191,0,0,0,1.067-1.817c.663-1.03,1.76-1.684,2.489-2.655a31.251,31.251,0,0,1,3.447-4.34,44.761,44.761,0,0,1,6.347,3.454,10.057,10.057,0,0,1,1.812,1.035c.658.728.58.268,0,.885-.492.523-1.264.887-1.812,1.478-.479.519-.961,1.068-1.454,1.616-1.3,1.445-2.781,2.769-4.161,4.138-.77.764-1.673,2.586-2.652,2.405a10.876,10.876,0,0,1-1.149-1.059c-.581-.478-1.225-.9-1.824-1.35a5.817,5.817,0,0,0-2.816-1.585l-.115-.476" transform="translate(1173.734 -21.489)"/>
    <path id="Path_801" data-name="Path 801" class="cls-20" d="M560.721,354.052a7.852,7.852,0,0,1,.866,1.566c.43.711,1.017,1.4,1.5,2.086s1.071,1.246,1.487,1.946a2.569,2.569,0,0,0,.459,1.115l.831.764c.352.456.457,1.23,1.17,1.233.122,0,1.012-.38,1.161-.432a28.494,28.494,0,0,0,3.649-1.682c2.177-1.136,4.4-1.913,6.6-2.964a16.381,16.381,0,0,1,2.333-.886,7.874,7.874,0,0,0,1.507-.491,3.473,3.473,0,0,1,1.229-.363c-.044-.4-.413-.485-.65-.789a17.082,17.082,0,0,1-.886-1.5c-.739-1.183-1.523-2.425-2.35-3.542-.95-1.283-3.169-3.375-3.229-5.071a6.708,6.708,0,0,0-1.737.74,20.891,20.891,0,0,0-2.634,1.173,7.891,7.891,0,0,1-2.854,1.585,11.6,11.6,0,0,0-2.547.774c-2.371,1.14-5,1.865-6.949,3.58C560.082,352.934,560.445,352.787,560.721,354.052Z" transform="translate(1047.98 -136.453)"/>
  </g>
</svg>
