<svg height="423pt" viewBox="0 -3 423.25461 423" width="423pt" xmlns="http://www.w3.org/2000/svg"><path d="m327.679688 225.40625c0 86.71875-70.296876 157.015625-157.011719 157.015625-86.714844 0-157.011719-70.296875-157.011719-157.015625 0-86.714844 70.296875-157.011719 157.011719-157.011719 86.714843 0 157.011719 70.296875 157.011719 157.011719zm0 0" fill="#efefd2"/><path d="m223.972656 72.90625c-24.804687 0-45.808594 16.164062-53.128906 38.519531-7.316406-22.355469-28.320312-38.519531-53.125-38.519531-30.886719 0-55.921875 25.035156-55.921875 55.921875 0 30.882813 55.921875 111.84375 109.046875 134.210937 53.128906-16.773437 109.050781-103.328124 109.050781-134.210937 0-30.886719-25.035156-55.921875-55.921875-55.921875zm0 0" fill="#fc8c29"/><path d="m170.847656 269.867188c-.898437 0-1.804687-.179688-2.644531-.53125-56.160156-23.648438-113.234375-107.234376-113.234375-140.507813 0-34.597656 28.152344-62.746094 62.753906-62.746094 21.980469 0 41.847656 11.34375 53.125 29.351563 11.28125-18.007813 31.148438-29.351563 53.128906-29.351563 34.597657 0 62.746094 28.144531 62.746094 62.746094 0 32.941406-57.132812 122.828125-113.820312 140.71875-.667969.214844-1.359375.320313-2.054688.320313zm-53.125-190.132813c-27.074218 0-49.101562 22.019531-49.101562 49.09375 0 25.941406 51.09375 103.578125 102.546875 126.90625 49.082031-17.554687 101.898437-99.109375 101.898437-126.90625 0-27.074219-22.019531-49.09375-49.09375-49.09375-21.273437 0-40.019531 13.59375-46.636718 33.816406-.921876 2.800781-3.535157 4.703125-6.488282 4.703125s-5.566406-1.902344-6.488281-4.703125c-6.617187-20.222656-25.363281-33.816406-46.636719-33.816406zm0 0" fill="#4c241d"/><path d="m276.480469 416.554688c-62.105469 0-112.640625-50.535157-112.640625-112.640626v-37.546874c0-3.773438 3.054687-6.828126 6.828125-6.828126 3.773437 0 6.828125 3.054688 6.828125 6.828126v37.546874c0 54.578126 44.40625 98.988282 98.984375 98.988282s98.988281-44.410156 98.988281-98.988282v-126.292968c0-3.773438 3.050781-6.828125 6.824219-6.828125 3.773437 0 6.828125 3.054687 6.828125 6.828125v126.292968c0 62.105469-50.53125 112.640626-112.640625 112.640626zm0 0" fill="#4c241d"/><path d="m416.429688 150.3125c0 18.851562-15.285157 34.136719-34.136719 34.136719-18.851563 0-34.132813-15.285157-34.132813-34.136719s15.28125-34.132812 34.132813-34.132812c18.851562 0 34.136719 15.28125 34.136719 34.132812zm0 0" fill="#fff"/><path d="m382.292969 191.273438c-22.585938 0-40.957031-18.375-40.957031-40.960938s18.371093-40.957031 40.957031-40.957031c22.585937 0 40.960937 18.371093 40.960937 40.957031s-18.371094 40.960938-40.960937 40.960938zm0-68.265626c-15.058594 0-27.304688 12.246094-27.304688 27.304688 0 15.0625 12.246094 27.308594 27.304688 27.308594 15.0625 0 27.308593-12.246094 27.308593-27.308594 0-15.058594-12.246093-27.304688-27.308593-27.304688zm0 0" fill="#4c241d"/><path d="m394.851562 150.3125c0 6.9375-5.621093 12.558594-12.558593 12.558594-6.933594 0-12.554688-5.621094-12.554688-12.558594 0-6.933594 5.621094-12.554688 12.554688-12.554688 6.9375 0 12.558593 5.621094 12.558593 12.554688zm0 0" fill="#9dc1e4"/><path d="m382.292969 169.699219c-10.683594 0-19.382813-8.699219-19.382813-19.386719 0-10.683594 8.699219-19.382812 19.382813-19.382812 10.6875 0 19.386719 8.699218 19.386719 19.382812 0 10.6875-8.699219 19.386719-19.386719 19.386719zm0-25.117188c-3.160157 0-5.730469 2.574219-5.730469 5.730469 0 3.160156 2.574219 5.734375 5.730469 5.734375 3.160156 0 5.734375-2.574219 5.734375-5.734375 0-3.15625-2.570313-5.730469-5.734375-5.730469zm0 0" fill="#4c241d"/><path d="m102.824219 69.148438c-1.703125 0-3.402344-.628907-4.722657-1.902344-2.726562-2.605469-2.820312-6.925782-.207031-9.644532l26.886719-28.058593c2.613281-2.730469 6.933594-2.820313 9.648438-.207031 2.726562 2.605468 2.816406 6.925781.207031 9.644531l-26.886719 28.058593c-1.339844 1.402344-3.136719 2.109376-4.925781 2.109376zm0 0" fill="#4c241d"/><path d="m136.535156 47.914062c-1.746094 0-3.492187-.667968-4.828125-2l-13.652343-13.652343c-2.664063-2.667969-2.664063-6.988281 0-9.652344 2.664062-2.667969 6.988281-2.667969 9.652343 0l13.652344 13.652344c2.667969 2.664062 2.667969 6.984375 0 9.652343-1.332031 1.332032-3.078125 2-4.824219 2zm0 0" fill="#4c241d"/><path d="m40.542969 69.148438c-1.796875 0-3.589844-.707032-4.929688-2.109376l-26.882812-28.058593c-2.613281-2.71875-2.523438-7.039063.207031-9.644531 2.703125-2.613282 7.03125-2.523438 9.644531.207031l26.886719 28.058593c2.613281 2.71875 2.519531 7.039063-.207031 9.644532-1.320313 1.273437-3.019531 1.902344-4.71875 1.902344zm0 0" fill="#4c241d"/><path d="m6.828125 47.914062c-1.746094 0-3.492187-.667968-4.828125-2-2.664062-2.667968-2.664062-6.988281 0-9.652343l13.65625-13.652344c2.664062-2.667969 6.984375-2.667969 9.652344 0 2.664062 2.664063 2.664062 6.984375 0 9.652344l-13.652344 13.652343c-1.335938 1.332032-3.082031 2-4.828125 2zm0 0" fill="#4c241d"/><path d="m75.09375 41.085938c-3.773438 0-6.824219-3.050782-6.824219-6.824219v-27.308594c0-3.773437 3.050781-6.824219 6.824219-6.824219s6.828125 3.050782 6.828125 6.824219v27.308594c0 3.773437-3.054687 6.824219-6.828125 6.824219zm0 0" fill="#4c241d"/><path d="m137.25 95.953125c0 35.898437-29.101562 65-64.996094 65-35.898437 0-64.996094-29.101563-64.996094-65 0-35.894531 29.097657-64.996094 64.996094-64.996094 35.894532 0 64.996094 29.101563 64.996094 64.996094zm0 0" fill="#fff"/><g fill="#4c241d"><path d="m72.253906 167.78125c-39.605468 0-71.824218-32.222656-71.824218-71.828125 0-39.601563 32.21875-71.820313 71.824218-71.820313 39.601563 0 71.820313 32.21875 71.820313 71.820313 0 39.605469-32.21875 71.828125-71.820313 71.828125zm0-129.996094c-32.078125 0-58.171875 26.09375-58.171875 58.167969 0 32.082031 26.09375 58.171875 58.171875 58.171875 32.074219 0 58.167969-26.089844 58.167969-58.171875 0-32.074219-26.09375-58.167969-58.167969-58.167969zm0 0"/><path d="m48.777344 121.6875c-2.300782 0-4.546875-1.160156-5.835938-3.265625-1.964844-3.222656-.945312-7.421875 2.269532-9.386719l23.058593-14.082031v-33.386719c0-3.773437 3.050781-6.824218 6.824219-6.824218s6.828125 3.050781 6.828125 6.824218v37.214844c0 2.378906-1.242187 4.585938-3.265625 5.828125l-26.328125 16.078125c-1.113281.679688-2.339844 1-3.550781 1zm0 0"/><path d="m88.746094 13.78125h-27.304688c-3.773437 0-6.828125-3.054688-6.828125-6.828125s3.054688-6.824219 6.828125-6.824219h27.304688c3.773437 0 6.828125 3.050782 6.828125 6.824219s-3.054688 6.828125-6.828125 6.828125zm0 0"/><path d="m252.910156 136.660156c-3.773437 0-6.828125-3.054687-6.828125-6.828125 0-11.464843-9.332031-20.800781-20.800781-20.800781-3.773438 0-6.828125-3.050781-6.828125-6.824219 0-3.773437 3.054687-6.828125 6.828125-6.828125 19 0 34.453125 15.453125 34.453125 34.453125 0 3.773438-3.050781 6.828125-6.824219 6.828125zm0 0"/><path d="m61.441406 300.5c-11.292968 0-20.480468-9.1875-20.480468-20.480469s9.1875-20.480469 20.480468-20.480469c11.292969 0 20.480469 9.1875 20.480469 20.480469s-9.1875 20.480469-20.480469 20.480469zm0-27.304688c-3.765625 0-6.828125 3.058594-6.828125 6.824219 0 3.769531 3.0625 6.828125 6.828125 6.828125s6.828125-3.058594 6.828125-6.828125c0-3.765625-3.058593-6.824219-6.828125-6.824219zm0 0"/><path d="m314.027344 61.566406c-11.292969 0-20.480469-9.1875-20.480469-20.480468 0-11.292969 9.1875-20.480469 20.480469-20.480469 11.292968 0 20.480468 9.1875 20.480468 20.480469 0 11.292968-9.183593 20.480468-20.480468 20.480468zm0-27.304687c-3.765625 0-6.824219 3.058593-6.824219 6.824219 0 3.769531 3.058594 6.828124 6.824219 6.828124s6.828125-3.058593 6.828125-6.828124c0-3.765626-3.058594-6.824219-6.828125-6.824219zm0 0"/><path d="m102.394531 361.941406c-1.425781 0-2.859375-.449218-4.085937-1.367187-3.019532-2.261719-3.632813-6.539063-1.367188-9.554688l20.480469-27.304687c2.265625-3.015625 6.539063-3.628906 9.554687-1.367188 3.019532 2.257813 3.632813 6.539063 1.367188 9.550782l-20.480469 27.308593c-1.339843 1.792969-3.386719 2.734375-5.46875 2.734375zm0 0"/><path d="m273.074219 280.019531c-2.507813 0-4.914063-1.378906-6.113281-3.773437l-13.652344-27.304688c-1.6875-3.375-.320313-7.472656 3.054687-9.160156 3.371094-1.671875 7.472657-.320312 9.15625 3.054688l13.65625 27.304687c1.683594 3.375.320313 7.472656-3.054687 9.160156-.980469.484375-2.019532.71875-3.046875.71875zm0 0"/><path d="m314.027344 348.289062c-1.746094 0-3.492188-.667968-4.824219-2.003906-2.667969-2.664062-2.667969-6.984375 0-9.652344l20.476563-20.480468c2.667968-2.664063 6.988281-2.664063 9.65625 0 2.664062 2.667968 2.664062 6.988281 0 9.65625l-20.480469 20.476562c-1.332031 1.335938-3.078125 2.003906-4.828125 2.003906zm0 0"/><path d="m34.128906 204.925781c-1.425781 0-2.859375-.445312-4.085937-1.367187l-27.308594-20.476563c-3.019531-2.261719-3.632813-6.542969-1.367187-9.554687 2.261718-3.023438 6.542968-3.621094 9.554687-1.367188l27.308594 20.480469c3.019531 2.257813 3.632812 6.539063 1.367187 9.550781-1.339844 1.796875-3.390625 2.734375-5.46875 2.734375zm0 0"/><path d="m40.96875 409.726562c-2.082031 0-4.128906-.941406-5.46875-2.734374l-20.476562-27.304688c-2.269532-3.015625-1.65625-7.292969 1.367187-9.554688 3.003906-2.265624 7.289063-1.667968 9.550781 1.367188l20.480469 27.304688c2.265625 3.015624 1.65625 7.292968-1.367187 9.554687-1.226563.921875-2.660157 1.367187-4.085938 1.367187zm0 0"/></g></svg>