<?xml version="1.0" encoding="iso-8859-1"?>
<!-- Generator: Adobe Illustrator 19.0.0, SVG Export Plug-In . SVG Version: 6.00 Build 0)  -->
<svg version="1.1" id="Capa_1" xmlns="http://www.w3.org/2000/svg" xmlns:xlink="http://www.w3.org/1999/xlink" x="0px" y="0px"
	 viewBox="0 0 512 512" style="enable-background:new 0 0 512 512;" xml:space="preserve">
<g>
	<g>
		<g>
			<path d="M492,352c11.046,0,20-8.954,20-20V120c0-44.112-35.888-80-80-80h-26V20c0-11.046-8.954-20-20-20
				c-11.046,0-20,8.954-20,20v20h-91V20c0-11.046-8.954-20-20-20s-20,8.954-20,20v20h-90V20c0-11.046-8.954-20-20-20
				s-20,8.954-20,20v20H80C35.888,40,0,75.888,0,120v312c0,44.112,35.888,80,80,80h352c44.112,0,80-35.888,80-80
				c0-11.046-8.954-20-20-20c-11.046,0-20,8.954-20,20c0,22.056-17.944,40-40,40H80c-22.056,0-40-17.944-40-40V120
				c0-22.056,17.944-40,40-40h25v20c0,11.046,8.954,20,20,20s20-8.954,20-20V80h90v20c0,11.046,8.954,20,20,20
				c11.046,0,20-8.954,20-20V80h91v20c0,11.046,8.954,20,20,20c11.046,0,20-8.954,20-20V80h26c22.056,0,40,17.944,40,40v212
				C472,343.046,480.954,352,492,352z"/>
			<path d="M364.316,268.282C359.807,254.356,347.051,245,332.572,245H298.13l-10.371-31.985C283.266,199.249,270.503,190,256,190
				c-14.504,0-27.267,9.25-31.771,23.051L213.87,245h-34.442c-14.479,0-27.236,9.356-31.746,23.283
				c-4.535,14.008,0.345,29.154,12.145,37.69l27.632,19.988l-10.543,32.307c-4.488,13.752,0.357,28.722,12.056,37.252
				c11.739,8.559,27.533,8.589,39.305,0.074L256,375.535l27.724,20.062c5.867,4.243,12.733,6.364,19.599,6.364
				c6.909,0,13.817-2.148,19.704-6.44c11.699-8.53,16.544-23.501,12.056-37.253l-10.543-32.307l27.632-19.988
				C363.972,297.437,368.852,282.291,364.316,268.282z M297.16,296.399c-11.78,8.52-16.666,23.521-12.161,37.329l5.732,17.565
				l-15.132-10.95C269.861,336.193,263.084,334,256,334s-13.861,2.193-19.601,6.345l-15.129,10.947l5.732-17.565
				c4.505-13.807-0.382-28.808-12.16-37.327L199.083,285h19.367c14.855,0,27.321-8.787,31.77-22.422l5.78-17.825l5.791,17.863
				C266.23,276.213,278.696,285,293.55,285h19.367L297.16,296.399z"/>
		</g>
	</g>
</g>
<g>
</g>
<g>
</g>
<g>
</g>
<g>
</g>
<g>
</g>
<g>
</g>
<g>
</g>
<g>
</g>
<g>
</g>
<g>
</g>
<g>
</g>
<g>
</g>
<g>
</g>
<g>
</g>
<g>
</g>
</svg>
