<svg id="Capa_1" enable-background="new 0 0 512.025 512.025" height="512" viewBox="0 0 512.025 512.025" width="512" xmlns="http://www.w3.org/2000/svg"><g><path d="m508.149 252.456-115.547-200.135c-5.167-8.95-14.422-14.293-24.756-14.293-10.335 0-19.59 5.343-24.757 14.293l-20.34 35.23c-13.038-8.58-27.302-15.361-42.288-20.188v-12.39c0-30.306-24.655-54.961-54.961-54.961s-54.961 24.655-54.961 54.961v12.354c-66.541 21.505-114.49 80.923-114.49 150.675v125.682h-5.395c-27.931.001-50.654 22.723-50.654 50.654s22.723 50.653 50.653 50.653h104.967c1.545 37.217 32.291 67.021 69.88 67.021s68.336-29.805 69.881-67.021h104.966c27.931 0 50.653-22.723 50.653-50.653 0-27.931-22.723-50.653-50.653-50.653h-5.395v-48.349h88.441c10.334 0 19.589-5.343 24.756-14.293 5.168-8.95 5.168-19.637 0-28.587zm-307.61-197.482c0-13.764 11.198-24.961 24.961-24.961 13.764 0 24.961 11.197 24.961 24.961v5.499c-8.235-1.158-16.579-1.75-24.961-1.75-8.479 0-16.813.596-24.961 1.732zm24.961 427.039c-21.044 0-38.327-16.356-39.835-37.021h79.671c-1.509 20.664-18.792 37.021-39.836 37.021zm195.5-87.675c0 11.389-9.265 20.653-20.653 20.653h-349.694c-11.388 0-20.653-9.265-20.653-20.653s9.265-20.653 20.653-20.653h349.693c11.389 0 20.654 9.264 20.654 20.653zm-56.048-50.653h-278.904v-125.682c0-71.285 62.558-129.28 139.452-129.28 29.547 0 58.463 8.792 82.215 24.868l-80.175 138.865c-5.167 8.95-5.167 19.637 0 28.587 5.167 8.949 14.422 14.293 24.756 14.293h112.655v48.349zm-110.207-78.349 113.1-195.895 113.1 195.895z"/><g><path d="m352.845 147.469v25.705c0 8.284 6.716 15 15 15s15-6.716 15-15v-25.705c0-8.284-6.716-15-15-15s-15 6.716-15 15z"/><path d="m382.55 220.072c-1.278-6.153-6.271-10.949-12.498-11.899-6.186-.944-12.5 2.25-15.432 7.769-2.947 5.546-2.092 12.464 2.11 17.132 4.198 4.662 11.071 6.167 16.85 3.779 6.496-2.686 10.404-9.864 8.97-16.781z"/></g></g></svg>