<?xml version="1.0" encoding="iso-8859-1"?>
<!-- Generator: Adobe Illustrator 19.0.0, SVG Export Plug-In . SVG Version: 6.00 Build 0)  -->
<svg version="1.1" id="Capa_1" xmlns="http://www.w3.org/2000/svg" xmlns:xlink="http://www.w3.org/1999/xlink" x="0px" y="0px"
	 viewBox="0 0 512 512" style="enable-background:new 0 0 512 512;" xml:space="preserve">
<path style="fill:#FEDBAB;" d="M287,76v90c0,8.401-6.599,15-15,15H90c-8.401,0-15-6.599-15-15V76c0-8.401,6.599-15,15-15h182
	C280.401,61,287,67.599,287,76z"/>
<path style="fill:#FEC478;" d="M272,181h-92V61h92c8.401,0,15,6.599,15,15v90C287,174.401,280.401,181,272,181z"/>
<path style="fill:#FEA832;" d="M150,256c0,8.291-6.709,15-15,15H45c-8.291,0-15-6.709-15-15v-90c0-8.291,6.709-15,15-15h90
	c8.291,0,15,6.709,15,15V256z"/>
<path style="fill:#FFCC33;" d="M225,151H120v105c0,8.401,6.599,15,15,15h90c8.401,0,17-6.599,17-15v-90
	C242,157.599,233.401,151,225,151z"/>
<path style="fill:#FCBF29;" d="M242,166v90c0,8.401-8.599,15-17,15h-45V151h45C233.401,151,242,157.599,242,166z"/>
<path style="fill:#FE9923;" d="M332,256c0,8.291-6.709,15-15,15h-92c-8.291,0-15-6.709-15-15V151h107c8.291,0,15,6.709,15,15V256z"
	/>
<path style="fill:#FD003A;" d="M317,241H15c-8.401,0-15,6.599-15,15v90c0,24.901,20.099,45,45,45h272c8.401,0,15-6.599,15-15V256
	C332,247.599,325.401,241,317,241z"/>
<path style="fill:#E50027;" d="M332,256v120c0,8.401-6.599,15-15,15H180V241h137C325.401,241,332,247.599,332,256z"/>
<path style="fill:#C5C9F7;" d="M512,286c0,8.291-6.709,15-15,15h-90c-24.814,0-45-20.186-45-45V136c0-8.291,6.709-15,15-15h19.805
	c48.003,0,89.883,32.651,101.821,79.38l12.935,52.002c0.293,1.187,0.439,2.402,0.439,3.618L512,286L512,286z"/>
<path style="fill:#3C3A41;" d="M423.582,279.291l15-30c8.82-17.641,35.729-4.368,26.836,13.418l-15,30
	C441.505,310.485,414.762,296.932,423.582,279.291z"/>
<path style="fill:#C1001F;" d="M512,346c0,24.814-20.186,45-45,45H302V166c0-24.814,20.186-45,45-45h45v135c0,8.276,6.724,15,15,15
	h105V346z"/>
<path style="fill:#57555C;" d="M120,451c-33.091,0-60-26.909-60-60s26.909-60,60-60s60,26.909,60,60S153.091,451,120,451z"/>
<path style="fill:#E1E4FB;" d="M120,421c-16.538,0-30-13.462-30-30s13.462-30,30-30s30,13.462,30,30S136.538,421,120,421z"/>
<path style="fill:#3C3A41;" d="M392,451c-33.091,0-60-26.909-60-60s26.909-60,60-60s60,26.909,60,60S425.091,451,392,451z"/>
<path style="fill:#C5C9F7;" d="M392,421c-16.538,0-30-13.462-30-30s13.462-30,30-30s30,13.462,30,30S408.538,421,392,421z"/>
<g>
</g>
<g>
</g>
<g>
</g>
<g>
</g>
<g>
</g>
<g>
</g>
<g>
</g>
<g>
</g>
<g>
</g>
<g>
</g>
<g>
</g>
<g>
</g>
<g>
</g>
<g>
</g>
<g>
</g>
</svg>
