<svg id="Capa_1" enable-background="new 0 0 497 497" height="512" viewBox="0 0 497 497" width="512" xmlns="http://www.w3.org/2000/svg"><g><path d="m71.75 7.5v55.21h45v-55.21c0-4.142-3.358-7.5-7.5-7.5h-30c-4.142 0-7.5 3.358-7.5 7.5z" fill="#313842"/><path d="m297.75 218.5h150v120h-150z" fill="#c782ff"/><path d="m267.75 218.5h150v120h-150z" fill="#caa6fd"/><path d="m342.75 368.5v121c0 4.142 3.358 7.5 7.5 7.5h15c4.142 0 7.5-3.358 7.5-7.5v-121z" fill="#414851"/><path d="m327.75 338.5v37.5c0 4.142 3.358 7.5 7.5 7.5h45c4.142 0 7.5-3.358 7.5-7.5v-37.5z" fill="#c5c6c8"/><path d="m79.25 428.5v61c0 4.142 3.358 7.5 7.5 7.5h15c4.142 0 7.5-3.358 7.5-7.5v-61z" fill="#414851"/><path d="m64.25 353.5 30 90h22.5c4.142 0 7.5-3.358 7.5-7.5v-82.5z" fill="#c5c6c8"/><path d="m64.25 353.5v82.5c0 4.142 3.358 7.5 7.5 7.5h22.5v-90z" fill="#e2e3e3"/><path d="m94.25 30v353.5h30l35.382-41.302c18.629-21.746 28.868-49.436 28.868-78.07v-139.878c0-52.053-42.197-94.25-94.25-94.25z" fill="#313842"/><path d="m158.5 264.128v-139.878c0-52.053-28.765-94.25-64.25-94.25-52.053 0-94.25 42.197-94.25 94.25v139.878c0 28.634 10.239 56.324 28.868 78.07l35.382 41.302h30l35.382-41.302c18.629-21.746 28.868-49.436 28.868-78.07z" fill="#414851"/><path d="m154.25 406v15c0 4.142 3.358 7.5 7.5 7.5h15c4.142 0 7.5-3.358 7.5-7.5v-15c0-4.142-3.358-7.5-7.5-7.5h-15c-4.142 0-7.5 3.358-7.5 7.5z" fill="#e2e3e3"/><circle cx="357.75" cy="139.25" fill="#e2e3e3" r="139.25"/><path d="m357.75 30v218.5c60.337 0 109.25-48.913 109.25-109.25s-48.913-109.25-109.25-109.25z" fill="#dbfffc"/><path d="m437 139.25c0-60.337-35.482-109.25-79.25-109.25-60.337 0-109.25 48.913-109.25 109.25s48.913 109.25 109.25 109.25c43.768 0 79.25-48.913 79.25-109.25z" fill="#fff"/><path d="m419.092 77.908c-2.929-2.929-7.678-2.929-10.607 0l-90.863 90.863 10.607 10.607 90.863-90.863c2.928-2.929 2.928-7.678 0-10.607z" fill="#414851"/><path d="m447.75 323.5h-30v30h30c8.284 0 15-6.716 15-15s-6.716-15-15-15z" fill="#c5c6c8"/><path d="m432.75 338.5c0-8.284-6.716-15-15-15h-150c-8.284 0-15 6.716-15 15s6.716 15 15 15h150c8.284 0 15-6.716 15-15z" fill="#e2e3e3"/><circle cx="357.75" cy="139.25" fill="#c5c6c8" r="15"/><path d="m296.409 200.591c-8.773-8.773-8.773-23.047 0-31.82s23.047-8.773 31.82 0 8.773 23.047 0 31.82-23.048 8.773-31.82 0zm21.213-21.213c-2.924-2.924-7.682-2.924-10.607 0-2.924 2.924-2.924 7.682 0 10.607 2.924 2.924 7.682 2.924 10.607 0 2.924-2.925 2.924-7.682 0-10.607z" fill="#62676f"/></g></svg>