<?xml version="1.0" encoding="utf-8"?>
<!-- Generator: Adobe Illustrator 25.1.0, SVG Export Plug-In . SVG Version: 6.00 Build 0)  -->
<svg version="1.1" id="Layer_1" xmlns="http://www.w3.org/2000/svg" xmlns:xlink="http://www.w3.org/1999/xlink" x="0px" y="0px"
	 viewBox="0 0 24 24" style="enable-background:new 0 0 24 24;" xml:space="preserve">
<style type="text/css">
	.st0{fill:#fff;}
</style>
<path class="st0" d="M15.7,12.2c1.4-1.1,2.3-2.8,2.3-4.7c0-3.3-2.7-6-6-6s-6,2.7-6,6c0,1.9,0.9,3.6,2.3,4.7C4.6,13.7,2,17.3,2,21.5
	c0,0.6,0.4,1,1,1s1-0.4,1-1c0-4.4,3.6-8,8-8s8,3.6,8,8c0,0.6,0.4,1,1,1s1-0.4,1-1C22,17.3,19.4,13.7,15.7,12.2z M8,7.5
	c0-2.2,1.8-4,4-4s4,1.8,4,4s-1.8,4-4,4S8,9.7,8,7.5z"/>
</svg>
