<svg xmlns="http://www.w3.org/2000/svg" xmlns:xlink="http://www.w3.org/1999/xlink" width="24" height="24" viewBox="0 0 24 24"><defs><style>.a{fill:#fff;}.b{clip-path:url(#a);}</style><clipPath id="a"><rect class="a" width="24" height="24" transform="translate(40 779)"/></clipPath></defs><g class="b" transform="translate(-40 -779)"><path class="a" d="M9,4A.945.945,0,0,0,8,5,.945.945,0,0,0,9,6a.945.945,0,0,0,1-1A.945.945,0,0,0,9,4ZM5,4A.945.945,0,0,0,4,5,.945.945,0,0,0,5,6,.945.945,0,0,0,6,5,.945.945,0,0,0,5,4Zm8,0a.945.945,0,0,0-1,1,1,1,0,0,0,2,0A.945.945,0,0,0,13,4Zm7-3H4A2.946,2.946,0,0,0,1,4V20a2.946,2.946,0,0,0,3,3H20a2.946,2.946,0,0,0,3-3V4A2.946,2.946,0,0,0,20,1Zm1,19a.945.945,0,0,1-1,1H4a.945.945,0,0,1-1-1V9H21ZM21,7H3V4A.945.945,0,0,1,4,3H20a.945.945,0,0,1,1,1ZM6.5,18.8A1.538,1.538,0,0,0,8,17.3H8v-.1l1.8-1.8h.4L11.8,17v.1a1.5,1.5,0,0,0,3,0V17l2.6-2.7h0a1.5,1.5,0,0,0,0-3A1.394,1.394,0,0,0,16,12.8v.1l-2.6,2.6h-.2l-1.7-1.8a1.5,1.5,0,0,0-3,0l-2,2h0A1.538,1.538,0,0,0,5,17.2,1.63,1.63,0,0,0,6.5,18.8Z" transform="translate(40 779)"/></g></svg>