<svg xmlns="http://www.w3.org/2000/svg" width="24" height="24" viewBox="0 0 24 24"><defs><style>.a,.b{fill:#fff;}.a{opacity:0;}</style></defs><g transform="translate(-52 -784)"><rect class="a" width="24" height="24" transform="translate(52 784)"/><g transform="translate(52.015 783.525)"><path class="b" d="M8,8.5Zm8,0Z"/><path class="b" d="M15.9,13.2c-.1,0-.1-.1-.2-.1a5.534,5.534,0,0,0,2.2-3.6A4.1,4.1,0,0,0,18,8.4V7.7l.1-.5.2-2a3,3,0,0,0-2.4-3.3L15,1.7a20.782,20.782,0,0,0-6.1,0l-.7.2A3.167,3.167,0,0,0,5.6,5.3l.2,2,.2.4v.7a4.1,4.1,0,0,0,.1,1.1,5.307,5.307,0,0,0,2.2,3.6c-.1,0-.1.1-.2.1A9.963,9.963,0,0,0,4,16.4a10.58,10.58,0,0,0-2,5,.993.993,0,0,0,.9,1.1A.945.945,0,0,0,4,21.6a8.116,8.116,0,0,1,4.2-6.2l3,3a.967.967,0,0,0,1.4,0l3-3a7.953,7.953,0,0,1,4.2,6.2,1.063,1.063,0,0,0,1,.9h.1a1.172,1.172,0,0,0,.9-1.1A9.371,9.371,0,0,0,15.9,13.2ZM8.5,4l.8-.1a16.915,16.915,0,0,1,5.5,0l.7.1c.5,0,.8.5.8,1.1l-.2,1.3a14.308,14.308,0,0,0-8.2,0L7.7,5.1C7.7,4.5,8,4,8.5,4ZM12,16.3l-1.7-1.7a9.15,9.15,0,0,1,3.3,0Zm0-3.9A3.991,3.991,0,0,1,8,8.5H8a10.4,10.4,0,0,1,8,0h0A3.991,3.991,0,0,1,12,12.4Z"/></g></g></svg>