<svg xmlns="http://www.w3.org/2000/svg" xmlns:xlink="http://www.w3.org/1999/xlink" width="24" height="24" viewBox="0 0 24 24"><defs><style>.a{fill:#fff;}.b{clip-path:url(#a);}</style><clipPath id="a"><rect class="a" width="24" height="24" transform="translate(894 6516)"/></clipPath></defs><g class="b" transform="translate(-894 -6516)"><g transform="translate(894.002 6516)"><path class="a" d="M13,19a1.075,1.075,0,0,0-1,1v2a1.075,1.075,0,0,0,1,1,1.075,1.075,0,0,0,1-1V20A1.075,1.075,0,0,0,13,19Z"/><path class="a" d="M13,7a1.075,1.075,0,0,0-1,1v4a1.075,1.075,0,0,0,1,1,1.075,1.075,0,0,0,1-1V8A1.075,1.075,0,0,0,13,7Z"/><path class="a" d="M8,19a1.075,1.075,0,0,0-1,1v2a1.075,1.075,0,0,0,1,1,1.075,1.075,0,0,0,1-1V20A1.075,1.075,0,0,0,8,19Z"/><path class="a" d="M8.4,6.8a.853.853,0,0,0,1.3,0l3.4-3.4,3.4,3.4a.853.853,0,0,0,1.3,0,.967.967,0,0,0,0-1.4l-4-4.1a.853.853,0,0,0-1.3,0h0l-4,4.1a.9.9,0,0,0-.1,1.4Z"/><path class="a" d="M15.5,15H5.1A2.14,2.14,0,0,1,3,13.3a2.008,2.008,0,0,1,3.9-.9.924.924,0,0,0,1,.6.912.912,0,0,0,.9-1.3A4.023,4.023,0,0,0,4.1,9.1a4.184,4.184,0,0,0-3,2.9A4.094,4.094,0,0,0,4,16.9,3.4,3.4,0,0,0,5,17H15.5a1,1,0,0,0,0-2Z"/><path class="a" d="M22.7,15.3h0l-4.1-4a.967.967,0,0,0-1.4,0h0a.853.853,0,0,0,0,1.3L20.6,16l-3.4,3.4a.853.853,0,0,0,0,1.3.967.967,0,0,0,1.4,0l4.1-4A.967.967,0,0,0,22.7,15.3Z"/></g></g></svg>