<svg xmlns="http://www.w3.org/2000/svg" xmlns:xlink="http://www.w3.org/1999/xlink" width="24" height="24" viewBox="0 0 24 24"><defs><style>.a{fill:#fff;}.b{clip-path:url(#a);}</style><clipPath id="a"><rect class="a" width="24" height="24" transform="translate(31 243)"/></clipPath></defs><g class="b" transform="translate(-31 -243)"><path class="a" d="M20.222,12.66a.987.987,0,0,1,0-1.32l1.3-1.44a.986.986,0,0,0,.122-1.17L19.612,5.27a1.025,1.025,0,0,0-1.089-.48l-1.914.38a1.02,1.02,0,0,1-1.171-.66l-.621-1.83A1.017,1.017,0,0,0,13.851,2H9.779a1.018,1.018,0,0,0-1.018.68l-.57,1.83a1.02,1.02,0,0,1-1.171.66L5.056,4.79a1.024,1.024,0,0,0-1.018.48L2,8.73A.986.986,0,0,0,2.1,9.9L3.4,11.34a.987.987,0,0,1,0,1.32L2.1,14.1A.986.986,0,0,0,2,15.27l2.036,3.46a1.025,1.025,0,0,0,1.089.48l1.914-.38a1.02,1.02,0,0,1,1.171.66l.621,1.83A1.018,1.018,0,0,0,9.85,22h4.071a1.017,1.017,0,0,0,.967-.68l.621-1.83a1.02,1.02,0,0,1,1.171-.66l1.914.38a1.025,1.025,0,0,0,1.089-.48l2.036-3.46A.986.986,0,0,0,21.6,14.1ZM18.706,14l.814.9-1.3,2.22-1.2-.24a3.061,3.061,0,0,0-3.512,2L13.118,20H10.512l-.366-1.14a3.061,3.061,0,0,0-3.512-2l-1.2.24L4.11,14.89l.814-.9a2.961,2.961,0,0,0,0-4l-.814-.9,1.3-2.2,1.2.24a3.061,3.061,0,0,0,3.512-2L10.512,4h2.606L13.5,5.14a3.061,3.061,0,0,0,3.512,2l1.2-.24,1.3,2.22-.814.9a2.961,2.961,0,0,0,0,3.98ZM11.815,8a4,4,0,1,0,4.071,4A4.036,4.036,0,0,0,11.815,8Zm0,6a2,2,0,1,1,2.036-2A2.018,2.018,0,0,1,11.815,14Z" transform="translate(31.144 243.001)"/></g></svg>