<?xml version="1.0" encoding="utf-8"?>
<!-- Generator: Adobe Illustrator 25.4.1, SVG Export Plug-In . SVG Version: 6.00 Build 0)  -->
<svg version="1.1" id="Layer_1" xmlns="http://www.w3.org/2000/svg" xmlns:xlink="http://www.w3.org/1999/xlink" x="0px" y="0px"
	 viewBox="0 0 24 24" style="enable-background:new 0 0 24 24;" xml:space="preserve">
<style type="text/css">
	.st0{fill:none;}
	.st1{opacity:0.5;fill:#FFFFFF;enable-background:new    ;}
	.st2{opacity:0.7;fill:#FFFFFF;enable-background:new    ;}
	.st3{fill:#FFFFFF;}
</style>
<g>
	<path class="st0" d="M0,0h24v24H0V0z"/>
	<path class="st1" d="M12,22C6.5,22,2,17.5,2,12S6.5,2,12,2s10,4.5,10,10S17.5,22,12,22z M12,4c-4.4,0-8,3.6-8,8s3.6,8,8,8
		s8-3.6,8-8S16.4,4,12,4z"/>
	<path class="st2" d="M12,18c-3.3,0-6-2.7-6-6s2.7-6,6-6s6,2.7,6,6S15.3,18,12,18z M12,8c-2.2,0-4,1.8-4,4s1.8,4,4,4s4-1.8,4-4
		S14.2,8,12,8z"/>
	<circle class="st3" cx="12" cy="12" r="2"/>
</g>
</svg>
