<svg xmlns="http://www.w3.org/2000/svg" xmlns:xlink="http://www.w3.org/1999/xlink" width="24" height="24" viewBox="0 0 24 24"><defs><style>.a{fill:#fff;}.b{clip-path:url(#a);}</style><clipPath id="a"><rect class="a" width="24" height="24" transform="translate(27 239)"/></clipPath></defs><g class="b" transform="translate(-27 -239)"><g transform="translate(27 239.041)"><path class="a" d="M19,5.992H17.6L15.9,2.5a.883.883,0,0,0-1.3-.4.88.88,0,0,0-.4,1.3l1.2,2.595H8.6L9.9,3.5a1.033,1.033,0,0,0-1.8-1L6.4,5.992H5A2.943,2.943,0,0,0,2,8.986,2.9,2.9,0,0,0,4.1,11.78l.7,7.485a3.106,3.106,0,0,0,3,2.694h8.4a3.106,3.106,0,0,0,3-2.694L20,11.78a2.976,2.976,0,0,0-1-5.788ZM17.2,19.065a.986.986,0,0,1-1,.9H7.8a1.063,1.063,0,0,1-1-.9l-.7-7.085H17.9ZM19,9.984H5a1.074,1.074,0,0,1-1-1,1.074,1.074,0,0,1,1-1H19a1.074,1.074,0,0,1,1,1A1.074,1.074,0,0,1,19,9.984Z"/><path class="a" d="M10.1,18a1.075,1.075,0,0,0,1-1V15a1.075,1.075,0,0,0-1-1,1,1,0,0,0-1,1v2A1,1,0,0,0,10.1,18Z" transform="translate(0 -0.031)"/><path class="a" d="M14.1,18a1.075,1.075,0,0,0,1-1V15a1.075,1.075,0,0,0-1-1,1,1,0,0,0-1,1v2A1,1,0,0,0,14.1,18Z" transform="translate(0 -0.031)"/></g></g></svg>