<?xml version="1.0" encoding="utf-8"?>
<!-- Generator: Adobe Illustrator 25.1.0, SVG Export Plug-In . SVG Version: 6.00 Build 0)  -->
<svg version="1.1" id="Layer_1" xmlns="http://www.w3.org/2000/svg" xmlns:xlink="http://www.w3.org/1999/xlink" x="0px" y="0px"
	 viewBox="0 0 24 24" style="enable-background:new 0 0 24 24;" xml:space="preserve">
<style type="text/css">
	.st0{fill:#fff;}
</style>
<path class="st0" d="M10,13H3c-0.6,0-1,0.4-1,1v7c0,0.6,0.4,1,1,1h7c0.6,0,1-0.4,1-1v-7C11,13.4,10.6,13,10,13z M9,20H4v-5h5V20z
	 M21,2h-7c-0.6,0-1,0.4-1,1v7c0,0.6,0.4,1,1,1h7c0.6,0,1-0.4,1-1V3C22,2.4,21.6,2,21,2z M20,9h-5V4h5V9z M21,13h-7c-0.6,0-1,0.4-1,1
	v7c0,0.6,0.4,1,1,1h7c0.6,0,1-0.4,1-1v-7C22,13.4,21.6,13,21,13z M20,20h-5v-5h5V20z M10,2H3C2.4,2,2,2.4,2,3v7c0,0.6,0.4,1,1,1h7
	c0.6,0,1-0.4,1-1V3C11,2.4,10.6,2,10,2z M9,9H4V4h5V9z"/>
</svg>
