<svg xmlns="http://www.w3.org/2000/svg" xmlns:xlink="http://www.w3.org/1999/xlink" width="24" height="24" viewBox="0 0 24 24"><defs>
    <style>.a{fill:#fff;}.b{clip-path:url(#a);}</style>
    <clipPath id="a"><rect class="a" width="24" height="24" transform="translate(24 250)"/></clipPath></defs><g class="b" transform="translate(-24 -250)"><path class="a" d="M19,12a1.978,1.978,0,0,0-1.1.2l-.1-.2-.9-1.6A7.789,7.789,0,0,1,19,10h1a.945.945,0,0,0,1-1h0a.945.945,0,0,0-1-1H15.5l-2-3.5h0c0-.1-.1-.1-.2-.2a.908.908,0,0,0-.7-.3h-4a1.075,1.075,0,0,0-1,1,1.075,1.075,0,0,0,1,1H12l.5.8L13.2,8,14,9.5c-.1.2-.2.3-.3.5H10.3A7.1,7.1,0,0,0,8.9,9,8.683,8.683,0,0,0,5,8H4A.945.945,0,0,0,3,9H3a.945.945,0,0,0,1,1H5a7.273,7.273,0,0,1,2.9.7L7.2,12l-.3.5a4.4,4.4,0,0,0-2.8-.4,3.854,3.854,0,0,0-3,3A3.99,3.99,0,0,0,5,20a4.079,4.079,0,0,0,3.9-3H12a1,1,0,0,0,1-1,6.371,6.371,0,0,1,1.5-4l.6-.6.3.6.7,1.2a4.162,4.162,0,0,0-1,3.9A3.924,3.924,0,0,0,18,19.9,4.072,4.072,0,0,0,23,16,4.012,4.012,0,0,0,19,12ZM5,18a2,2,0,0,1,0-4,2.92,2.92,0,0,1,.9.2l-.7,1.2v.1a.349.349,0,0,1-.1.2v.2h0v.3a.1.1,0,0,0,.1.1.781.781,0,0,0,.4.4h.1c0,.3.1.3.1.3h.9A1.936,1.936,0,0,1,5,18Zm7-5.9a7.543,7.543,0,0,0-.9,2.9H7.7l.6-1.1L9.5,12h2.6A.1.1,0,0,0,12,12.1ZM19,18a2.006,2.006,0,0,1-2-2,3.553,3.553,0,0,1,.2-1l.5.9a1.05,1.05,0,0,0,.9.5.9.9,0,0,0,.5-.1,1.107,1.107,0,0,0,.4-1.4L19,14h0a2,2,0,0,1,0,4Z" transform="translate(24.007 250)"/></g>
</svg>