<svg xmlns="http://www.w3.org/2000/svg" width="20" height="21.1" viewBox="0 0 20 21.1"><defs><style>.a{fill:#fff;}</style></defs><path class="a" d="M15.7,12.2a6,6,0,1,0-7.4,0A10.046,10.046,0,0,0,2,21.5a.945.945,0,0,0,1,1,.945.945,0,0,0,1-1,8.042,8.042,0,0,1,6.6-7.9L9.1,18.1a1.147,1.147,0,0,0,.1,1l2,3h0l.2.2h0c.1,0,.1.1.2.1h.8c.1,0,.1,0,.2-.1h0c.1-.1.2-.1.2-.2h0l2-3a.972.972,0,0,0,.1-.9l-1.5-4.5A8.057,8.057,0,0,1,20,21.6a1,1,0,0,0,2,0A10.08,10.08,0,0,0,15.7,12.2ZM12,19.7l-.9-1.3.9-2.7.9,2.7ZM12,3.5a4,4,0,1,1-4,4A4.012,4.012,0,0,1,12,3.5Z" transform="translate(-2 -1.5)"/></svg>