<svg xmlns="http://www.w3.org/2000/svg" width="17.996" height="18" viewBox="0 0 17.996 18"><defs><style>.a{fill:#32cc3e;}</style></defs><path class="a" d="M8.749,9.648H11a.9.9,0,0,0,0-1.8h-.9V7.4a.9.9,0,0,0-1.8,0v.495a2.25,2.25,0,0,0,.45,4.454h.9a.45.45,0,1,1,0,.9H7.4a.9.9,0,1,0,0,1.8h.9v.45a.9.9,0,0,0,1.8,0V15a2.25,2.25,0,0,0-.45-4.454h-.9a.45.45,0,0,1,0-.9ZM19.1,11H16.4V2.9a.9.9,0,0,0-1.35-.783l-2.7,1.548-2.7-1.548a.9.9,0,0,0-.9,0l-2.7,1.548L3.35,2.117A.9.9,0,0,0,2,2.9V17.3A2.7,2.7,0,0,0,4.7,20H17.3A2.7,2.7,0,0,0,20,17.3V11.9A.9.9,0,0,0,19.1,11ZM4.7,18.2a.9.9,0,0,1-.9-.9V4.456L5.6,5.482a.972.972,0,0,0,.9,0L9.2,3.934l2.7,1.548a.972.972,0,0,0,.9,0l1.8-1.026V17.3a2.7,2.7,0,0,0,.162.9Zm13.5-.9a.9.9,0,1,1-1.8,0V12.8h1.8Z" transform="translate(-2 -1.996)"/></svg>