<svg xmlns="http://www.w3.org/2000/svg" width="15.281" height="18" viewBox="0 0 15.281 18"><defs><style>.a{fill:#03a8ff;}</style></defs><path class="a" d="M18.884,6.994a.172.172,0,0,1,0-.072.154.154,0,0,1,0-.063V6.777l-.054-.136h0a.434.434,0,0,0-.081-.1l-.081-.072h-.045L15.056,4.216h0L11.69,2.135A.769.769,0,0,0,11.428,2h-.072a.742.742,0,0,0-.244,0h-.09a1.023,1.023,0,0,0-.3.118L3.962,6.324l-.081.063L3.8,6.46l-.09.063-.045.054h0l-.054.136v.136a.624.624,0,0,0,0,.181v7.9a.9.9,0,0,0,.425.769l6.787,4.2h0l.136.054h.072a.778.778,0,0,0,.471,0h.072l.136-.054h0l6.733-4.135a.9.9,0,0,0,.425-.769v-7.9A.492.492,0,0,0,18.884,6.994ZM11.2,3.963l1.611,1L7.754,8.089l-1.62-1Zm-.9,13.574L5.32,14.5V8.713L10.3,11.79Zm.9-7.339L9.473,9.157l5.058-3.14,1.737,1.077Zm5.882,4.271-4.977,3.095V11.79l4.977-3.077Z" transform="translate(-3.603 -1.989)"/></svg>