<svg xmlns="http://www.w3.org/2000/svg" width="24" height="24" viewBox="0 0 24 24"><defs><style>.a{fill:#707070;}</style></defs><path class="a" d="M22.4,4.4H20V3.2a1.2,1.2,0,0,0-2.4,0V4.4H10.4V3.2A1.2,1.2,0,1,0,8,3.2V4.4H5.6A3.6,3.6,0,0,0,2,8V22.4A3.6,3.6,0,0,0,5.6,26H22.4A3.6,3.6,0,0,0,26,22.4V8A3.6,3.6,0,0,0,22.4,4.4Zm1.2,18a1.2,1.2,0,0,1-1.2,1.2H5.6a1.2,1.2,0,0,1-1.2-1.2V14H23.6Zm0-10.8H4.4V8A1.2,1.2,0,0,1,5.6,6.8H8V8a1.2,1.2,0,0,0,2.4,0V6.8h7.2V8A1.2,1.2,0,0,0,20,8V6.8h2.4A1.2,1.2,0,0,1,23.6,8Z" transform="translate(-2 -2)"/></svg>