<svg id="Layer_1" data-name="Layer 1" xmlns="http://www.w3.org/2000/svg" xmlns:xlink="http://www.w3.org/1999/xlink" fill="#005D8E" viewBox="0 0 24 24"><defs><style>.cls-1{opacity:0;}.cls-2{clip-path:url(#clip-path);}</style><clipPath id="clip-path"><rect class="cls-1" width="24" height="24"/></clipPath></defs><rect class="cls-1" width="24" height="24"/><g class="cls-2"><path d="M17,9H7a1,1,0,1,0,0,2H17a1,1,0,0,0,0-2Zm-4,4H7a1,1,0,1,0,0,2h6a1,1,0,0,0,0-2ZM12,2A10,10,0,0,0,4.27,18.33l-2,2a1,1,0,0,0-.21,1.09A1,1,0,0,0,3,22h9A10,10,0,1,0,12,2Zm0,18H5.42l.93-.93a1,1,0,0,0,0-1.41A8,8,0,1,1,12,20Z"/></g></svg>