<svg xmlns="http://www.w3.org/2000/svg" width="18" height="18.001" viewBox="0 0 18 18.001"><defs><style>.a{fill:#707070;}</style></defs><path class="a" d="M7.39,10.1a.9.9,0,1,0,.9.9A.9.9,0,0,0,7.39,10.1Zm3.595,0a.9.9,0,1,0,.9.9A.9.9,0,0,0,10.984,10.1Zm3.595,0a.9.9,0,1,0,.9.9A.9.9,0,0,0,14.579,10.1ZM10.984,2A9,9,0,0,0,4.028,16.7l-1.8,1.8A.878.878,0,0,0,2.9,20h8.089a9,9,0,0,0,0-18Zm0,16.2H5.062l.836-.837a.881.881,0,0,0,0-1.269A7.186,7.186,0,1,1,10.984,18.2Z" transform="translate(-1.972 -2)"/></svg>