<svg xmlns="http://www.w3.org/2000/svg" width="13.4" height="16" viewBox="0 0 13.4 16"><defs><style>.a{fill:#005D8E;}</style></defs><path class="a" d="M14,6.133v-.8a5.333,5.333,0,0,0-10.667,0v.8A1.942,1.942,0,0,0,2,8V9.333a2.068,2.068,0,0,0,1.667,2H6a.717.717,0,0,0,.667-.667v-4A.684.684,0,0,0,6,6H4.667V5.333a4,4,0,0,1,8,0V6H11.333a.684.684,0,0,0-.667.667v4a.717.717,0,0,0,.667.667h.8a3.85,3.85,0,0,1-1.333,1.4,2.325,2.325,0,0,0-4.267,0,2.129,2.129,0,0,0-.2.933,2.268,2.268,0,0,0,.067.667A2.446,2.446,0,0,0,8.667,16a2.446,2.446,0,0,0,2.267-1.667,5.61,5.61,0,0,0,2.8-3,2.014,2.014,0,0,0,1.667-2V8A2.094,2.094,0,0,0,14,6.133ZM4,7.333H5.333V10H4a.668.668,0,0,1-.667-.667V8a.675.675,0,0,1,.4-.6A.5.5,0,0,1,4,7.333Zm4.667,5.333a1.045,1.045,0,0,1,.933.6.846.846,0,0,1,.067.4,1,1,0,0,1-2,0,.846.846,0,0,1,.067-.4A1.045,1.045,0,0,1,8.667,12.667ZM14,9.333a.717.717,0,0,1-.667.667H12V7.333h1.333A.4.4,0,0,1,13.6,7.4.583.583,0,0,1,14,8Z" transform="translate(-2)"/></svg>