<svg id="Layer_1" data-name="Layer 1" xmlns="http://www.w3.org/2000/svg" xmlns:xlink="http://www.w3.org/1999/xlink" viewBox="0 0 24 24" fill="#ffffff"><defs><clipPath id="clip-path"><rect width="24" height="24" opacity="0"/></clipPath></defs><rect width="24" height="24" opacity="0"/><g clip-path="url(#clip-path)"><path d="M12,14a1.22,1.22,0,0,0-1.2,1.2A1.29,1.29,0,0,0,12,16.4a1.29,1.29,0,0,0,1.2-1.2A1.22,1.22,0,0,0,12,14Zm0-1.5a.94.94,0,0,0,1-1v-3a1,1,0,0,0-2,0v3A.94.94,0,0,0,12,12.5ZM12,2A10,10,0,1,0,22,12,10,10,0,0,0,12,2Zm0,18a8,8,0,1,1,8-8A8,8,0,0,1,12,20Z"/></g></svg>