<svg xmlns="http://www.w3.org/2000/svg" width="13" height="16" viewBox="0 0 13 16"><defs><style>.a{fill:#cc324c;}</style></defs><path class="a" d="M6.949,6.349h0l0,0Zm7.189-.135a.893.893,0,0,0-.166-.126.721.721,0,0,0-1.011.3,4.181,4.181,0,0,1-1.01,1.286A6.311,6.311,0,0,0,8.87,1.094a.722.722,0,0,0-1.077.583A5.078,5.078,0,0,1,6.008,5.252l-.166.136A6.152,6.152,0,0,0,4.406,6.734a6.5,6.5,0,0,0,2.64,10.06.722.722,0,0,0,.995-.67.76.76,0,0,0-.036-.226,5.054,5.054,0,0,1-.137-1.867,6.507,6.507,0,0,0,3.115,2.905.719.719,0,0,0,.517.028A6.51,6.51,0,0,0,14.138,6.214Zm-2.82,9.281A5.036,5.036,0,0,1,8.735,12.31a6.452,6.452,0,0,1-.13-.7A.723.723,0,0,0,8.028,11a.708.708,0,0,0-.138-.013.722.722,0,0,0-.626.362,6.488,6.488,0,0,0-.871,3.412,5.058,5.058,0,0,1-.849-7.138A4.737,4.737,0,0,1,6.672,6.571a.538.538,0,0,0,.054-.04s.214-.178.222-.182A6.488,6.488,0,0,0,9.041,3a4.878,4.878,0,0,1,1,5.85A.723.723,0,0,0,10.9,9.875a5.673,5.673,0,0,0,2.789-1.944,5.067,5.067,0,0,1-2.368,7.564Z" transform="translate(-3 -1)"/></svg>