<svg xmlns="http://www.w3.org/2000/svg" width="26" height="26" viewBox="0 0 26 26">
  <defs>
    <style>
      .cls-1 {
        fill: #878c9d;
      }
    </style>
  </defs>
  <g id="floppy-disk" transform="translate(0 0.046)">
    <g id="Group_16951" data-name="Group 16951" transform="translate(0 -0.007)">
      <g id="Group_16950" data-name="Group 16950" transform="translate(0 0)">
        <path id="Path_19384" data-name="Path 19384" class="cls-1" d="M25.048,3.376,22.618.95A3.252,3.252,0,0,0,20.32,0H19.5V6.49H4.333V0H2.167A2.164,2.164,0,0,0,0,2.163V23.8a2.164,2.164,0,0,0,2.167,2.163H23.833A2.164,2.164,0,0,0,26,23.8V5.671A3.243,3.243,0,0,0,25.048,3.376ZM21.667,21.634H4.333V10.746H21.667Z" transform="translate(0 0)"/>
      </g>
    </g>
    <g id="Group_16953" data-name="Group 16953" transform="translate(13.77 -0.046)">
      <g id="Group_16952" data-name="Group 16952" transform="translate(0)">
        <rect id="Rectangle_453" data-name="Rectangle 453" class="cls-1" width="3" height="4"/>
      </g>
    </g>
    <g id="Group_16955" data-name="Group 16955" transform="translate(6.799 13.721)">
      <g id="Group_16954" data-name="Group 16954" transform="translate(0 0)">
        <rect id="Rectangle_454" data-name="Rectangle 454" class="cls-1" width="13" height="1"/>
      </g>
    </g>
    <g id="Group_16957" data-name="Group 16957" transform="translate(6.799 16.646)">
      <g id="Group_16956" data-name="Group 16956" transform="translate(0 0)">
        <rect id="Rectangle_455" data-name="Rectangle 455" class="cls-1" width="13" height="3"/>
      </g>
    </g>
  </g>
</svg>
