<svg xmlns="http://www.w3.org/2000/svg" width="27" height="25" viewBox="0 0 27 25">
  <g id="Group_16534" data-name="Group 16534" transform="translate(1223.575 -404.485)">
    <path id="Path_19241" data-name="Path 19241" d="M-1205.382,415.381c.481-.466.588-.44.827.109a2.578,2.578,0,0,0,.214.422.661.661,0,0,0,1.125.08c.3-.307.6-.613.916-.9a.941.941,0,0,1,.9-.254.936.936,0,0,1,.7.824,4.466,4.466,0,0,1-.094,2.017,1.591,1.591,0,0,1-.143.331.647.647,0,0,1-.92.312,3.869,3.869,0,0,1-.737-.537c-.225-.194-.414-.428-.636-.625a.447.447,0,0,0-.649.008.438.438,0,0,0,.183.6c.454.306.938.572,1.37.906a4.414,4.414,0,0,1,1.5,2.074,1.208,1.208,0,0,0,1.178.874,3.945,3.945,0,0,1,2.637,1.3,9.389,9.389,0,0,1,.722.958,1.974,1.974,0,0,1,.165.424l-.074.051c-.178-.155-.349-.321-.536-.463a9.979,9.979,0,0,0-1.259-.914,3.786,3.786,0,0,0-3.926.2c-.168.1-.326.215-.489.322-.294.192-.423.158-.54-.177-.254-.718-.487-1.443-.741-2.161a44.661,44.661,0,0,0-1.874-4.949c-.107-.216-.189-.3-.467-.264a5.6,5.6,0,0,1-2.625-.375,16.644,16.644,0,0,1-1.816-.841c-.383-.191-.493-.153-.552.266s-.132.865-.165,1.3c-.049.634.179.88.808.96.783.1,1.57.186,2.346.331a2.52,2.52,0,0,1,1.971,1.641q.876,2.274,1.655,4.584a1.436,1.436,0,0,1-1.737,1.8,1.154,1.154,0,0,1-.774-.639q-.445-.9-.839-1.82c-.265-.624-.516-1.255-.738-1.895a1.335,1.335,0,0,0-1.184-.949c-1.214-.176-2.425-.367-3.637-.558a2.158,2.158,0,0,1-2.021-1.984,12.217,12.217,0,0,1,.732-6.841,2.753,2.753,0,0,1,2.115-1.794,1.636,1.636,0,0,1,2.015,1.612,1.074,1.074,0,0,1-.246.653c-.171.247-.174.423.052.623.52.461,1,.974,1.555,1.387a3.537,3.537,0,0,0,2.026.613c.278.01.558.017.835.051a.867.867,0,0,1,.871.933C-1205.377,415.112-1205.382,415.211-1205.382,415.381Z" transform="translate(-0.452)" fill="#32cc3e"/>
    <path id="Path_19242" data-name="Path 19242" d="M-1217.565,420.437c1.265,0,2.53-.008,3.8.006a4.673,4.673,0,0,1,1.048.118.731.731,0,0,1,.606.818,1.865,1.865,0,0,1-.1.627,3.411,3.411,0,0,0-.043,2.191c.115.421.247.837.376,1.254.173.555.372.7.952.7q2.96,0,5.918,0a1.549,1.549,0,0,1,.465.063.8.8,0,0,1,.569.693c.06.424-.123.648-.547.649q-4.062,0-8.123,0c-.424,0-.584-.151-.636-.581a5.785,5.785,0,0,0-.67-2.338,3.957,3.957,0,0,0-4.011-1.958,4.085,4.085,0,0,0-3.419,3,7.113,7.113,0,0,0-.176,1.1c-.06.614-.277.828-.885.817a6.443,6.443,0,0,1-.723-.035c-.371-.05-.461-.192-.369-.557.186-.748.389-1.492.568-2.242a12.379,12.379,0,0,0,.344-1.714,4.648,4.648,0,0,0-.162-1.149c-.018-.108-.074-.21-.1-.319-.139-.6.083-.962.7-1.011.9-.073,1.8-.1,2.7-.119.641-.018,1.284,0,1.926,0Z" fill="#32cc3e"/>
    <path id="Path_19243" data-name="Path 19243" d="M-1216.44,419.817h-6.328v-4.1h2.678l.1,1.428h.768l.1-1.434h2.681Z" fill="#32cc3e"/>
    <path id="Path_19244" data-name="Path 19244" d="M-1217.45,424.011a2.682,2.682,0,0,1,2.763,2.793,2.7,2.7,0,0,1-2.852,2.681,2.71,2.71,0,0,1-2.708-2.777A2.671,2.671,0,0,1-1217.45,424.011Z" fill="#32cc3e"/>
    <path id="Path_19245" data-name="Path 19245" d="M-1197.213,426.715a2.717,2.717,0,0,1-2.748,2.769,2.728,2.728,0,0,1-2.771-2.808,2.67,2.67,0,0,1,2.759-2.71A2.7,2.7,0,0,1-1197.213,426.715Z" transform="translate(-0.452)" fill="#32cc3e"/>
    <path id="Path_19246" data-name="Path 19246" d="M-1207.613,406.476c-.057.259-.1.494-.159.727a2.187,2.187,0,0,1-2.507,1.734,2.26,2.26,0,0,1-1.949-2.477,2.311,2.311,0,0,1,1.624-1.875,2.145,2.145,0,0,1,2.357.717,1.63,1.63,0,0,0,1.013.657c.325.075.643.18.964.273.177.052.312.133.25.356s-.217.241-.4.2C-1206.8,406.692-1207.187,406.587-1207.613,406.476Z" transform="translate(-0.242)" fill="#32cc3e"/>
    <path id="Path_19247" data-name="Path 19247" d="M-1216.383,414.106l.048.839h-6.4l-.062-.839Z" fill="#32cc3e"/>
  </g>
</svg>
