<svg xmlns="http://www.w3.org/2000/svg" width="36" height="36" viewBox="0 0 36 36">
  <defs>
    <style>
      .cls-1 {
        fill: #fff;
        stroke: #fff;
      }

      .cls-2 {
        fill: #9a0e25;
      }
    </style>
  </defs>
  <g id="Group_16475" data-name="Group 16475" transform="translate(568.629 -513.5)">
    <path id="Path_19176" data-name="Path 19176" class="cls-1" d="M-568.129,541.617V521.383a1.458,1.458,0,0,1,.82-.81q6.409-2.553,12.814-5.115c1.2-.48,2.4-.971,3.592-1.458h.547c.174.077.345.161.521.231q7.845,3.139,15.694,6.27a1.619,1.619,0,0,1,1.011.882v20.234a1.583,1.583,0,0,1-.981.868q-4.927,1.948-9.841,3.927c-2.137.857-4.27,1.725-6.405,2.588h-.547c-.09-.044-.177-.1-.27-.132q-7.986-3.2-15.976-6.383A1.588,1.588,0,0,1-568.129,541.617Zm16.406,4.672v-.265q0-8.373.007-16.747c0-.272-.11-.364-.337-.454q-6.783-2.7-13.56-5.417c-.1-.039-.2-.076-.329-.127v.26q0,8.373-.005,16.747a.4.4,0,0,0,.3.444q5.343,2.123,10.678,4.263Zm2.188-.023c.085-.021.118-.025.149-.037q6.919-2.766,13.84-5.527c.229-.091.231-.231.231-.421q0-8.318,0-16.637v-.36c-.147.055-.252.091-.356.133-2.192.884-4.382,1.775-6.577,2.653q-3.5,1.4-7.007,2.772a.379.379,0,0,0-.284.421q.013,6.218.007,12.435C-549.534,543.211-549.534,544.725-549.534,546.266Zm12.295-24.6c-.221-.093-.354-.151-.488-.2q-6.285-2.517-12.574-5.023a1,1,0,0,0-.674.008q-6.325,2.507-12.639,5.044c-.11.044-.216.1-.368.172.119.055.186.091.257.119q6.4,2.56,12.8,5.109a.915.915,0,0,0,.61,0c1.231-.473,2.451-.974,3.675-1.465.3-.119.6-.236.946-.375-.148-.067-.228-.107-.312-.14l-5.387-2.144c-.972-.387-1.946-.768-2.913-1.164a1.1,1.1,0,0,1-.67-1.334,1.1,1.1,0,0,1,1.229-.8,2.556,2.556,0,0,1,.548.18q5.087,2.022,10.17,4.052a.858.858,0,0,0,.707.006C-540.666,523.024-539,522.364-537.239,521.661Z" transform="translate(0)"/>
    <path id="Path_19179" data-name="Path 19179" class="cls-2" d="M-480.749,554.1c-1.756.7-3.425,1.364-5.087,2.045a.857.857,0,0,1-.707-.006q-5.079-2.038-10.165-4.057a2.545,2.545,0,0,0-.548-.181,1.1,1.1,0,0,0-1.229.8,1.1,1.1,0,0,0,.67,1.336c.967.4,1.941.779,2.912,1.166l5.385,2.146c.083.033.164.074.312.14-.35.139-.648.256-.945.375-1.223.492-2.443.993-3.673,1.467a.915.915,0,0,1-.61,0q-6.4-2.545-12.791-5.116c-.07-.028-.138-.064-.257-.119.153-.072.258-.128.368-.173q6.315-2.531,12.634-5.05a1,1,0,0,1,.674-.008q6.29,2.5,12.569,5.03C-481.1,553.946-480.97,554-480.749,554.1Z" transform="translate(-56.496 -32.425)"/>
  </g>
</svg>
