<svg id="Group_16425" data-name="Group 16425" xmlns="http://www.w3.org/2000/svg" width="36.825" height="35.866" viewBox="0 0 36.825 35.866">
  <defs>
    <style>
      .cls-1 {
        fill: #878c9d;
      }
    </style>
  </defs>
  <path id="Path_19158" data-name="Path 19158" class="cls-1" d="M737.617,1239.7a5.636,5.636,0,0,0-5.354-4.175c-2.384-.047-4.77-.013-7.155-.014-1.594,0-3.188.008-4.782-.008a.847.847,0,0,1-.525-.212c-1.18-1.128-2.357-2.26-3.511-3.414a5.991,5.991,0,0,0-3.549-1.824c-.031,0-.06-.033-.089-.051h-6.545a12.755,12.755,0,0,0-1.862.587,5.448,5.448,0,0,0-3.182,4.331,2.721,2.721,0,0,1-.064.266v25.5c.058.295.1.594.177.886a5.7,5.7,0,0,0,4.733,4.233,1.146,1.146,0,0,1,.2.065h26.612c.23-.051.461-.1.69-.154a5.672,5.672,0,0,0,4.352-4.76,2.34,2.34,0,0,1,.064-.269v-20.035C737.756,1240.331,737.7,1240.011,737.617,1239.7Zm-2.682,20.495a2.827,2.827,0,0,1-2.96,2.871q-6.292.011-12.583,0H707.025a2.864,2.864,0,0,1-3.138-3.052q0-12.116,0-24.231a2.834,2.834,0,0,1,2.455-2.949,3.587,3.587,0,0,1,.573-.032c1.63,0,3.26.009,4.889-.005a3.144,3.144,0,0,1,2.344.957c1.354,1.338,2.733,2.652,4.087,3.992a1.879,1.879,0,0,0,1.409.566c4.063-.009,8.125,0,12.188-.008a2.843,2.843,0,0,1,2.781,1.567,3.041,3.041,0,0,1,.311,1.31Q734.954,1250.686,734.935,1260.193Z" transform="translate(-701 -1230)"/>
  <path id="Path_19159" data-name="Path 19159" class="cls-1" d="M731.237,1259.141c-.939,0-1.878,0-2.816,0h-1.408c-.469,0-.939,0-1.408,0a1.485,1.485,0,1,0-.011,2.964q2.816.007,5.632,0a1.484,1.484,0,1,0,.012-2.963Z" transform="translate(-703.027 -1233.142)"/>
</svg>
