<svg xmlns="http://www.w3.org/2000/svg" width="39" height="39" viewBox="0 0 39 39">
  <defs>
    <style>
      .cls-1 {
        fill: #878c9d;
        stroke: #878c9d;
      }

      .cls-2 {
        fill: #ffc400;
      }
    </style>
  </defs>
  <g id="Group_15764" data-name="Group 15764" transform="translate(0.5 0.5)">
    <g id="settings" transform="translate(0)">
      <path id="Path_1562" data-name="Path 1562" class="cls-1" d="M20.192,38H17.808a3.5,3.5,0,0,1-3.5-3.5V33.7a15.342,15.342,0,0,1-2.382-.989l-.572.572a3.5,3.5,0,0,1-4.948,0L4.722,31.592a3.5,3.5,0,0,1,0-4.948l.571-.571A15.342,15.342,0,0,1,4.3,23.691H3.5a3.5,3.5,0,0,1-3.5-3.5V17.808a3.5,3.5,0,0,1,3.5-3.5h.807a15.345,15.345,0,0,1,.989-2.382l-.572-.572a3.5,3.5,0,0,1,0-4.948L6.408,4.722a3.5,3.5,0,0,1,4.948,0l.571.571A15.355,15.355,0,0,1,14.309,4.3V3.5a3.5,3.5,0,0,1,3.5-3.5h2.385a3.5,3.5,0,0,1,3.5,3.5v.807a15.341,15.341,0,0,1,2.382.989l.572-.572a3.5,3.5,0,0,1,4.948,0l1.686,1.686a3.5,3.5,0,0,1,0,4.948l-.571.571a15.343,15.343,0,0,1,.989,2.382H34.5a3.5,3.5,0,0,1,3.5,3.5v2.385a3.5,3.5,0,0,1-3.5,3.5H33.7a15.346,15.346,0,0,1-.989,2.382l.572.572a3.5,3.5,0,0,1,0,4.948l-1.686,1.686a3.5,3.5,0,0,1-4.948,0l-.571-.571a15.356,15.356,0,0,1-2.382.989V34.5A3.5,3.5,0,0,1,20.192,38ZM12.3,30.368a13.123,13.123,0,0,0,3.4,1.412,1.113,1.113,0,0,1,.835,1.078V34.5a1.273,1.273,0,0,0,1.272,1.272h2.385A1.273,1.273,0,0,0,21.464,34.5V32.858A1.113,1.113,0,0,1,22.3,31.78a13.123,13.123,0,0,0,3.4-1.412,1.113,1.113,0,0,1,1.354.171L28.219,31.7a1.271,1.271,0,0,0,1.8,0L31.7,30.017a1.271,1.271,0,0,0,0-1.8l-1.165-1.165a1.113,1.113,0,0,1-.171-1.354,13.12,13.12,0,0,0,1.412-3.4,1.113,1.113,0,0,1,1.078-.835H34.5a1.273,1.273,0,0,0,1.272-1.272V17.808A1.273,1.273,0,0,0,34.5,16.536H32.858A1.113,1.113,0,0,1,31.78,15.7a13.123,13.123,0,0,0-1.412-3.4,1.113,1.113,0,0,1,.171-1.354L31.7,9.781a1.271,1.271,0,0,0,0-1.8L30.018,6.3a1.271,1.271,0,0,0-1.8,0L27.055,7.461a1.113,1.113,0,0,1-1.354.171A13.123,13.123,0,0,0,22.3,6.22a1.113,1.113,0,0,1-.835-1.078V3.5a1.273,1.273,0,0,0-1.272-1.272H17.808A1.273,1.273,0,0,0,16.536,3.5V5.142A1.113,1.113,0,0,1,15.7,6.22a13.123,13.123,0,0,0-3.4,1.412,1.113,1.113,0,0,1-1.354-.171L9.781,6.3a1.271,1.271,0,0,0-1.8,0L6.3,7.983a1.271,1.271,0,0,0,0,1.8l1.165,1.165A1.113,1.113,0,0,1,7.632,12.3,13.12,13.12,0,0,0,6.22,15.7a1.113,1.113,0,0,1-1.078.835H3.5a1.273,1.273,0,0,0-1.272,1.272v2.385A1.273,1.273,0,0,0,3.5,21.464H5.142A1.113,1.113,0,0,1,6.22,22.3a13.123,13.123,0,0,0,1.412,3.4,1.113,1.113,0,0,1-.171,1.354L6.3,28.219a1.271,1.271,0,0,0,0,1.8L7.983,31.7a1.271,1.271,0,0,0,1.8,0l1.165-1.165a1.119,1.119,0,0,1,1.354-.171Z" transform="translate(0 0)"/>
      <path id="Path_1564" data-name="Path 1564" class="cls-2" d="M5.786,0a6.35,6.35,0,0,1,6.35,6.35c0,3.507-2,2.686-5.507,2.686S.96,8.166.96,4.659,2.279,0,5.786,0Z" transform="translate(10.928 16.498)"/>
      <path id="Path_1563" data-name="Path 1563" class="cls-1" d="M153.524,162.449a8.924,8.924,0,1,1,8.925-8.925A8.935,8.935,0,0,1,153.524,162.449Zm0-15.446a6.521,6.521,0,1,0,6.521,6.521A6.528,6.528,0,0,0,153.524,147Z" transform="translate(-134.524 -134.524)"/>
    </g>
  </g>
</svg>
