<svg xmlns="http://www.w3.org/2000/svg" width="29.997" height="23" viewBox="0 0 29.997 23">
  <defs>
    <style>
      .cls-1 {
        fill: #cc324c;
      }

      .cls-2 {
        fill: #162944;
      }
    </style>
  </defs>
  <g id="Group_16413" data-name="Group 16413" transform="translate(-81 -1246)">
    <g id="Group_16412" data-name="Group 16412" transform="translate(-13 -2)">
      <path id="Path_19154" data-name="Path 19154" class="cls-1" d="M9.465,23A11.017,11.017,0,0,1,.246,17.931a1.436,1.436,0,0,1,.365-1.952,1.332,1.332,0,0,1,1.887.378,8.325,8.325,0,0,0,6.966,3.832,8.557,8.557,0,0,0,8.4-8.688,8.557,8.557,0,0,0-8.4-8.688A8.323,8.323,0,0,0,2.487,6.661,1.332,1.332,0,0,1,.6,7.043a1.436,1.436,0,0,1-.37-1.951A11.015,11.015,0,0,1,9.465,0,11.327,11.327,0,0,1,20.583,11.5,11.327,11.327,0,0,1,9.465,23Z" transform="translate(114.583 1271) rotate(180)"/>
      <path id="Path_19155" data-name="Path 19155" class="cls-2" d="M20.6,4.645H4.688l1.775-2a1.691,1.691,0,0,0,0-2.19,1.266,1.266,0,0,0-1.942,0L.4,5.1.4,5.105c-.029.034-.058.068-.084.1C.3,5.222.3,5.234.289,5.245c-.02.028-.039.057-.057.087l-.017.031c-.018.033-.036.065-.053.1l-.01.023C.136,5.523.119,5.561.1,5.6L.1,5.616c-.015.041-.028.083-.04.126l0,.017c-.011.042-.021.085-.029.129,0,.013,0,.027-.005.04C.016,5.965.01,6,.007,6.039S0,6.142,0,6.193s0,.1.007.155.009.075.015.112c0,.013,0,.026.005.039.008.044.018.088.029.131,0,.005,0,.01,0,.016.012.044.026.086.041.128l0,.014c.015.04.032.079.049.117l.009.02c.017.035.036.069.054.1l.015.028c.019.032.04.062.061.092l.02.029c.028.039.059.077.09.113l4.119,4.645a1.266,1.266,0,0,0,1.942,0,1.691,1.691,0,0,0,0-2.19l-1.775-2H20.6a1.469,1.469,0,0,0,1.373-1.548A1.469,1.469,0,0,0,20.6,4.645Z" transform="translate(123.997 1265.693) rotate(180)"/>
    </g>
  </g>
</svg>
