<svg xmlns="http://www.w3.org/2000/svg" width="44" height="44" viewBox="0 0 44 44">
  <g id="Group_16875" data-name="Group 16875" transform="translate(-624 -2646)">
    <circle id="Ellipse_2754" data-name="Ellipse 2754" cx="22" cy="22" r="22" transform="translate(624 2646)" fill="#4fb6af"/>
    <g id="notification_1_" data-name="notification (1)" transform="translate(638.001 2659)">
      <path id="Path_19363" data-name="Path 19363" d="M137.753,450.277A2.851,2.851,0,0,0,140.542,448h-5.577A2.851,2.851,0,0,0,137.753,450.277Zm0,0" transform="translate(-130.466 -432.277)" fill="#fff"/>
      <path id="Path_19364" data-name="Path 19364" d="M12.317,50.257h-.009A5.2,5.2,0,0,1,7.24,44.945a5.477,5.477,0,0,1,.484-2.251c-.159-.016-.321-.026-.484-.026a5.2,5.2,0,0,0-5.069,5.313V50.1a5.192,5.192,0,0,1-1.729,3.9,1.367,1.367,0,0,0-.4,1.363,1.335,1.335,0,0,0,1.3.974H13.13a1.339,1.339,0,0,0,1.324-1.053,1.367,1.367,0,0,0-.432-1.3A5.147,5.147,0,0,1,12.317,50.257Zm0,0" transform="translate(0 -41.15)" fill="#fff"/>
      <path id="Path_19365" data-name="Path 19365" d="M263.6,3.795A3.795,3.795,0,1,1,259.806,0,3.795,3.795,0,0,1,263.6,3.795Zm0,0" transform="translate(-247.603)" fill="#fff"/>
    </g>
  </g>
</svg>
