<svg xmlns="http://www.w3.org/2000/svg" width="31" height="30" viewBox="0 0 31 30">
  <defs>
    <style>
      .cls-1 {
        fill: #878c9d;
        stroke: #878c9d;
      }
    </style>
  </defs>
  <g id="Group_15774" data-name="Group 15774" transform="translate(0.5 0.5)">
    <g id="Group_1502" data-name="Group 1502" transform="translate(5.101 6.927)">
      <g id="Group_1501" data-name="Group 1501">
        <path id="Path_1565" data-name="Path 1565" class="cls-1" d="M80.661,111.293a1.081,1.081,0,0,0-1.53,0,7.4,7.4,0,0,0-2.115,5.994,1.082,1.082,0,0,0,1.075.974c.036,0,.072,0,.109-.005a1.082,1.082,0,0,0,.969-1.184,5.238,5.238,0,0,1,1.492-4.249A1.081,1.081,0,0,0,80.661,111.293Z" transform="translate(-76.978 -110.975)"/>
      </g>
    </g>
    <g id="Group_1504" data-name="Group 1504">
      <g id="Group_1503" data-name="Group 1503">
        <path id="Path_1566" data-name="Path 1566" class="cls-1" d="M12.371,0A12.39,12.39,0,1,0,24.741,12.39,12.394,12.394,0,0,0,12.371,0Zm0,22.613A10.223,10.223,0,1,1,22.577,12.39,10.226,10.226,0,0,1,12.371,22.613Z" transform="translate(0)"/>
      </g>
    </g>
    <g id="Group_1506" data-name="Group 1506" transform="translate(19.974 18.974)">
      <g id="Group_1505" data-name="Group 1505" transform="translate(0 0)">
        <path id="Path_1567" data-name="Path 1567" class="cls-1" d="M346.418,344.889l-7.862-7.862a1.082,1.082,0,1,0-1.53,1.53l7.862,7.862a1.082,1.082,0,0,0,1.53-1.53Z" transform="translate(-336.708 -336.709)"/>
      </g>
    </g>
  </g>
</svg>
