<svg xmlns="http://www.w3.org/2000/svg" width="38.532" height="36.701" viewBox="0 0 38.532 36.701">
  <defs>
    <style>
      .cls-1 {
        fill: #fbfafd;
        stroke: #fbfafd;
        stroke-width: 0.5px;
      }

      .cls-2 {
        fill: #9a0e25;
      }
    </style>
  </defs>
  <g id="Group_15748" data-name="Group 15748" transform="translate(0.255 0.452)">
    <path id="Path_18259" data-name="Path 18259" class="cls-1" d="M-637.3,63.462a9.026,9.026,0,0,1-1.385-.011,2.7,2.7,0,0,1-2.282-2.014,2.744,2.744,0,0,1,.782-2.931q5.006-4.826,10.025-9.639,2.356-2.264,4.711-4.529a4.635,4.635,0,0,1,6.655-.029Q-611.4,51.4-604.024,58.5a2.839,2.839,0,0,1,.712,3.159,2.806,2.806,0,0,1-2.681,1.827c-.288,0-.576,0-.915,0v.491q0,6.688,0,13.376c0,1.094-.46,1.558-1.543,1.558h-27.3c-1.081,0-1.545-.464-1.545-1.557q0-6.668,0-13.336Zm8.864,12.872v-.462c0-1.955-.007-3.91.005-5.864a6.95,6.95,0,0,1,.117-1.316,6.346,6.346,0,0,1,6.767-5.183,6.4,6.4,0,0,1,5.773,6.469q.006,2.952,0,5.9v.432h6.329v-.508q0-6.708,0-13.415a1.3,1.3,0,0,1,1.427-1.475c.593,0,1.188.016,1.78-.007a2.155,2.155,0,0,0,.56-.18,1.835,1.835,0,0,0-.266-.524q-7.272-7.011-14.56-14.006a2.161,2.161,0,0,0-3.212.009l-7.669,7.375q-3.462,3.328-6.919,6.66a1.715,1.715,0,0,0-.245.465,1.676,1.676,0,0,0,.508.2c.592.025,1.187.007,1.78.008,1.016,0,1.492.489,1.492,1.531q0,6.708,0,13.415v.472Zm10.115-.01c.006-.082.014-.146.014-.21,0-2.1.009-4.2-.012-6.306a3.8,3.8,0,0,0-.206-1.136,3.784,3.784,0,0,0-4.049-2.583,3.83,3.83,0,0,0-3.325,3.789c-.018,2.062,0,4.124,0,6.186a2.117,2.117,0,0,0,.031.261Z" transform="translate(641.105 -42.914)"/>
    <path id="Path_18260" data-name="Path 18260" class="cls-2" d="M-422.967,340.25h-6a2.216,2.216,0,0,1-.025-.238c0-1.882-.011-3.763,0-5.645a3.371,3.371,0,0,1,2.644-3.457,3.019,3.019,0,0,1,3.22,2.357,3.931,3.931,0,0,1,.164,1.037c.016,1.918.009,3.836.009,5.754C-422.956,340.117-422.962,340.175-422.967,340.25Z" transform="translate(445.77 -307.122)"/>
  </g>
</svg>
