<svg xmlns="http://www.w3.org/2000/svg" width="38" height="35.452" viewBox="0 0 38 35.452">
  <defs>
    <style>
      .cls-1 {
        fill: #fff;
      }
    </style>
  </defs>
  <g id="Group_16482" data-name="Group 16482" transform="translate(984.011 -2368.274)">
    <path id="Path_19215" data-name="Path 19215" class="cls-1" d="M-972.008,2397.4q5.28,0,10.561.007c.29,0,.432-.057.533-.359a5.013,5.013,0,0,1,4.765-3.446,5.014,5.014,0,0,1,4.767,3.441.452.452,0,0,0,.53.365c1.147-.018,2.294-.009,3.441-.007a1.275,1.275,0,0,1,1.392,1.285,1.275,1.275,0,0,1-1.391,1.246c-1.147,0-2.294.012-3.441-.007a.454.454,0,0,0-.531.364,5.012,5.012,0,0,1-4.767,3.442,5.009,5.009,0,0,1-4.764-3.445c-.1-.3-.243-.36-.534-.36q-10.561.014-21.123.011a1.325,1.325,0,0,1-1.266-.648,1.26,1.26,0,0,1,1.147-1.886c2.387-.008,4.773,0,7.16,0Z"/>
    <path id="Path_19216" data-name="Path 19216" class="cls-1" d="M-974.536,2372.073c2.689,0,5.379,0,8.069,0a.407.407,0,0,0,.474-.328,5.026,5.026,0,0,1,4.785-3.476,5.024,5.024,0,0,1,4.779,3.483c.093.274.224.321.478.32q4.291-.01,8.584,0a1.262,1.262,0,0,1,1.234,1.785,1.279,1.279,0,0,1-1.281.749c-2.822-.007-5.644,0-8.465-.01a.5.5,0,0,0-.583.4,5,5,0,0,1-4.755,3.4,5,5,0,0,1-4.746-3.411c-.116-.343-.281-.393-.59-.393q-8.031.012-16.06,0a1.267,1.267,0,0,1-1.29-1.749,1.255,1.255,0,0,1,1.258-.784Q-978.591,2372.075-974.536,2372.073Z"/>
    <path id="Path_19217" data-name="Path 19217" class="cls-1" d="M-958.008,2387.266c-3.52,0-7.041,0-10.561-.008a.479.479,0,0,0-.548.4,5.016,5.016,0,0,1-4.79,3.411,5.016,5.016,0,0,1-4.731-3.438.452.452,0,0,0-.526-.368c-1.147.019-2.295.009-3.442.007a1.277,1.277,0,0,1-1.4-1.282,1.276,1.276,0,0,1,1.388-1.249c1.161,0,2.321-.008,3.481,0a.405.405,0,0,0,.477-.323,5.026,5.026,0,0,1,4.782-3.48,5.014,5.014,0,0,1,4.78,3.479c.1.307.262.323.517.322q10.523-.006,21.044,0a2.249,2.249,0,0,1,.661.077,1.237,1.237,0,0,1,.849,1.321,1.274,1.274,0,0,1-1.146,1.126c-.1.009-.211.005-.317.005Z"/>
  </g>
</svg>
