<svg xmlns="http://www.w3.org/2000/svg" width="38.3" height="39.643" viewBox="0 0 38.3 39.643">
  <defs>
    <style>
      .cls-1 {
        fill: #fff;
        stroke: #fff;
        stroke-width: 0.3px;
      }
    </style>
  </defs>
  <g id="Group_16480" data-name="Group 16480" transform="translate(982.843 -2304.098)">
    <path id="Path_19208" data-name="Path 19208" class="cls-1" d="M-963.719,2343.591q-8.016,0-16.033,0a2.605,2.605,0,0,1-2.941-2.946,14.448,14.448,0,0,1,13.81-14.1c3.717-.074,7.447-.14,11.154.077a14.334,14.334,0,0,1,12.866,12.056,15.91,15.91,0,0,1,.17,2.031,2.564,2.564,0,0,1-2.836,2.882q-6.445.007-12.889,0Zm-16.323-2.718h32.664c0-.326.014-.61,0-.891-.3-5.318-4.9-10.264-10.242-10.664a99.982,99.982,0,0,0-10.912-.137A11.786,11.786,0,0,0-980.042,2340.873Z"/>
    <path id="Path_19209" data-name="Path 19209" class="cls-1" d="M-973.518,2314.086a9.752,9.752,0,0,1,9.8-9.838,9.8,9.8,0,0,1,9.881,9.864,9.854,9.854,0,0,1-9.865,9.82A9.8,9.8,0,0,1-973.518,2314.086Zm2.674.01a7.146,7.146,0,0,0,7.115,7.163,7.2,7.2,0,0,0,7.222-7.158,7.14,7.14,0,0,0-7.177-7.179A7.09,7.09,0,0,0-970.844,2314.1Z"/>
    <path id="Path_19210" data-name="Path 19210" class="cls-1" d="M-963.652,2320.008a4.731,4.731,0,0,1-3.633-1.743,1.312,1.312,0,0,1,.086-1.9,1.363,1.363,0,0,1,1.9.114c1.184,1.114,2.045,1.108,3.238-.021a1.354,1.354,0,0,1,1.84-.129,1.318,1.318,0,0,1,.159,1.893A4.644,4.644,0,0,1-963.652,2320.008Z"/>
  </g>
</svg>
