<svg xmlns="http://www.w3.org/2000/svg" width="20" height="20" viewBox="0 0 20 20">
  <defs>
    <style>
      .cls-1 {
        fill: #ffc400;
      }

      .cls-2 {
        fill: #cc324c;
      }
    </style>
  </defs>
  <g id="Group_16470" data-name="Group 16470" transform="translate(798.015 -441.941)">
    <path id="Path_19172" data-name="Path 19172" class="cls-1" d="M-778.167,460.787a2.7,2.7,0,0,0-.216-.225l-16.709-16.708q-.836-.836-1.672-1.673a.7.7,0,0,0-.732-.209.711.711,0,0,0-.273,1.227q1.5,1.509,3.018,3.009a.27.27,0,0,1,.07.346,6.63,6.63,0,0,0-.474,2.414,12.075,12.075,0,0,0,.312,2.652,23.111,23.111,0,0,0,2.609,7.027,8.127,8.127,0,0,0,2.237,2.6,3.212,3.212,0,0,0,4.031-.046,7.486,7.486,0,0,0,1.779-1.952c.325-.5.618-1.013.947-1.557.062.075.111.142.168.2q1.861,1.863,3.723,3.724a2.208,2.208,0,0,0,.178.169.709.709,0,0,0,.953-.065A.708.708,0,0,0-778.167,460.787ZM-790.8,450.28l2.417,2.317A2.71,2.71,0,0,1-790.8,450.28Z" transform="translate(0)"/>
    <path id="Path_19173" data-name="Path 19173" class="cls-2" d="M-768.16,447.725a2.8,2.8,0,0,1,.877,1.447,2.86,2.86,0,0,1-.336,2.2l3.525,3.5c.017-.041.045-.1.067-.163a20.282,20.282,0,0,0,.986-4.089,8.518,8.518,0,0,0,.043-2.666,7.153,7.153,0,0,0-10.032-5.29,6.738,6.738,0,0,0-1.964,1.341l3.417,3.438A2.852,2.852,0,0,1-768.16,447.725Z" transform="translate(-17.979 -0.058)"/>
  </g>
</svg>
