<svg xmlns="http://www.w3.org/2000/svg" width="37.614" height="38" viewBox="0 0 37.614 38">
  <defs>
    <style>
      .cls-1 {
        fill: #fff;
      }
    </style>
  </defs>
  <g id="Group_16477" data-name="Group 16477" transform="translate(250.352 -1308.343)">
    <path id="Path_19195" data-name="Path 19195" class="cls-1" d="M-232.558,1336.505q-4.266,0-8.531,0a13.02,13.02,0,0,1-5.354-.92,5.94,5.94,0,0,1-3.81-4.573c-.024-.133-.051-.266-.078-.4l-.021-.1v-1.233c.018-.086.036-.173.053-.259.049-.239.094-.465.148-.689a6.641,6.641,0,0,1,2.323-3.624,6.439,6.439,0,0,1,3.986-1.426c.1,0,.2,0,.3.007a6.593,6.593,0,0,1,6.337,5.656c.006.049.013.1.018.149h-3.389c-.019-.112-.041-.226-.069-.343a2.521,2.521,0,0,0-1.869-1.929,4.586,4.586,0,0,0-1.217-.168,4.56,4.56,0,0,0-1.215.168,2.468,2.468,0,0,0-1.865,1.913,6.271,6.271,0,0,0-.1,1.787,2.445,2.445,0,0,0,1.724,2.1,9.655,9.655,0,0,0,3.253.5c.433.012.889.017,1.479.017l.831,0,.825,0h16.406v3.375Z"/>
    <path id="Path_19196" data-name="Path 19196" class="cls-1" d="M-221.31,1343.644a1.826,1.826,0,0,1-.507-.077,1.576,1.576,0,0,1-1.168-1.257,1.707,1.707,0,0,1,.5-1.7q1.892-1.934,3.78-3.871l1.05-1.075c.064-.066.127-.133.219-.23l.188-.2.536-.566-.571-.531q-.331-.307-.661-.607c-.487-.444-.947-.864-1.393-1.308-.9-.893-2.074-2.076-3.217-3.3a1.77,1.77,0,0,1-.421-1.691,1.657,1.657,0,0,1,1.16-1.179,1.922,1.922,0,0,1,.529-.08,1.393,1.393,0,0,1,1.029.448c2.624,2.656,4.822,4.9,7.021,7.209a2.359,2.359,0,0,1,.352.7c.046.118.093.239.146.36v.3a3.2,3.2,0,0,1-1.034,1.588c-1.3,1.315-2.61,2.659-3.878,3.958q-1.248,1.28-2.5,2.556A1.593,1.593,0,0,1-221.31,1343.644Z"/>
    <path id="Path_19197" data-name="Path 19197" class="cls-1" d="M-222.013,1318.685a1.8,1.8,0,0,1-1.266-.572c-1.4-1.4-2.937-2.931-4.821-4.823-.013-.018-.041-.064-.061-.1-.032-.053-.065-.107-.1-.161l-.511-.763-.664.634-.167.158c-.093.088-.162.154-.23.221l-1.52,1.524c-1.1,1.1-2.236,2.244-3.364,3.353a1.756,1.756,0,0,1-1.232.52,1.637,1.637,0,0,1-1.571-1.139,1.5,1.5,0,0,1,.327-1.653c2.4-2.436,4.793-4.828,7.117-7.11a2.166,2.166,0,0,1,.569-.311c.088-.039.178-.079.269-.122h.568a3.086,3.086,0,0,1,1.305.9c1.21,1.223,2.446,2.459,3.642,3.654.934.933,1.9,1.9,2.847,2.851a1.781,1.781,0,0,1,.529,1.536,1.652,1.652,0,0,1-.895,1.211A1.68,1.68,0,0,1-222.013,1318.685Z"/>
    <path id="Path_19198" data-name="Path 19198" class="cls-1" d="M-230.657,1346.343v-5.813h3.38v.917q0,2.448,0,4.9Z"/>
    <path id="Path_19199" data-name="Path 19199" class="cls-1" d="M-240.5,1346.343q0-2.9,0-5.807h3.355v5.807Z"/>
    <rect id="Rectangle_399" data-name="Rectangle 399" class="cls-1" width="3.323" height="8.241" transform="translate(-230.631 1318.384)"/>
  </g>
</svg>
