<svg xmlns="http://www.w3.org/2000/svg" width="38" height="35" viewBox="0 0 38 35">
  <defs>
    <style>
      .cls-1 {
        fill: #fff;
      }
    </style>
  </defs>
  <g id="Group_16479" data-name="Group 16479" transform="translate(266.255 -771.062)">
    <path id="Path_19180" data-name="Path 19180" class="cls-1" d="M-260.042,797.313c-1.2,0-2.227.076-3.234-.019a2.839,2.839,0,0,1-2.449-2.407c-.961-3.565-.874-6.89,2.493-9.326a5.6,5.6,0,0,0,2-3.474,14.522,14.522,0,0,1,23.406-7.654,13.464,13.464,0,0,1,4.566,7.8,5.284,5.284,0,0,0,2,3.345c3.317,2.415,3.433,5.694,2.491,9.221a2.994,2.994,0,0,1-3.439,2.544,2.143,2.143,0,0,0-2.039,1.018,20.428,20.428,0,0,1-6.7,5.876,7.215,7.215,0,0,1-1.4.633c-.551.171-1.3.671-1.6-.218s.64-.8,1.121-1.014a19.024,19.024,0,0,0,8.115-7,1.88,1.88,0,0,0,.27-.989c0-3.188.072-6.38-.055-9.564a12.9,12.9,0,0,0-12.819-12.3,12.864,12.864,0,0,0-12.715,12.273C-260.164,789.754-260.042,793.458-260.042,797.313Z" transform="translate(0 0)"/>
    <path id="Path_19181" data-name="Path 19181" class="cls-1" d="M-246.687,779.449c-3.83,5.181-10.279,5.8-15.308,8.957a11.387,11.387,0,0,1,3.927-11.924,11.268,11.268,0,0,1,12.756-1.248c4.037,2.058,6.051,5.544,6.3,10.249C-242.569,784.651-244.281,781.733-246.687,779.449Z" transform="translate(3.455 2.477)"/>
    <path id="Path_19182" data-name="Path 19182" class="cls-1" d="M-254.994,791.159h-.353c-2.379,0-2.354,0-2.3-2.385.019-.745.257-1.083,1.026-1.06,1.1.034,2.2.03,3.3.006.652-.015.891.281.95.9C-252.133,791.1-252.182,791.159-254.994,791.159Z" transform="translate(7.735 14.903)"/>
    <path id="Path_19183" data-name="Path 19183" class="cls-1" d="M-257.415,783.981a7.348,7.348,0,0,1-1.845-.515,1.661,1.661,0,0,1-.764-1.263c.023-.433.5-1.142.863-1.2a8.708,8.708,0,0,1,2.994-.009c.855.156,1.054.975.931,1.79C-255.4,783.88-256.258,783.918-257.415,783.981Z" transform="translate(5.607 8.773)"/>
    <path id="Path_19184" data-name="Path 19184" class="cls-1" d="M-252.4,780.758a4.471,4.471,0,0,1,1.429.4,1.714,1.714,0,0,1,.724,1.191,1.529,1.529,0,0,1-.714,1.178,6.637,6.637,0,0,1-2.263.5c-.9.055-1.731-.129-1.814-1.336-.08-1.159.538-1.64,1.556-1.811C-253.175,780.834-252.861,780.811-252.4,780.758Z" transform="translate(10.088 8.678)"/>
  </g>
</svg>
