<svg xmlns="http://www.w3.org/2000/svg" width="30.3" height="30.3" viewBox="0 0 30.3 30.3">
  <g id="Group_16892" data-name="Group 16892" transform="translate(0.15 0.15)">
    <g id="Group_1502" data-name="Group 1502" transform="translate(5.309 7.19)">
      <g id="Group_1501" data-name="Group 1501">
        <path id="Path_1565" data-name="Path 1565" d="M80.749,111.3a1.107,1.107,0,0,0-1.567,0,7.572,7.572,0,0,0-2.166,6.138,1.108,1.108,0,0,0,1.1,1c.037,0,.074,0,.111-.006a1.108,1.108,0,0,0,.992-1.213,5.364,5.364,0,0,1,1.528-4.351A1.107,1.107,0,0,0,80.749,111.3Z" transform="translate(-76.978 -110.975)" fill="#878c9d" stroke="#878c9d" stroke-width="0.3"/>
      </g>
    </g>
    <g id="Group_1504" data-name="Group 1504">
      <g id="Group_1503" data-name="Group 1503">
        <path id="Path_1566" data-name="Path 1566" d="M12.668,0A12.668,12.668,0,1,0,25.336,12.668,12.682,12.682,0,0,0,12.668,0Zm0,23.12A10.452,10.452,0,1,1,23.12,12.668,10.464,10.464,0,0,1,12.668,23.12Z" fill="#878c9d" stroke="#878c9d" stroke-width="0.3"/>
      </g>
    </g>
    <g id="Group_1506" data-name="Group 1506" transform="translate(19.733 19.733)">
      <g id="Group_1505" data-name="Group 1505" transform="translate(0 0)">
        <path id="Path_1567" data-name="Path 1567" d="M346.651,345.086l-8.051-8.051a1.108,1.108,0,1,0-1.567,1.567l8.051,8.051a1.108,1.108,0,0,0,1.567-1.567Z" transform="translate(-336.708 -336.709)" fill="#878c9d" stroke="#878c9d" stroke-width="0.3"/>
      </g>
    </g>
  </g>
</svg>
