<svg xmlns="http://www.w3.org/2000/svg" width="34.5" height="38" viewBox="0 0 34.5 38">
  <defs>
    <style>
      .cls-1 {
        fill: #fff;
      }

      .cls-2 {
        fill: #9a0e25;
      }
    </style>
  </defs>
  <g id="Group_16478" data-name="Group 16478" transform="translate(909.324 -1590)">
    <path id="Path_19200" data-name="Path 19200" class="cls-1" d="M-908.4,1628a1.455,1.455,0,0,1-.925-1.589c.083-2.075.067-4.155.2-6.226a38.67,38.67,0,0,1,.595-4.44,7.287,7.287,0,0,1,2.917-4.333,22.282,22.282,0,0,1,5.869-3.27,1.2,1.2,0,0,1,1.651.617,10.438,10.438,0,0,0,1.706,2.545,5.568,5.568,0,0,0,6.833,1.389,7.609,7.609,0,0,0,3.033-3.12c.177-.312.327-.639.509-.947a1.142,1.142,0,0,1,1.4-.539,20.809,20.809,0,0,1,6.853,4.037,8.034,8.034,0,0,1,2.382,4.741,34.14,34.14,0,0,1,.218,6.439,1.185,1.185,0,0,1-1.171,1.12,1.2,1.2,0,0,1-1.215-1.031,5.07,5.07,0,0,1-.023-.592c-.036-1.6-.015-3.215-.13-4.815a14.139,14.139,0,0,0-.559-2.445,3.826,3.826,0,0,0-.321-.661c-.082.1-.137.165-.182.232-1.381,2.08-2.757,4.163-4.147,6.236a.5.5,0,0,0-.033.6,9.564,9.564,0,0,1,1.091,3.286c.04.275.142.337.4.336q2.634-.015,5.268,0a1.224,1.224,0,0,1,1.32,1.476,1.383,1.383,0,0,1-.889.959Zm24.007-17.214c-.157.241-.282.47-.441.672a20.092,20.092,0,0,1-1.469,1.809,7.866,7.866,0,0,1-9.494,1.535,9.535,9.535,0,0,1-3.406-3.13c-.2-.29-.386-.591-.577-.883a19.907,19.907,0,0,0-4.32,2.531,5.037,5.037,0,0,0-2.027,2.837,12.842,12.842,0,0,0-.337,1.819c-.162,2.466-.282,4.934-.415,7.4a.727.727,0,0,0,.041.184c1.425,0,2.834.005,4.243-.011.093,0,.238-.144.266-.247.1-.356.14-.727.234-1.085a.441.441,0,0,0-.175-.528,3.386,3.386,0,0,1-.584-4.659,21.5,21.5,0,0,1,1.987-2.3,3.383,3.383,0,0,1,4.824.094.534.534,0,0,0,.666.151,9.991,9.991,0,0,1,6.372-.07c.546.173,1.077.4,1.626.6l4.112-6.194Zm.13,14.756c-.018-.129-.026-.238-.048-.344a7.937,7.937,0,0,0-10.424-5.883.462.462,0,0,0-.368.433,2.869,2.869,0,0,1-.647,1.55c-.5.612-1.03,1.2-1.541,1.8a3.721,3.721,0,0,1-2.129,1.323.4.4,0,0,0-.268.192c-.093.291-.144.6-.216.915.123.013.207.03.291.03,2.214,0,4.427.006,6.64-.01a.628.628,0,0,0,.433-.245c.933-1.322,1.851-2.656,2.768-3.99a1.324,1.324,0,0,1,.977-.659,1.148,1.148,0,0,1,1.14.549,1.163,1.163,0,0,1-.029,1.359c-.6.879-1.2,1.751-1.807,2.627-.073.1-.141.214-.241.367a6.733,6.733,0,0,1,.735.006.544.544,0,0,0,.588-.325c.309-.521.642-1.028.984-1.526a1.211,1.211,0,0,1,1.688-.387,1.224,1.224,0,0,1,.353,1.7c-.1.165-.2.326-.319.517Zm-13.166-6.284a1.212,1.212,0,0,0-.662-.967,1,1,0,0,0-1.179.272q-.793.877-1.556,1.783a1.017,1.017,0,0,0,.075,1.458,1,1,0,0,0,1.454-.115c.531-.583,1.052-1.176,1.553-1.785A3.05,3.05,0,0,0-897.426,1619.258Zm16.278-6.726-4.218,6.357.732.685,4.3-6.471Z"/>
    <path id="Path_19201" data-name="Path 19201" class="cls-1" d="M-891.1,1590a21.674,21.674,0,0,1,2.205.459,8.262,8.262,0,0,1,5.793,6.246,10.475,10.475,0,0,1-5.9,12.053,1.227,1.227,0,0,1-1.652-.533,1.185,1.185,0,0,1,.592-1.65,7.952,7.952,0,0,0,3.3-2.678,7.768,7.768,0,0,0,.93-7.706,5.886,5.886,0,0,0-4.931-3.665,7.6,7.6,0,0,0-4.22.474,5.982,5.982,0,0,0-3.389,3.945,8.5,8.5,0,0,0,1.367,7.426,15.525,15.525,0,0,0,4.67,4.387c.495.326,1.014.615,1.509.942a1.2,1.2,0,0,1,.411,1.652,1.192,1.192,0,0,1-1.65.421,20.456,20.456,0,0,1-6.4-5.257,11.724,11.724,0,0,1-2.661-7.167c0-3.572,1.361-6.466,4.579-8.285a8.909,8.909,0,0,1,3.315-.995c.121-.015.239-.046.359-.069Z"/>
    <path id="Path_19203" data-name="Path 19203" class="cls-2" d="M-884.26,1625.542h-1.44c.118-.191.223-.352.319-.517a1.224,1.224,0,0,0-.353-1.7,1.211,1.211,0,0,0-1.688.387c-.342.5-.675,1.005-.984,1.526a.544.544,0,0,1-.588.325,6.733,6.733,0,0,0-.735-.006c.1-.153.168-.262.241-.367.6-.876,1.21-1.748,1.807-2.627a1.163,1.163,0,0,0,.029-1.359,1.148,1.148,0,0,0-1.14-.549,1.324,1.324,0,0,0-.977.659c-.917,1.334-1.835,2.668-2.768,3.99a.628.628,0,0,1-.433.245c-2.213.016-4.426.011-6.64.01-.084,0-.168-.017-.291-.03.072-.319.123-.624.216-.915a.4.4,0,0,1,.268-.192,3.721,3.721,0,0,0,2.129-1.323c.511-.6,1.04-1.192,1.541-1.8a2.869,2.869,0,0,0,.647-1.55.462.462,0,0,1,.368-.433,7.937,7.937,0,0,1,10.424,5.883C-884.286,1625.3-884.278,1625.413-884.26,1625.542Z"/>
    <path id="Path_19204" data-name="Path 19204" class="cls-2" d="M-897.426,1619.258a3.05,3.05,0,0,1-.315.646c-.5.609-1.022,1.2-1.553,1.785a1,1,0,0,1-1.454.115,1.017,1.017,0,0,1-.075-1.458q.761-.906,1.556-1.783a1,1,0,0,1,1.179-.272A1.212,1.212,0,0,1-897.426,1619.258Z"/>
    <path id="Path_19205" data-name="Path 19205" class="cls-2" d="M-881.148,1612.532l.81.571-4.3,6.471-.732-.685Z"/>
  </g>
</svg>
