<svg xmlns="http://www.w3.org/2000/svg" width="38.001" height="30.646" viewBox="0 0 38.001 30.646">
  <defs>
    <style>
      .cls-1 {
        fill: #fff;
      }
    </style>
  </defs>
  <g id="Group_16481" data-name="Group 16481" transform="translate(945.901 -2208.764)">
    <path id="Path_19211" data-name="Path 19211" class="cls-1" d="M-926.917,2239.4q-7.163,0-14.326,0a4.55,4.55,0,0,1-4.6-3.848,5.458,5.458,0,0,1-.053-.949q0-10.593,0-21.186a4.55,4.55,0,0,1,4.654-4.648q2.7,0,5.41,0a4.548,4.548,0,0,1,3.353,1.384c.879.882,1.768,1.753,2.637,2.645a1.919,1.919,0,0,0,1.461.6q7.887-.01,15.775-.006a4.539,4.539,0,0,1,4.638,3.845,4.71,4.71,0,0,1,.051.8c0,5.525-.037,11.05.02,16.574a4.7,4.7,0,0,1-4.8,4.8c-4.737-.045-9.475-.013-14.213-.013Zm0-3.014v0q7.141,0,14.285,0a1.564,1.564,0,0,0,1.717-1.728q0-8.247,0-16.495a1.585,1.585,0,0,0-1.769-1.762q-7.905,0-15.809,0a4.619,4.619,0,0,1-3.416-1.416c-.868-.874-1.751-1.733-2.608-2.617a1.854,1.854,0,0,0-1.427-.588c-1.727.012-3.454,0-5.181.005a1.585,1.585,0,0,0-1.778,1.786q0,10.456,0,20.914c0,1.345.555,1.9,1.888,1.9Z"/>
    <path id="Path_19212" data-name="Path 19212" class="cls-1" d="M-930.938,2226.518q0,3.1,0,6.208c0,.686-.26.949-.937.951q-1.485,0-2.97,0c-.624,0-.9-.285-.9-.911q0-6.246,0-12.492c0-.628.278-.909.9-.911q1.5,0,3.009,0c.628,0,.9.277.9.911Q-930.936,2223.4-930.938,2226.518Z"/>
    <path id="Path_19213" data-name="Path 19213" class="cls-1" d="M-924.495,2227.9v4.8c0,.713-.276.985-.992.985-.964,0-1.929,0-2.893,0-.666,0-.944-.281-.944-.956q0-4.834,0-9.671c0-.672.279-.944.952-.945q1.465,0,2.931,0c.669,0,.943.276.944.954Q-924.493,2225.478-924.495,2227.9Z"/>
    <path id="Path_19214" data-name="Path 19214" class="cls-1" d="M-922.881,2229.1v-3.615c0-.65.27-.918.928-.92q1.446-.006,2.892,0c.737,0,.992.256.993.977q0,3.576,0,7.154c0,.726-.255.977-.99.979q-1.446,0-2.892,0c-.655,0-.931-.273-.931-.919Q-922.883,2230.932-922.881,2229.1Z"/>
  </g>
</svg>
