<svg xmlns="http://www.w3.org/2000/svg" width="15.601" height="16" viewBox="0 0 15.601 16"><defs><style>.a{fill:#707070;}</style></defs><path class="a" d="M8.738,4.678a4.687,4.687,0,0,1,5.629,5.627.782.782,0,0,0,.578.946.7.7,0,0,0,.18,0,.781.781,0,0,0,.781-.594A6.249,6.249,0,0,0,8.4,3.139.8.8,0,0,0,8.761,4.7Zm8.65,11.4-3.334-3.337h0L3.335,2.005a.782.782,0,0,0-1.109,1.1L4.732,5.616a6.258,6.258,0,0,0,.656,8.058l3.865,3.869a.78.78,0,0,0,1.109,0l3.123-3.126L16.264,17.2a.782.782,0,1,0,1.109-1.1ZM9.9,10.79A1.557,1.557,0,0,1,8.246,9.149Zm-.094,5.08L6.5,12.557a4.693,4.693,0,0,1-.64-5.815L7,7.891a3.119,3.119,0,0,0,2.8,4.478,3.066,3.066,0,0,0,1.351-.32l1.234,1.235Z" transform="translate(-1.999 -1.773)"/></svg>