<svg xmlns="http://www.w3.org/2000/svg" width="15.301" height="18" viewBox="0 0 15.301 18"><defs><style>.a{fill:#fb7d45;}</style></defs><path class="a" d="M18.764,8.819a7.6,7.6,0,0,0-4.325-6.137,7.649,7.649,0,0,0-10.9,6.137A7.541,7.541,0,0,0,5.75,14.929l4.77,4.75a.9.9,0,0,0,1.278,0l4.752-4.75A7.541,7.541,0,0,0,18.764,8.819ZM15.29,13.667l-4.14,4.115L7.01,13.667A5.785,5.785,0,0,1,5.327,9,5.851,5.851,0,0,1,16.973,8.98a5.785,5.785,0,0,1-1.683,4.687Zm-4.14-8.1A4.025,4.025,0,1,0,15.2,9.6a4.038,4.038,0,0,0-4.05-4.025Zm0,6.262A2.236,2.236,0,1,1,13.4,9.6a2.243,2.243,0,0,1-2.25,2.236Z" transform="translate(-3.5 -1.943)"/></svg>