<svg xmlns="http://www.w3.org/2000/svg" width="13.5" height="16" viewBox="0 0 13.5 16"><defs><style>.a{fill:#707070;}</style></defs><path class="a" d="M16.967,8.055A6.749,6.749,0,1,0,5.485,13.486l4.209,4.222a.793.793,0,0,0,1.128,0l4.193-4.222A6.732,6.732,0,0,0,16.967,8.055ZM13.9,12.365,10.25,16.022,6.6,12.365A5.164,5.164,0,0,1,5.112,8.214a5.225,5.225,0,0,1,2.295-3.84,5.132,5.132,0,0,1,5.686,0A5.225,5.225,0,0,1,15.387,8.2,5.164,5.164,0,0,1,13.9,12.365Zm-3.653-7.2a3.578,3.578,0,1,0,3.573,3.578A3.576,3.576,0,0,0,10.25,5.169Zm0,5.566a1.988,1.988,0,1,1,1.985-1.988,1.986,1.986,0,0,1-1.985,1.988Z" transform="translate(-3.5 -1.943)"/></svg>