<svg xmlns="http://www.w3.org/2000/svg" width="13.5" height="16" viewBox="0 0 13.5 16"><defs><style>.a{fill:#707070;}</style></defs><path class="a" d="M10.25,8.351a.8.8,0,0,0-.794.8v1.59a.794.794,0,1,0,1.588,0V9.146A.8.8,0,0,0,10.25,8.351ZM16.967,8.1A6.748,6.748,0,1,0,5.485,13.488l4.209,4.223a.793.793,0,0,0,1.128,0l4.193-4.223a6.733,6.733,0,0,0,1.953-5.431ZM13.9,12.367,10.25,16.025,6.6,12.367A5.165,5.165,0,0,1,5.112,8.216,5.226,5.226,0,0,1,7.407,4.375a5.131,5.131,0,0,1,5.686,0A5.226,5.226,0,0,1,15.387,8.2,5.165,5.165,0,0,1,13.9,12.367ZM10.98,6.418a.446.446,0,0,0-.071-.135l-.1-.119a.793.793,0,0,0-.723-.2H9.948L9.8,6.037l-.119.1-.1.119a.446.446,0,0,0-.071.135.478.478,0,0,0-.048.151.98.98,0,0,0-.016.215.7.7,0,0,0,.064.31.883.883,0,0,0,.167.254.8.8,0,0,0,.866.175.945.945,0,0,0,.262-.175.883.883,0,0,0,.167-.254.8.8,0,0,0,.064-.31.979.979,0,0,0,0-.151A.478.478,0,0,0,10.98,6.418Z" transform="translate(-3.5 -1.945)"/></svg>