<svg xmlns="http://www.w3.org/2000/svg" xmlns:xlink="http://www.w3.org/1999/xlink" width="34" height="34" viewBox="0 0 34 34">
  <defs>
    <style>
      .cls-1 {
        fill: #fff;
        stroke: #707070;
      }

      .cls-2 {
        clip-path: url(#clip-path);
      }

      .cls-3 {
        fill: #cc324c;
      }
    </style>
    <clipPath id="clip-path">
      <rect id="Rectangle_398" data-name="Rectangle 398" class="cls-1" width="34" height="34" transform="translate(977 669)"/>
    </clipPath>
  </defs>
  <g id="Mask_Group_1" data-name="Mask Group 1" class="cls-2" transform="translate(-977 -669)">
    <g id="fire_1_" data-name="fire (1)" transform="translate(922 676)">
      <g id="Group_16457" data-name="Group 16457" transform="translate(64 0)">
        <path id="Path_19168" data-name="Path 19168" class="cls-3" d="M78.957,11.71a11.788,11.788,0,0,0-2.843-6.5C74.98,3.681,74,2.363,74,.417a.417.417,0,0,0-.226-.371.413.413,0,0,0-.433.032,10.6,10.6,0,0,0-3.912,5.653A18.453,18.453,0,0,0,69,9.957c-1.7-.363-2.084-2.9-2.088-2.932a.417.417,0,0,0-.594-.316c-.089.043-2.187,1.109-2.309,5.365C64,12.216,64,12.358,64,12.5A7.508,7.508,0,0,0,71.5,20a.058.058,0,0,0,.017,0h.005A7.509,7.509,0,0,0,79,12.5C79,12.292,78.957,11.71,78.957,11.71ZM71.5,19.166A2.588,2.588,0,0,1,69,16.5c0-.05,0-.1,0-.162a3.378,3.378,0,0,1,.263-1.323,1.522,1.522,0,0,0,1.376,1,.416.416,0,0,0,.417-.417,8.335,8.335,0,0,1,.16-1.9,4.029,4.029,0,0,1,.844-1.6,5.369,5.369,0,0,0,.859,1.576,4.747,4.747,0,0,1,1.068,2.6c.005.072.011.144.011.221A2.588,2.588,0,0,1,71.5,19.166Z" transform="translate(-64 0)"/>
      </g>
    </g>
  </g>
</svg>
