<svg xmlns="http://www.w3.org/2000/svg" xmlns:xlink="http://www.w3.org/1999/xlink" width="34" height="34" viewBox="0 0 34 34">
  <defs>
    <style>
      .cls-1 {
        fill: #fff;
        stroke: #707070;
      }

      .cls-2 {
        clip-path: url(#clip-path);
      }

      .cls-3 {
        fill: #162944;
      }
    </style>
    <clipPath id="clip-path">
      <rect id="Rectangle_398" data-name="Rectangle 398" class="cls-1" width="34" height="34" transform="translate(1021 669)"/>
    </clipPath>
  </defs>
  <g id="Mask_Group_2" data-name="Mask Group 2" class="cls-2" transform="translate(-1021 -669)">
    <g id="Group_16476" data-name="Group 16476" transform="translate(1294.255 -94.063)">
      <path id="Path_19180" data-name="Path 19180" class="cls-3" d="M-262.985,784.912c-.633,0-1.172.04-1.7-.01a1.5,1.5,0,0,1-1.289-1.27c-.506-1.881-.46-3.635,1.312-4.92a2.956,2.956,0,0,0,1.053-1.833,7.637,7.637,0,0,1,12.319-4.038,7.107,7.107,0,0,1,2.4,4.116,2.789,2.789,0,0,0,1.055,1.765c1.746,1.274,1.807,3,1.311,4.865a1.576,1.576,0,0,1-1.81,1.342,1.127,1.127,0,0,0-1.073.537,10.76,10.76,0,0,1-3.526,3.1,3.792,3.792,0,0,1-.735.334c-.29.09-.686.354-.84-.115s.337-.42.59-.535a10.02,10.02,0,0,0,4.271-3.693.994.994,0,0,0,.142-.522c0-1.682.038-3.366-.029-5.046a6.794,6.794,0,0,0-6.747-6.488,6.778,6.778,0,0,0-6.692,6.475C-263.049,780.924-262.985,782.878-262.985,784.912Z"/>
      <path id="Path_19181" data-name="Path 19181" class="cls-3" d="M-254.137,776.78c-2.016,2.727-5.41,3.053-8.057,4.714a5.993,5.993,0,0,1,2.067-6.276,5.931,5.931,0,0,1,6.714-.657,5.96,5.96,0,0,1,3.317,5.394C-251.97,779.518-252.871,777.982-254.137,776.78Z"/>
      <path id="Path_19182" data-name="Path 19182" class="cls-3" d="M-256.257,789.527h-.186c-1.252,0-1.239,0-1.209-1.255.01-.392.135-.57.54-.558.579.018,1.158.016,1.737,0,.343-.008.469.148.5.476C-254.751,789.5-254.777,789.527-256.257,789.527Z"/>
      <path id="Path_19183" data-name="Path 19183" class="cls-3" d="M-258.651,782.5a3.869,3.869,0,0,1-.971-.271.874.874,0,0,1-.4-.665c.012-.228.261-.6.454-.634a4.583,4.583,0,0,1,1.576-.005c.45.082.555.513.49.942C-257.591,782.451-258.042,782.471-258.651,782.5Z"/>
      <path id="Path_19184" data-name="Path 19184" class="cls-3" d="M-253.653,780.758a2.352,2.352,0,0,1,.752.211.9.9,0,0,1,.381.627.8.8,0,0,1-.376.62,3.493,3.493,0,0,1-1.191.265c-.475.029-.911-.068-.955-.7-.042-.61.283-.863.819-.953C-254.061,780.8-253.9,780.786-253.653,780.758Z"/>
    </g>
  </g>
</svg>
