<svg xmlns="http://www.w3.org/2000/svg" width="12.6" height="18" viewBox="0 0 12.6 18"><defs><style>.a{fill:#32cc3e;}</style></defs><path class="a" d="M11.939,14.861l-.135-.108a.684.684,0,0,0-.162-.081L11.48,14.6a.9.9,0,0,0-.819.243,1.035,1.035,0,0,0-.189.3.9.9,0,0,0,1.17,1.179,1.314,1.314,0,0,0,.3-.2.891.891,0,0,0,0-1.26ZM14.9,2H7.7A2.7,2.7,0,0,0,5,4.7V17.3A2.7,2.7,0,0,0,7.7,20h7.2a2.7,2.7,0,0,0,2.7-2.7V4.7A2.7,2.7,0,0,0,14.9,2Zm.9,15.3a.9.9,0,0,1-.9.9H7.7a.9.9,0,0,1-.9-.9V4.7a.9.9,0,0,1,.9-.9h7.2a.9.9,0,0,1,.9.9Z" transform="translate(-5 -2)"/></svg>