<svg xmlns="http://www.w3.org/2000/svg" width="30.004" height="30.003" viewBox="0 0 30.004 30.003">
  <path id="Path_19250" data-name="Path 19250" d="M29.777,14.805,23.006,3.077a1.675,1.675,0,0,0-2.9,0L18.913,5.142a10.2,10.2,0,0,0-2.478-1.183V3.233a3.221,3.221,0,0,0-6.441,0v.724a9.415,9.415,0,0,0-6.709,8.829v7.365H2.968a2.968,2.968,0,1,0,0,5.937H9.119a4.1,4.1,0,0,0,8.19,0H23.46a2.968,2.968,0,1,0,0-5.936h-.316V17.318h5.183a1.675,1.675,0,0,0,1.451-2.513ZM11.751,3.233a1.463,1.463,0,1,1,2.925,0v.322a10.537,10.537,0,0,0-2.925,0Zm1.463,25.024a2.344,2.344,0,0,1-2.334-2.169h4.669A2.344,2.344,0,0,1,13.214,28.257ZM24.67,23.119a1.212,1.212,0,0,1-1.21,1.21H2.968a1.21,1.21,0,1,1,0-2.421H23.46a1.212,1.212,0,0,1,1.21,1.21Zm-3.284-2.968H5.042V12.786c0-4.177,3.666-7.576,8.172-7.576a8.632,8.632,0,0,1,4.818,1.457l-4.7,8.137a1.675,1.675,0,0,0,1.451,2.513h6.6v2.833ZM14.928,15.56,21.556,4.081,28.183,15.56Z" transform="translate(0 -0.012)" fill="#fff"/>
</svg>
