<svg xmlns="http://www.w3.org/2000/svg" width="31" height="31" viewBox="0 0 31 31">
  <defs>
    <style>
      .cls-1 {
        fill: #878c9d;
        stroke: #878c9d;
      }
    </style>
  </defs>
  <path id="Path_19221" data-name="Path 19221" class="cls-1" d="M-1208.223,2160a1.16,1.16,0,0,1-.781-1.253c.016-4.149.008-8.3.008-12.447,0-.455,0-.452-.434-.566a13.419,13.419,0,0,1-8.5-6.677,15.912,15.912,0,0,1-2.018-6.754c-.008-.1-.034-.208-.052-.311V2130.7a1.516,1.516,0,0,1,.7-.7h28.594a1.513,1.513,0,0,1,.7.7v1.289c-.078.607-.128,1.219-.238,1.819a14.777,14.777,0,0,1-7.005,10.572,12.106,12.106,0,0,1-3.461,1.383c-.094.022-.186.051-.3.083v.323c0,2.557-.006,5.113.005,7.67a1.241,1.241,0,0,1-.485,1.036c-1.925,1.592-3.84,3.2-5.761,4.79a5.061,5.061,0,0,1-.508.331Zm16.246-27.984h-25.968c0,.145-.01.272,0,.4a14.205,14.205,0,0,0,1.619,5.64,11.187,11.187,0,0,0,8.31,5.934c.7.121,1.022.45,1.022,1.079q0,5.7,0,11.4v.4l.364-.3c1.125-.938,2.246-1.88,3.379-2.809a.619.619,0,0,0,.256-.54c-.01-2.715-.008-5.429-.01-8.145a1.011,1.011,0,0,1,.876-1.063,11.1,11.1,0,0,0,5.814-2.62,12.256,12.256,0,0,0,3.906-6.747C-1192.218,2133.784-1192.122,2132.91-1191.977,2132.016Z" transform="translate(1220.5 -2129.5)"/>
</svg>
