<svg id="refresh_1_" data-name="refresh (1)" xmlns="http://www.w3.org/2000/svg" width="30" height="30" viewBox="0 0 30 30">
  <g id="Group_16736" data-name="Group 16736" transform="translate(1.71)">
    <g id="Group_16735" data-name="Group 16735">
      <path id="Path_19339" data-name="Path 19339" d="M55.464,4.276a1.182,1.182,0,0,0-1.271,1.1l-.155,1.76A14.522,14.522,0,0,0,28.366,8.407a1.232,1.232,0,0,0,.51,1.629,1.151,1.151,0,0,0,1.574-.528A12.23,12.23,0,0,1,52.081,8.441L50.413,7.208a1.144,1.144,0,0,0-1.632.282,1.239,1.239,0,0,0,.272,1.689l5.057,3.739a1.165,1.165,0,0,0,1.845-.875l.568-6.45A1.2,1.2,0,0,0,55.464,4.276Z" transform="translate(-28.237)" fill="#878c9d"/>
    </g>
  </g>
  <g id="Group_16738" data-name="Group 16738" transform="translate(0 16.856)">
    <g id="Group_16737" data-name="Group 16737">
      <path id="Path_19340" data-name="Path 19340" d="M27.654,298.02a1.151,1.151,0,0,0-1.574.528,12.441,12.441,0,0,1-11.108,7.087,12.37,12.37,0,0,1-10.524-6.019l1.668,1.233a1.144,1.144,0,0,0,1.632-.282,1.239,1.239,0,0,0-.272-1.689l-5.057-3.739a1.165,1.165,0,0,0-1.845.875l-.568,6.45a1.2,1.2,0,0,0,1.059,1.316,1.182,1.182,0,0,0,1.271-1.1l.155-1.76a14.634,14.634,0,0,0,12.481,7.132,14.772,14.772,0,0,0,13.191-8.407A1.232,1.232,0,0,0,27.654,298.02Z" transform="translate(-0.001 -294.913)" fill="#878c9d"/>
    </g>
  </g>
</svg>
