<svg id="settings" xmlns="http://www.w3.org/2000/svg" width="30" height="30.236" viewBox="0 0 30 30.236">
  <g id="Group_16732" data-name="Group 16732" transform="translate(10.413 10.531)">
    <g id="Group_16731" data-name="Group 16731">
      <path id="Path_19337" data-name="Path 19337" d="M180.587,176a4.587,4.587,0,1,0,4.587,4.587A4.592,4.592,0,0,0,180.587,176Zm0,6.881a2.294,2.294,0,1,1,2.294-2.294A2.3,2.3,0,0,1,180.587,182.881Z" transform="translate(-176 -176)" fill="#878c9d"/>
    </g>
  </g>
  <g id="Group_16734" data-name="Group 16734">
    <g id="Group_16733" data-name="Group 16733">
      <path id="Path_19338" data-name="Path 19338" d="M31.537,18.64,28.478,16.3a11.134,11.134,0,0,0,0-2.357L31.537,11.6a1.181,1.181,0,0,0,.3-1.538L28.874,5.04a1.181,1.181,0,0,0-1.45-.5L23.8,5.971a11.543,11.543,0,0,0-2.12-1.2L21.13,1.012A1.181,1.181,0,0,0,19.961,0H14.038a1.181,1.181,0,0,0-1.169,1.012l-.545,3.758a11.547,11.547,0,0,0-2.12,1.2L6.575,4.542a1.181,1.181,0,0,0-1.45.5L2.164,10.058a1.181,1.181,0,0,0,.3,1.538L5.521,13.94a11.134,11.134,0,0,0,0,2.357L2.462,18.64a1.181,1.181,0,0,0-.3,1.538L5.125,25.2a1.181,1.181,0,0,0,1.45.5L10.2,24.266a11.545,11.545,0,0,0,2.12,1.2l.545,3.758a1.181,1.181,0,0,0,1.169,1.012h5.923a1.181,1.181,0,0,0,1.169-1.012l.545-3.758a11.542,11.542,0,0,0,2.12-1.2l3.629,1.429a1.181,1.181,0,0,0,1.45-.5l2.962-5.018A1.181,1.181,0,0,0,31.537,18.64Zm-4.185,4.488-3.31-1.3a1.181,1.181,0,0,0-1.177.182A9.2,9.2,0,0,1,20.2,23.512a1.181,1.181,0,0,0-.766.941l-.5,3.421H15.06l-.5-3.421a1.181,1.181,0,0,0-.766-.941,9.2,9.2,0,0,1-2.664-1.507,1.181,1.181,0,0,0-1.177-.182l-3.31,1.3L4.73,19.878,7.5,17.753a1.181,1.181,0,0,0,.446-1.138,8.8,8.8,0,0,1,0-2.994A1.181,1.181,0,0,0,7.5,12.483L4.73,10.358,6.647,7.109l3.31,1.3a1.181,1.181,0,0,0,1.177-.182A9.2,9.2,0,0,1,13.8,6.724a1.181,1.181,0,0,0,.766-.941l.5-3.421h3.879l.5,3.421a1.181,1.181,0,0,0,.766.941A9.2,9.2,0,0,1,22.865,8.23a1.181,1.181,0,0,0,1.177.182l3.31-1.3,1.918,3.249L26.5,12.483a1.181,1.181,0,0,0-.446,1.138,8.8,8.8,0,0,1,0,2.994,1.181,1.181,0,0,0,.446,1.138l2.773,2.125Z" transform="translate(-2)" fill="#878c9d"/>
    </g>
  </g>
</svg>
