<svg id="signs" xmlns="http://www.w3.org/2000/svg" width="24" height="26" viewBox="0 0 24 26">
  <defs>
    <style>
      .cls-1 {
        fill: #878c9d;
      }
    </style>
  </defs>
  <path id="Path_19385" data-name="Path 19385" class="cls-1" d="M125.287,3.012A3.012,3.012,0,0,0,122.275,0h-12.6a3.012,3.012,0,0,0-3.012,3.012V17.8a3.012,3.012,0,0,0,3.012,3.012h12.6a3.012,3.012,0,0,0,3.012-3.012Zm-5.2,12.869H111.87a.821.821,0,1,1,0-1.643h8.214a.821.821,0,0,1,0,1.643Zm0-3.286H111.87a.821.821,0,1,1,0-1.643h8.214a.821.821,0,0,1,0,1.643Zm0-3.286H111.87a.821.821,0,1,1,0-1.643h8.214a.821.821,0,0,1,0,1.643Zm0,0" transform="translate(-101.287)"/>
  <path id="Path_19386" data-name="Path 19386" class="cls-1" d="M8.488,72.807a4.632,4.632,0,0,1-4.655-4.6V53.6c0-.093.022-.18.027-.271H3.012A3,3,0,0,0,0,56.307V73.619a3,3,0,0,0,3.012,2.975H16.155a3,3,0,0,0,3.012-2.975v-.811Zm0,0" transform="translate(0 -50.594)"/>
</svg>
