<svg xmlns="http://www.w3.org/2000/svg" width="30" height="30" viewBox="0 0 30 30">
  <defs>
    <style>
      .cls-1 {
        fill: #878c9d;
      }
    </style>
  </defs>
  <g id="sort" transform="translate(-4.457)">
    <g id="Group_16493" data-name="Group 16493" transform="translate(4.457)">
      <path id="Path_19222" data-name="Path 19222" class="cls-1" d="M251.9,150.492h7.544a.519.519,0,0,0,.539-.539V146.72a.519.519,0,0,0-.539-.539H251.9a.519.519,0,0,0-.539.539v3.233a.519.519,0,0,0,.539.539Z" transform="translate(-236.554 -137.618)"/>
      <path id="Path_19223" data-name="Path 19223" class="cls-1" d="M251.9,4.311h4.311a.518.518,0,0,0,.538-.539V.539A.518.518,0,0,0,256.211,0H251.9a.519.519,0,0,0-.539.539V3.772a.519.519,0,0,0,.539.539Z" transform="translate(-236.589)"/>
      <path id="Path_19224" data-name="Path 19224" class="cls-1" d="M15.786,23.571H12.553V.536A.52.52,0,0,0,12.4.151.527.527,0,0,0,12.014,0H8.781a.526.526,0,0,0-.387.151.521.521,0,0,0-.151.385V23.571H5.009a.5.5,0,0,0-.505.335.507.507,0,0,0,.118.586L10.01,29.85A.608.608,0,0,0,10.4,30a.565.565,0,0,0,.387-.15l5.372-5.341a.626.626,0,0,0,.168-.4.517.517,0,0,0-.539-.536Z" transform="translate(-4.457 0)"/>
      <path id="Path_19225" data-name="Path 19225" class="cls-1" d="M266.3,438.688a.523.523,0,0,0-.387-.152H251.9a.519.519,0,0,0-.539.539v3.233a.518.518,0,0,0,.539.539h14.01a.518.518,0,0,0,.539-.539v-3.233A.524.524,0,0,0,266.3,438.688Z" transform="translate(-236.449 -412.847)"/>
      <path id="Path_19226" data-name="Path 19226" class="cls-1" d="M251.9,296.674h10.777a.518.518,0,0,0,.539-.538V292.9a.518.518,0,0,0-.539-.538H251.9a.518.518,0,0,0-.539.538v3.233a.518.518,0,0,0,.539.538Z" transform="translate(-236.447 -275.237)"/>
    </g>
  </g>
</svg>
