<?xml version="1.0" encoding="utf-8"?>
<!-- Generator: Adobe Illustrator 24.2.1, SVG Export Plug-In . SVG Version: 6.00 Build 0)  -->
<svg version="1.1" id="Layer_1" xmlns="http://www.w3.org/2000/svg" xmlns:xlink="http://www.w3.org/1999/xlink" x="0px" y="0px"
	 viewBox="0 0 12 11.4" style="enable-background:new 0 0 12 11.4;" xml:space="preserve">
<style type="text/css">
	.st0{fill:#D3D1CF;}
</style>
<path class="st0" d="M12,4.3c-0.1-0.2-0.3-0.4-0.5-0.4L8.1,3.4L6.5,0.3C6.4,0,6-0.1,5.7,0.1C5.6,0.1,5.5,0.2,5.4,0.3L3.9,3.4
	L0.5,3.9C0.2,4,0,4.2,0,4.6c0,0.1,0.1,0.3,0.2,0.3l2.5,2.4l-0.6,3.4c0,0.2,0,0.5,0.2,0.6c0.2,0.1,0.4,0.1,0.6,0L6,9.7L9,11.3
	c0.1,0,0.2,0.1,0.3,0.1c0.1,0,0.3,0,0.4-0.1c0.2-0.1,0.3-0.4,0.2-0.6L9.3,7.3l2.5-2.4C12,4.8,12,4.5,12,4.3z"/>
</svg>
