<?xml version="1.0" encoding="utf-8"?>
<!-- Generator: Adobe Illustrator 25.2.1, SVG Export Plug-In . SVG Version: 6.00 Build 0)  -->
<svg version="1.1" id="Layer_1" xmlns="http://www.w3.org/2000/svg" xmlns:xlink="http://www.w3.org/1999/xlink" x="0px" y="0px"
	 viewBox="0 0 24 24" style="enable-background:new 0 0 24 24;" xml:space="preserve">
<style type="text/css">
	.st0{fill:#FFFFFF;}
	.st1{fill:url(#SVGID_1_);}
</style>
<g>
	<rect class="st0" width="24" height="24"/>
	<linearGradient id="SVGID_1_" gradientUnits="userSpaceOnUse" x1="12.02" y1="1.9693" x2="12.02" y2="21.9965">
		<stop  offset="0" style="stop-color:#FFD000"/>
		<stop  offset="1" style="stop-color:#FF7B00"/>
	</linearGradient>
	<path class="st1" d="M22,9.7C21.9,9.3,21.5,9,21.1,9l-5.7-0.8L12.9,3c-0.2-0.5-0.8-0.7-1.3-0.5c-0.2,0.1-0.4,0.3-0.5,0.5L8.6,8.2
		L2.9,9C2.5,9.1,2.2,9.3,2,9.7c-0.1,0.4,0,0.7,0.2,1l4.1,4l-1,5.7c-0.1,0.4,0.1,0.8,0.4,1c0.3,0.2,0.7,0.2,1,0.1l5.1-2.7l5.1,2.7
		c0.1,0.1,0.3,0.1,0.5,0.1c0.2,0,0.4-0.1,0.6-0.2c0.3-0.2,0.5-0.6,0.4-1l-1-5.7l4.1-4C22,10.4,22.1,10,22,9.7z"/>
</g>
</svg>
