<svg xmlns="http://www.w3.org/2000/svg" width="18" height="17.2" viewBox="0 0 18 17.2"><defs><style>.a{fill:#ffc400;}</style></defs><path class="a" d="M19.976,8.942a.9.9,0,0,0-.773-.6l-5.114-.746L11.8,2.943a.9.9,0,0,0-1.618,0L7.888,7.584,2.774,8.34a.886.886,0,0,0-.5,1.511l3.712,3.6-.9,5.109a.9.9,0,0,0,1.3.962l4.6-2.4,4.584,2.41a.835.835,0,0,0,.413.108.9.9,0,0,0,.89-1.07l-.9-5.109,3.712-3.6A.9.9,0,0,0,19.976,8.942Zm-5.527,3.6a.9.9,0,0,0-.261.8l.647,3.768-3.379-1.8a.9.9,0,0,0-.845,0l-3.379,1.8.647-3.768a.9.9,0,0,0-.261-.8l-2.7-2.7,3.784-.549A.9.9,0,0,0,9.389,8.8l1.6-3.427,1.69,3.436a.9.9,0,0,0,.683.495l3.784.549Z" transform="translate(-2.006 -2.436)"/></svg>