<svg xmlns="http://www.w3.org/2000/svg" width="12" height="11.4" viewBox="0 0 12 11.4"><defs><style>.a{fill:#faab13;}</style></defs><path class="a" d="M13.986,6.748a.6.6,0,0,0-.515-.4l-3.409-.495L8.534,2.772a.6.6,0,0,0-1.079,0L5.927,5.848l-3.409.5a.586.586,0,0,0-.336,1L4.657,9.735l-.6,3.386a.6.6,0,0,0,.24.6.6.6,0,0,0,.629.042l3.068-1.592,3.056,1.6a.559.559,0,0,0,.276.072.6.6,0,0,0,.354-.113.6.6,0,0,0,.24-.6l-.6-3.386,2.475-2.384A.594.594,0,0,0,13.986,6.748Z" transform="translate(-2.006 -2.436)"/></svg>