<svg id="Layer_1" data-name="Layer 1" xmlns="http://www.w3.org/2000/svg" xmlns:xlink="http://www.w3.org/1999/xlink" viewBox="0 0 24 24" fill="#004579"><defs><style>.cls-1{opacity:0;}.cls-2{clip-path:url(#clip-path);}</style><clipPath id="clip-path"><rect class="cls-1" width="24" height="24"/></clipPath></defs><rect class="cls-1" width="24" height="24"/><g class="cls-2"><path d="M22,7.8V7.6h0l-2-5A1.1,1.1,0,0,0,19,2H5a.87.87,0,0,0-.9.6l-2,5h0v.2C2,7.9,2,7.9,2,8H2a4,4,0,0,0,2,3.4V21a.94.94,0,0,0,1,1H19a.94.94,0,0,0,1-1V11.4A4,4,0,0,0,22,8h0ZM13,20H11V16h2Zm5,0H15V15a.94.94,0,0,0-1-1H10a.94.94,0,0,0-1,1v5H6V12a3.89,3.89,0,0,0,3-1.4,4,4,0,0,0,5.6.4l.4-.4A3.89,3.89,0,0,0,18,12Zm0-10a2,2,0,0,1-2-2,1,1,0,0,0-2,0,2,2,0,0,1-4,0A.94.94,0,0,0,9,7,.94.94,0,0,0,8,8a2.08,2.08,0,0,1-1.9,2.1A2,2,0,0,1,4,8.1L5.7,4H18.3L20,8.1A2.05,2.05,0,0,1,18,10Z"/></g></svg>