<?xml version="1.0" encoding="utf-8"?>
<!-- Generator: Adobe Illustrator 25.4.1, SVG Export Plug-In . SVG Version: 6.00 Build 0)  -->
<svg version="1.1" id="Layer_1" xmlns="http://www.w3.org/2000/svg" xmlns:xlink="http://www.w3.org/1999/xlink" x="0px" y="0px"
	 viewBox="0 0 24 24" style="enable-background:new 0 0 24 24;" xml:space="preserve">
<style type="text/css">
	.st0{clip-path:url(#SVGID_00000115475018269161021640000015965064353514000816_);fill:#32CC3E;}
</style>
<g>
	<defs>
		<path id="SVGID_1_" d="M0,0h24v24H0V0z"/>
	</defs>
	<clipPath id="SVGID_00000121253890953542326420000003746942755730286746_">
		<use xlink:href="#SVGID_1_"  style="overflow:visible;"/>
	</clipPath>
	<path style="clip-path:url(#SVGID_00000121253890953542326420000003746942755730286746_);fill:#32CC3E;" d="M13.3,12.2
		c1.1-0.9,1.7-2.3,1.7-3.7c0-2.8-2.2-5-5-5s-5,2.2-5,5c0,1.4,0.6,2.8,1.7,3.7C3.8,13.5,2,16.4,2,19.5c0,0.6,0.4,1,1,1s1-0.4,1-1
		c0-3.3,2.7-6,6-6s6,2.7,6,6c0,0.6,0.4,1,1,1s1-0.4,1-1C18,16.4,16.2,13.5,13.3,12.2z M10,11.5c-1.7,0-3-1.3-3-3s1.3-3,3-3
		s3,1.3,3,3S11.7,11.5,10,11.5z M21.7,9.1c-0.4-0.4-1-0.4-1.4,0l0,0l-2,2l-0.6-0.6c-0.4-0.4-1-0.4-1.4,0l0,0c-0.4,0.4-0.4,1,0,1.4
		l1.3,1.3c0.4,0.4,1,0.4,1.4,0l2.7-2.7C22.1,10.2,22.1,9.6,21.7,9.1C21.7,9.2,21.7,9.1,21.7,9.1z"/>
</g>
</svg>
