<svg xmlns="http://www.w3.org/2000/svg" width="14.101" height="13.441" viewBox="0 0 14.101 13.441"><defs><style>.a{fill:#162944;}</style></defs><g transform="translate(0 -10.67)"><g transform="translate(9.04 20.818)"><path class="a" d="M294,338.862a1.647,1.647,0,1,0,1.647,1.647A1.666,1.666,0,0,0,294,338.862Z" transform="translate(-292.352 -338.862)"/></g><g transform="translate(0 10.67)"><path class="a" d="M13.584,12.966c-.032,0-.079-.016-.127-.016H3.483l-.158-1.061A1.418,1.418,0,0,0,1.916,10.67H.633a.633.633,0,1,0,0,1.267H1.916a.168.168,0,0,1,.158.142l.982,6.681a1.736,1.736,0,0,0,1.71,1.472h6.586a1.759,1.759,0,0,0,1.71-1.393l1.029-5.145A.626.626,0,0,0,13.584,12.966Z" transform="translate(0 -10.67)"/></g><g transform="translate(3.434 20.818)"><path class="a" d="M114.285,340.429a1.637,1.637,0,0,0-1.631-1.567,1.656,1.656,0,0,0-1.583,1.71,1.623,1.623,0,0,0,1.615,1.567h.032A1.643,1.643,0,0,0,114.285,340.429Z" transform="translate(-111.07 -338.862)"/></g></g></svg>