<svg xmlns="http://www.w3.org/2000/svg" width="18" height="18" viewBox="0 0 18 18"><defs><style>.a{fill:#ffc400;}</style></defs><path class="a" d="M9.2,11.9H2.9a.9.9,0,0,0-.9.9v6.3a.9.9,0,0,0,.9.9H9.2a.9.9,0,0,0,.9-.9V12.8A.9.9,0,0,0,9.2,11.9Zm-.9,6.3H3.8V13.7H8.3ZM19.1,2H12.8a.9.9,0,0,0-.9.9V9.2a.9.9,0,0,0,.9.9h6.3a.9.9,0,0,0,.9-.9V2.9A.9.9,0,0,0,19.1,2Zm-.9,6.3H13.7V3.8h4.5Zm.9,3.6H12.8a.9.9,0,0,0-.9.9v6.3a.9.9,0,0,0,.9.9h6.3a.9.9,0,0,0,.9-.9V12.8A.9.9,0,0,0,19.1,11.9Zm-.9,6.3H13.7V13.7h4.5ZM9.2,2H2.9a.9.9,0,0,0-.9.9V9.2a.9.9,0,0,0,.9.9H9.2a.9.9,0,0,0,.9-.9V2.9A.9.9,0,0,0,9.2,2ZM8.3,8.3H3.8V3.8H8.3Z" transform="translate(-2 -2)"/></svg>