<svg id="Layer_1" data-name="Layer 1" xmlns="http://www.w3.org/2000/svg" xmlns:xlink="http://www.w3.org/1999/xlink" viewBox="0 0 24 24" fill="#ffffff"><defs><style>.cls-1{opacity:0;}.cls-2{clip-path:url(#clip-path);}</style><clipPath id="clip-path"><rect class="cls-1" width="24" height="24"/></clipPath></defs><rect class="cls-1" width="24" height="24"/><g class="cls-2"><path d="M4,12.76V11.5H3a1,1,0,0,1-1-1H2a1,1,0,0,1,1-1H8.37l2.83-2h3.49l-1.09-3H12a1,1,0,0,1-1-1h0a1,1,0,0,1,1-1h2.3a1,1,0,0,1,.94.66l.85,2.34H18.5A1.5,1.5,0,0,1,20,7h0a1.5,1.5,0,0,1-1.5,1.5H17.19l1.45,4A4.51,4.51,0,0,1,23,17.14a4.58,4.58,0,0,1-4.65,4.36,4.5,4.5,0,0,1-1.69-8.61L15.42,9.5h-.95l-1.58,5.87h0L10,16.44a4.5,4.5,0,1,1-6-3.68Zm2-.23a4.47,4.47,0,0,1,3.28,2l2-.71L12.4,9.5h-.54L9,11.5H6Zm-.5,7A2.5,2.5,0,1,0,3,17,2.5,2.5,0,0,0,5.5,19.5Zm13,0A2.5,2.5,0,1,0,16,17,2.5,2.5,0,0,0,18.5,19.5Z"/></g></svg>