<?xml version="1.0" encoding="utf-8"?>
<!-- Generator: Adobe Illustrator 21.0.0, SVG Export Plug-In . SVG Version: 6.00 Build 0)  -->
<svg version="1.1" id="Layer_1" xmlns:svgjs="http://svgjs.com/svgjs"
	 xmlns="http://www.w3.org/2000/svg" xmlns:xlink="http://www.w3.org/1999/xlink" x="0px" y="0px" viewBox="0 0 512 512"
	 style="enable-background:new 0 0 512 512;" xml:space="preserve">
<style type="text/css">
	.st0{fill:#71A1CC;stroke:#000000;stroke-miterlimit:10;}
	.st1{fill:#78B3E7;}
	.st2{fill:#FFE5CF;}
	.st3{fill:#FBB8B0;}
	.st4{fill:#508AFA;}
	.st5{fill:#FFDD24;}
	.st6{display:none;}
	.st7{display:none;fill:#FF2424;}
</style>
<circle class="st0" cx="254" cy="257" r="227"/>
<g>
	<g id="Filled_stroke_cut_Ex">
		<g>
			<path class="st1" d="M400,312l54.4,54.4c11.3,11.3,17.6,26.5,17.6,42.4V458c0,16.6-13.4,30-30,30l0,0h-26v-56h-16V312z"/>
			<path class="st1" d="M120,464V304l88-56h96l88,56v160H120z"/>
			<path class="st2" d="M304,248l-48,48l-48-48l8-32h80L304,248z"/>
			<path class="st3" d="M299,228.1l-3-12.1h-80l-3.1,12.3l26.9,13.5c10.2,5.1,22.2,5.1,32.4-0.1L299,228.1z"/>
			<path class="st2" d="M332,120h-12V88H192v32h-12c-11,0-20,9-20,20v8c0,11,9,20,20,20h12v13.5c0,11.4,6.4,21.8,16.6,26.8
				l38.4,19.2c5.7,2.8,12.3,2.8,18,0l38.6-19.5c10.1-5.1,16.4-15.5,16.4-26.8V168h12c11,0,20-9,20-20v-8C352,129,343,120,332,120z"
				/>
			<g>
				<path d="M216,128h16v16h-16V128z"/>
				<path d="M280,128h16v16h-16V128z"/>
			</g>
			<path d="M256,200c-13.5,0-24-8.8-24-20h16c0,1.4,3,4,8,4c5,0,8-2.6,8-4h16C280,191.2,269.5,200,256,200z"/>
			<path class="st1" d="M234,24h44c27.6,0,50,22.4,50,50v14l0,0H184l0,0V74C184,46.4,206.4,24,234,24z"/>
			<path class="st4" d="M296.9,115.3l-18.7-12.5c-13.4-9-30.9-9-44.4,0l-18.7,12.5c-9.2,6.1-21.6,3.6-27.7-5.5
				c-2.2-3.3-3.4-7.1-3.4-11.1V88l33.1-18.4c24.2-13.4,53.5-13.4,77.7,0L328,88v10.6c0,11-9,20-20,20
				C304.1,118.6,300.2,117.5,296.9,115.3z"/>
			<path class="st4" d="M112,280h288v208H112V280z"/>
			<path class="st2" d="M128,432H96v56h88C184,457.1,158.9,432,128,432z"/>
			<path class="st5" d="M224,280h64v72h-64V280z"/>
			<path class="st5" d="M224,440h64v48h-64V440z"/>
			<path class="st1" d="M112,312l-54.4,54.4C46.3,377.7,40,392.9,40,408.9V458c0,16.6,13.4,30,30,30l0,0h26v-56h16V312z"/>
			<path class="st2" d="M384,432h32v56h-88C328,457.1,353.1,432,384,432z"/>
			<path class="st6" d="M136,304h16v16h-16V304z"/>
			<path class="st6" d="M168,304h32v16h-32V304z"/>
			<path class="st7" d="M340,312h28l0,0v20c0,11-9,20-20,20h-28l0,0v-20C320,321,329,312,340,312z"/>
			<path class="st6" d="M348,360h-28c-4.4,0-8-3.6-8-8v-20c0-15.5,12.5-28,28-28h28c4.4,0,8,3.6,8,8v20C376,347.5,363.5,360,348,360
				z M328,344h20c6.6,0,12-5.4,12-12v-12h-20c-6.6,0-12,5.4-12,12V344z"/>
			<path d="M460.1,360.8l-30.4-30.4l-11.3,11.3l30.4,30.4c9.8,9.7,15.3,23,15.2,36.8V458c0,12.1-9.9,22-22,22h-18v-40h16v-16h-32
				V280c0-4.4-3.6-8-8-8h-43.4L311,243l-6.6-26.5l2.8-1.4c12.8-6.4,20.9-19.6,20.8-33.9V176h4c15.5,0,28-12.5,28-28v-8
				c0-15.2-12.2-27.6-27.4-28c2.2-4.1,3.4-8.7,3.4-13.4V74c0-32-26-58-58-58h-44c-32,0-58,26-58,58v24.6c0,4.7,1.2,9.3,3.4,13.4
				c-15.2,0.3-27.4,12.8-27.4,28v8c0,15.5,12.5,28,28,28h4v5.5c0,14.4,8.1,27.6,21,34l2.6,1.3L201,243l-45.6,29H112
				c-4.4,0-8,3.6-8,8v28.7l-29.7,29.7l11.3,11.3l18.3-18.3V424H72v16h16v40H70c-12.1,0-22-9.9-22-22v-49.1c0-13.8,5.4-27,15.2-36.8
				l6.4-6.4l-11.3-11.3l-6.4,6.4c-12.8,12.7-20,30-19.9,48.1V458c0,21,17,38,38,38h372c21,0,38-17,38-38v-49.1
				C480,390.8,472.9,373.5,460.1,360.8L460.1,360.8z M232,288h48v56h-48L232,288z M291.3,272l13.8-13.8l21.7,13.8H291.3z
				 M198.3,109.2c-3.9-2.1-6.4-6.1-6.3-10.6v-5.9l29-16.1c21.7-12.2,48.2-12.2,69.9,0l29,16.1v5.9c0,6.6-5.4,12-12,12
				c-2.4,0-4.7-0.7-6.7-2l-18.7-12.5c-16.1-10.8-37.1-10.8-53.3,0l-18.7,12.5C207,111.1,202.2,111.3,198.3,109.2L198.3,109.2z
				 M344,140v8c0,6.6-5.4,12-12,12h-4v-32h4C338.6,128,344,133.4,344,140z M234,32h44c23.2,0,42,18.8,42,42v0.4l-21.3-11.8
				c-26.6-14.9-58.9-14.9-85.5,0L192,74.4V74C192,50.8,210.8,32,234,32z M180,160c-6.6,0-12-5.4-12-12v-8c0-6.6,5.4-12,12-12h4v32
				H180z M200,181.5v-55.1c6.8,1,13.8-0.6,19.5-4.4l18.7-12.5c10.7-7.2,24.8-7.2,35.5,0l18.7,12.5c5.7,3.8,12.7,5.4,19.5,4.4v54.8
				c0,8.3-4.6,15.9-12.1,19.6l-38.6,19.5c-3.4,1.7-7.4,1.7-10.8,0l-38.4-19.2C204.7,197.4,200,189.8,200,181.5L200,181.5z
				 M243.4,234.7c7.9,3.9,17.3,3.9,25.2-0.1l21.1-10.7l5.4,21.7L268.7,272h-25.4l-26.5-26.5l5.4-21.5L243.4,234.7z M206.9,258.2
				l13.8,13.8h-35.5L206.9,258.2z M120,288h96v64c0,4.4,3.6,8,8,8h64c4.4,0,8-3.6,8-8v-64h96v136h-8c-32.2,0-59.4,24-63.5,56H296
				v-40c0-4.4-3.6-8-8-8h-64c-4.4,0-8,3.6-8,8v40h-24.5c-4.1-32-31.3-56-63.5-56h-8L120,288z M104,480v-40h24
				c23.4,0,43.4,16.9,47.3,40H104z M232,480v-32h48v32H232z M408,480h-71.3c3.9-23.1,23.9-40,47.3-40h24V480z"/>
		</g>
	</g>
</g>
</svg>
