<?xml version="1.0" encoding="utf-8"?>
<!-- Generator: Adobe Illustrator 21.0.0, SVG Export Plug-In . SVG Version: 6.00 Build 0)  -->
<svg version="1.1" id="Layer_1" xmlns:svgjs="http://svgjs.com/svgjs"
	 xmlns="http://www.w3.org/2000/svg" xmlns:xlink="http://www.w3.org/1999/xlink" x="0px" y="0px" viewBox="0 0 512 512"
	 style="enable-background:new 0 0 512 512;" xml:space="preserve">
<style type="text/css">
	.st0{fill:#D8ECFE;}
	.st1{fill:#FE646F;}
	.st2{fill:#FD4755;}
	.st3{fill:#C41926;}
	.st4{fill:#FED402;}
	.st5{fill:#FAC600;}
	.st6{fill:#FFFFFF;}
	.st7{fill:#F3F0FF;}
	.st8{fill:#3184DD;}
	.st9{fill:#1574D9;}
	.st10{fill:#8AC1EF;}
	.st11{fill:#D88A55;}
	.st12{fill:#C57A44;}
	.st13{fill:#F6A96C;}
	.st14{fill:#EA9B58;}
</style>
<g>
	<g>
		<path class="st0" d="M256,22C120.7,22,11,131.7,11,267c0,34.7,7.2,67.7,20.2,97.6h1V258c0-2.2,1.8-4,4-4h152c2.2,0,4,1.8,4,4
			v155.8H449l3.9-1C483.1,372,501,321.6,501,267C501,131.7,391.3,22,256,22z"/>
		<g>
			<g>
				<g>
					<g>
						<path class="st1" d="M308,336.9v30.4h45c3.6-13.8,13.6-25.1,26.6-30.4H308z"/>
					</g>
					<path class="st1" d="M488.6,336.9h-74.7c13,5.4,23,16.6,26.6,30.4H481c5.5,0,10-4.5,10-10v-19.4L488.6,336.9z"/>
				</g>
				<path class="st2" d="M472,289.5h18.2l0.8-1v-15.3c0-2.5-0.4-4.9-1.1-7.2l-1.4-1H358.1c-2.2,0-4-1.8-4-4v-57c0-2.2,1.8-4,4-4
					h90.3l0.6-1l-8-12.7c-1.8-2.9-5-4.7-8.5-4.7H326.5v156.3h50.8c5.9-2.8,12.5-4.4,19.4-4.4s13.5,1.6,19.4,4.4H491v-14.4l-0.5-1
					H472c-2.2,0-4-1.8-4-4v-25C468,291.3,469.8,289.5,472,289.5z"/>
				<path class="st3" d="M378.1,200.4l-1-1.4h-19c-2.8,0-5,2.2-5,5v57c0,2.8,2.2,5,5,5h19l1-1.8V200.4z"/>
				<path class="st4" d="M272,93H56c-5.5,0-10,4.5-10,10v151h141.6c2.2,0,4,1.8,4,4v42.2h111.4c2.2,0,4,1.8,4,4v33.7h19.5V149.6
					C322.6,117.9,304.9,92.6,272,93L272,93z"/>
				<path class="st5" d="M88,253V103c0-5.5,4.5-10,10-10H56.1c-5.5,0-10,4.5-10,10v150H88z"/>
				<g>
					<g>
						<path class="st6" d="M265,217.9H108.6c-5.5,0-10-4.5-10-10V161c0-5.5,4.5-10,10-10H265c5.5,0,10,4.5,10,10v46.9
							C275,213.4,270.5,217.9,265,217.9z"/>
					</g>
				</g>
				<path class="st7" d="M130,207.9V161c0-5.5,4.5-10,10-10h-31.4c-5.5,0-10,4.5-10,10v46.9c0,5.5,4.5,10,10,10H140
					C134.5,217.9,130,213.4,130,207.9z"/>
				<path class="st8" d="M366.6,413.8h60.4c9.8-8.5,16.1-21,16.1-35c0-25.5-20.7-46.2-46.2-46.2s-46.2,20.7-46.2,46.2
					C350.5,392.8,356.7,405.3,366.6,413.8L366.6,413.8z"/>
				<path class="st9" d="M365.4,412.8h16.5c-9.2-8.4-14.9-20.6-14.9-34c0-22.7,16.4-41.6,38-45.5c-2.7-0.5-5.4-0.7-8.2-0.7
					c-25.5,0-46.2,20.7-46.2,46.2C350.5,392.2,356.3,404.3,365.4,412.8L365.4,412.8z"/>
				<g>
					<circle class="st10" cx="396.8" cy="378.8" r="24.8"/>
				</g>
				<g>
					<circle class="st6" cx="396.8" cy="378.8" r="13.2"/>
				</g>
				<path class="st7" d="M394,378.8c0-5.4,3.3-10.1,8-12.2c-1.6-0.7-3.4-1.1-5.2-1.1c-7.3,0-13.2,5.9-13.2,13.2s5.9,13.2,13.2,13.2
					c1.9,0,3.6-0.4,5.2-1.1C397.3,388.9,394,384.2,394,378.8z"/>
			</g>
		</g>
		<g>
			<path class="st11" d="M304,299.2H192.2v114.6H309V304.2C309,301.5,306.8,299.2,304,299.2z"/>
			<path class="st12" d="M193.2,299.2h22v113.6h-22V299.2z"/>
			<g>
				<path class="st1" d="M262.1,338.5h-22c-2.8,0-5-2.2-5-5v-34.3h32v34.3C267.1,336.3,264.9,338.5,262.1,338.5z"/>
			</g>
			<path class="st2" d="M248,333.5v-34.3h-12.9v34.3c0,2.8,2.2,5,5,5H253C250.2,338.5,248,336.3,248,333.5z"/>
		</g>
		<g>
			<path class="st3" d="M386.6,292h-30.6c-1.7,0-3-1.3-3-3v-10c0-1.7,1.3-3,3-3h30.6c1.7,0,3,1.3,3,3v10
				C389.6,290.7,388.3,292,386.6,292L386.6,292z"/>
		</g>
		<g>
			<path class="st6" d="M487.2,259.9L448.9,199h-71.9v67h112.9C489.3,263.9,488.4,261.8,487.2,259.9z"/>
		</g>
		<path class="st7" d="M377.1,199h22.1v67h-22.1V199z"/>
		<g>
			<g>
				<path class="st13" d="M193.2,258c0-2.8-2.2-5-5-5h-152c-2.8,0-5,2.2-5,5v106.6c7.5,17.2,16.8,33.3,27.9,48.2l3.9,1h130.2V258z"
					/>
			</g>
			<g>
				<path class="st14" d="M62,258c0-2.8,2.2-5,5-5H36.2c-2.8,0-5,2.2-5,5v106.6c7.5,17.2,16.8,33.3,27.9,48.2l2.9,0.7V258z"/>
			</g>
			<g>
				<path class="st1" d="M127.2,308h-30c-2.8,0-5-2.2-5-5v-50h40v50C132.2,305.8,130,308,127.2,308z"/>
			</g>
			<path class="st2" d="M107,303v-50H92.2v50c0,2.8,2.2,5,5,5H112C109.2,308,107,305.8,107,303z"/>
		</g>
		<g>
			<path class="st8" d="M99.6,450l-5.4,1c43.2,38,99.8,61,161.7,61s118.6-23,161.7-61l-5.4-1H99.6z"/>
		</g>
		<g>
			<path class="st10" d="M59.1,412.8c10.3,14,22.1,26.8,35.2,38.2h323.5c13-11.5,24.8-24.3,35.2-38.2H59.1z"/>
		</g>
		<g>
			<path class="st6" d="M491,288.5h-19c-2.8,0-5,2.2-5,5v25c0,2.8,2.2,5,5,5h19V288.5z"/>
		</g>
	</g>
</g>
</svg>
