<svg height="512" viewBox="0 0 58 59" width="512" xmlns="http://www.w3.org/2000/svg"><g id="012---Social-Media-Injection" fill="none"><path id="Shape" d="m47 59c-.5522847 0-1-.4477153-1-1v-6c0-.5522847.4477153-1 1-1s1 .4477153 1 1v6c0 .5522847-.4477153 1-1 1z" fill="#95a5a5"/><path id="Shape" d="m42 47h10v3c0 1.1045695-.8954305 2-2 2h-6c-1.1045695 0-2-.8954305-2-2z" fill="#35495e"/><path id="Shape" d="m55 18v29c0 .5522847-.4477153 1-1 1h-14c-.5522847 0-1-.4477153-1-1v-29z" fill="#547580"/><path id="Shape" d="m55 23v24c0 .5522847-.4477153 1-1 1h-14c-.5522847 0-1-.4477153-1-1v-24z" fill="#26b99a"/><path id="Shape" d="m30 24v28c0 3.3137085-2.6862915 6-6 6h-18c-3.3137085 0-6-2.6862915-6-6v-28c0-3.3137085 2.6862915-6 6-6 .53043298 0 1.03914081-.2107137 1.41421356-.5857864.37507276-.3750728.58578644-.8837806.58578644-1.4142136v-7h14v7c0 1.1045695.8954305 2 2 2 3.3137085 0 6 2.6862915 6 6z" fill="#547580"/><path id="Shape" d="m30 25v27c0 3.3137085-2.6862915 6-6 6h-18c-3.3137085 0-6-2.6862915-6-6v-27c3.75 0 3.75 2 7.5 2s3.75-2 7.5-2 3.75 2 7.5 2 3.75-2 7.5-2z" fill="#26b99a"/><rect id="Rectangle-path" fill="#3f5c6c" height="10" rx="1" width="16" x="7"/><path id="Shape" d="m12 0v6c0 .55228475-.4477153 1-1 1s-1-.44771525-1-1v-6z" fill="#2c3e50"/><path id="Shape" d="m16 0v6c0 .55228475-.4477153 1-1 1s-1-.44771525-1-1v-6z" fill="#2c3e50"/><path id="Shape" d="m20 0v6c0 .55228475-.4477153 1-1 1s-1-.44771525-1-1v-6z" fill="#2c3e50"/><path id="Rectangle-path" d="m0 31h30v20h-30z" fill="#ecf0f1"/><path id="Shape" d="m15.17 36.76c-.0364679.0588434-.1007725.0946435-.17.0946435s-.1335321-.0358001-.17-.0946435c-.6950353-1.0957934-1.9023725-1.7598288-3.2-1.76-2.07 0-3.63 1.28-3.63 3.84s1.56 3.59 2.59 4.62c.76.74 2.75 2.44 3.78 3.31.3671855.2978732.8928145.2978732 1.26 0 1-.87 3-2.57 3.78-3.31 1-1 2.59-2.05 2.59-4.62s-1.56-3.84-3.63-3.84c-1.2976275.0001712-2.5049647.6642066-3.2 1.76z" fill="#ff5364"/><g fill="#81ccb8"><path id="Shape" d="m48 43c0 .5522847-.4477153 1-1 1h-8v-2h8c.5522847 0 1 .4477153 1 1z"/><path id="Shape" d="m48 38c0 .5522847-.4477153 1-1 1h-8v-2h8c.5522847 0 1 .4477153 1 1z"/><path id="Shape" d="m48 33c0 .5522847-.4477153 1-1 1h-8v-2h8c.5522847 0 1 .4477153 1 1z"/><path id="Shape" d="m48 28c0 .5522847-.4477153 1-1 1h-8v-2h8c.5522847 0 1 .4477153 1 1z"/></g><path id="Rectangle-path" d="m43 3h8v13h-8z" fill="#35495e"/><path id="Shape" d="m47 16c-.5522847 0-1-.4477153-1-1v-7c0-.55228475.4477153-1 1-1s1 .44771525 1 1v7c0 .5522847-.4477153 1-1 1z" fill="#2c3e50"/><path id="Shape" d="m54 4h-14c-1.1045695 0-2-.8954305-2-2s.8954305-2 2-2h14c1.1045695 0 2 .8954305 2 2s-.8954305 2-2 2z" fill="#3f5c6c"/><path id="Shape" d="m56 19h-18c-1.1045695 0-2-.8954305-2-2s.8954305-2 2-2h18c1.1045695 0 2 .8954305 2 2s-.8954305 2-2 2z" fill="#3f5c6c"/></g></svg>