<svg id="Layer_1" enable-background="new 0 0 512 512" height="512" viewBox="0 0 512 512" width="512" xmlns="http://www.w3.org/2000/svg"><g><path d="m412.88 255.627-26.055-153.921c-3.65-21.561-22.326-37.342-44.194-37.342h-173.263c-21.868 0-40.544 15.78-44.194 37.342l-26.054 153.921c-4.561 48.845 33.87 91.033 82.928 91.033h147.904c49.058 0 87.49-42.187 82.928-91.033z" fill="#fdc202"/><path d="m217.089 346.656h-35.037c-49.062 0-87.492-42.184-82.937-91.026l26.057-153.922c3.654-21.563 22.323-37.349 44.196-37.349h35.037c-21.873 0-40.543 15.786-44.196 37.349l-26.057 153.922c-4.555 48.842 33.876 91.026 82.937 91.026z" fill="#f0a70a"/><path d="m420.052 474.701c0 16.457-13.334 29.791-29.791 29.791h-268.522c-16.447 0-29.791-13.334-29.791-29.791 0-74.608 60.333-136.113 136.123-136.113h55.859c75.779 0 136.122 61.494 136.122 136.113z" fill="#fff5f4"/><path d="m126.985 474.701c0 16.457 13.344 29.791 29.791 29.791h-35.037c-16.447 0-29.791-13.334-29.791-29.791 0-74.608 60.333-136.113 136.123-136.113h35.037c-75.79 0-136.123 61.504-136.123 136.113z" fill="#ebe0da"/><path d="m222.07 339.382v-50.81h67.86v50.81l-29.817 97.298c-1.243 4.055-6.983 4.055-8.226 0z" fill="#ffdecf"/><circle cx="159.989" cy="212.155" fill="#ffcdbe" r="38.349"/><circle cx="352.011" cy="212.161" fill="#ffcdbe" r="38.349"/><path d="m357.717 170.171c0 72.119.378 71.523-.831 78.653-3.874 23.565-21.022 44.717-40.583 60.564-22.273 18.039-47.71 29.201-60.303 29.201-23.665 0-92.587-39.361-100.896-89.764-1.131-6.903-.821-2.013-.821-106.992.01-5.446 5.706-9.04 10.671-6.817 26.388 11.802 102.538 24.546 185.455 27.589 4.084.148 7.308 3.492 7.308 7.566z" fill="#ffeee5"/><path d="m347.22 35.681c-57.663-37.576-123.27-37.651-181.049 0-3.105 2.023-4.084 6.128-2.279 9.365l25.965 51.79c2.52 5.027 8.409 7.436 13.69 5.506 35.647-13.025 65.976-14.733 106.296 0 5.282 1.93 11.17-.479 13.69-5.506l25.965-51.79c1.806-3.237.827-7.342-2.278-9.365z" fill="#82cd64"/><path d="m198.93 45.05 25.507 50.873c-6.837 1.652-13.754 3.804-20.892 6.417-5.275 1.932-11.172-.48-13.684-5.506l-25.968-51.784c-1.802-3.243-.831-7.348 2.282-9.37 34.346-22.383 71.475-31.433 108.043-27.198-24.926 2.883-49.612 11.942-73.007 27.198-3.112 2.022-4.083 6.126-2.281 9.37z" fill="#6dc54a"/><path d="m273.508 334.574c-6.977 2.613-13.044 4.014-17.508 4.014-23.665 0-92.587-39.361-100.896-89.764-1.131-6.907-.821-2.012-.821-106.992.01-5.446 5.706-9.04 10.671-6.817 5.836 2.613 14.115 5.266 24.366 7.858 0 103.909-.31 99.064.821 105.951 6.737 40.893 53.376 74.508 83.367 85.75z" fill="#ffdecf"/><path d="m356.886 248.824c-3.874 23.565-21.022 44.717-40.583 60.564-22.273 18.039-47.71 29.201-60.303 29.201-23.665 0-92.587-39.361-100.896-89.764 20.922 10.391 50.643 18.9 84.429 9.991 9.82-2.583 23.525-2.483 32.935 0 33.775 8.908 63.496.409 84.418-9.992z" fill="#82cd64"/><path d="m273.498 334.574c-5.141 1.941-12.049 4.014-17.498 4.014-23.665 0-92.587-39.361-100.896-89.764 10.691 5.306 23.685 10.131 38.34 12.383 12.864 35.197 53.156 63.276 80.054 73.367z" fill="#6dc54a"/><path d="m273.498 334.574c-5.141 1.941-12.049 4.014-17.498 4.014-23.665 0-92.587-39.361-100.896-89.764 10.691 5.306 23.685 10.131 38.34 12.383 12.864 35.197 53.156 63.276 80.054 73.367z" fill="#6dc54a"/><g><path d="m289.083 200.242c5.854-1.221 24.688-3.372 34.112 2.554 1.242.781 2.623 1.153 3.989 1.153 2.496 0 4.937-1.244 6.363-3.512 2.207-3.511 1.151-8.145-2.359-10.352-16.206-10.19-42.253-5.151-45.17-4.542-4.059.847-6.664 4.823-5.818 8.882.847 4.059 4.824 6.66 8.883 5.817z"/><circle cx="307.794" cy="226.78" r="12.052"/><circle cx="204.206" cy="226.78" r="12.052"/><path d="m225.982 185.542c-2.917-.609-28.965-5.648-45.17 4.542-3.51 2.207-4.567 6.842-2.359 10.352 1.426 2.269 3.867 3.512 6.363 3.512 1.365 0 2.748-.372 3.989-1.153 9.413-5.918 27.816-3.85 34.118-2.553 4.055.844 8.03-1.762 8.877-5.819.845-4.058-1.759-8.034-5.818-8.881z"/><path d="m239.168 58.122h9.324v9.324c0 4.146 3.361 7.508 7.508 7.508 4.146 0 7.508-3.361 7.508-7.508v-9.324h9.324c4.146 0 7.508-3.361 7.508-7.508s-3.361-7.508-7.508-7.508h-9.324v-9.324c0-4.146-3.361-7.508-7.508-7.508-4.146 0-7.508 3.361-7.508 7.508v9.324h-9.324c-4.146 0-7.508 3.361-7.508 7.508s3.361 7.508 7.508 7.508z"/><path d="m367.335 443.929h-63.4c-4.146 0-7.508 3.361-7.508 7.508 0 4.146 3.361 7.508 7.508 7.508h63.4c4.146 0 7.508-3.361 7.508-7.508s-3.361-7.508-7.508-7.508z"/><path d="m356.005 350.4c14.936-4.425 28.51-12.693 39.612-24.316 2.863-3.003 2.753-7.758-.25-10.621-2.993-2.863-7.748-2.753-10.611.25-14.065 14.736-32.915 23.004-53.226 23.415-10.791-3.784-22.093-6.267-33.685-7.388 28.288-16.313 57.082-43.408 65.178-75.069 19.626-4.847 34.847-22.583 34.847-44.737 8.098 47.858 7.868 44.944 7.868 51.564 0 10.221-2.022 20.151-6.016 29.521-1.632 3.814.15 8.229 3.964 9.85 3.871 1.653 8.239-.19 9.85-3.954 6.675-15.664 8.451-33.764 6.747-44.547l-26.057-153.912c-3.764-22.263-21.062-39.141-42.635-42.845 5.036-10.038 6.307-11.735 6.307-16.007 0-4.785-2.342-9.46-6.577-12.213-60.133-39.191-129.116-39.191-189.249 0-6.327 4.114-8.419 12.493-4.825 19.14l4.445 8.879.005.009c-22.176 3.242-40.082 20.337-43.924 43.031-.073.431-26.087 154.041-26.127 154.476-3.987 42.697 22.551 82.885 64.412 95.42-1.925 1.283-17.348 9.405-33.476 26.869-2.813 3.043-2.623 7.798.431 10.611 3.068 2.834 7.831 2.603 10.601-.43 21.119-22.863 50.068-37.891 82.817-40.783l32.064 104.6v45.768h-126.756c-12.283 0-22.283-10-22.283-22.283 0-22.664 5.996-44.977 17.338-64.508 2.082-3.594.861-8.189-2.723-10.271s-8.179-.861-10.261 2.723c-12.673 21.833-19.37 46.739-19.37 72.056 0 20.572 16.728 37.299 37.299 37.299h268.522c20.572 0 37.299-16.728 37.299-37.299 0-52.166-28.021-98.997-71.555-124.298zm9.22-110.375v-55.729c23.433 11.153 23.501 44.543 0 55.729zm-22.464-198.289-25.937 51.734c-.831 1.652-2.723 2.433-4.405 1.822-39.546-14.462-71.864-14.476-111.447 0-1.682.611-3.574-.17-4.405-1.822l-25.937-51.734c54.718-35.477 117.414-35.477 172.131 0zm-210.184 61.224c3.026-17.876 18.287-30.88 36.373-31.078l14.193 28.316c4.254 8.479 14.135 12.423 22.984 9.19 63.136-23.066 94.085 1.131 107.473 1.131 6.857 0 13.394-3.834 16.647-10.321l14.175-28.28c17.478.821 32.054 13.614 34.997 31.043l15.957 94.279c-4.815-13.935-16.167-24.856-30.372-29.061-1.181-6.927-7.047-12.223-14.315-12.493-31.433-1.151-63.777-3.804-93.538-7.658-4.124-.54-7.878 2.363-8.419 6.477-.531 4.114 2.372 7.878 6.487 8.409 48.978 6.354 94.99 7.848 94.99 7.848 0 109.242.063 48.044-.17 73.014-18.359 8.464-45.269 15.795-75.656 7.779-10.807-2.852-25.923-2.852-36.765 0-30.381 8.011-57.287.687-75.646-7.775-.266-3.195-.18 3.738-.18-101.249l-.03-.04c.02-.02.07-.05.13-.03 15.817 7.067 43.165 12.603 63.326 16.007 4.094.691 7.958-2.072 8.649-6.157.691-4.084-2.062-7.958-6.156-8.649-27.279-4.605-48.471-9.901-59.693-14.916-10.017-4.469-21.216 2.879-21.242 13.664v25.827c-14.515 4.381-25.659 15.694-30.16 29.018zm14.198 81.326v55.739c-10.411-4.955-17.628-15.586-17.628-27.869s7.217-22.915 17.628-27.87zm33.708 154.825c-43.937-.915-77.829-38.869-73.913-82.514l7.561-44.668c0 22.127 15.189 39.887 34.846 44.742 8.159 31.944 37.71 59.182 65.148 75.079-11.592 1.11-22.866 3.587-33.642 7.361zm-14.024-77.236c24.378 8.952 49.869 10.825 74.983 4.201 8.312-2.186 20.827-2.186 29.111-.001 29.018 7.651 55.091 3.1 74.957-4.189-14.88 35.927-61.619 64.672-84.395 69.195h-10.341c-22.051-4.38-69.33-32.736-84.315-69.206zm63.614 77.964c20.442 8.86 31.157 9.03 51.854.01l-25.927 84.629zm160.188 157.145h-126.753v-45.768l32.064-104.61c65.897 5.889 116.973 60.85 116.973 128.094-.001 12.284-10.001 22.284-22.284 22.284z"/></g></g></svg>