<svg id="Capa_1" enable-background="new 0 0 512 512" height="512" viewBox="0 0 512 512" width="512" xmlns="http://www.w3.org/2000/svg"><g><g><path d="m102.998 0h15.673v123.924h-15.673z" fill="#d5e7ff"/></g><g><path d="m117.998 0h15v123.924h-15z" fill="#acceff"/></g><path d="m316.339 196.974v55.417l-49.133 64.217v195.392h110.359l15.722-315.026z" fill="#eaf1ff"/><g><g><g><path d="m55.561 108.924h74.115v307.199h-74.115z" fill="#eaf1ff"/><path d="m118.671 108.924h61.764v307.199h-61.764z" fill="#d5e7ff"/><g><path d="m129.676 497h-64.508v-80.877h64.508z" fill="#f5d844"/></g><g><path d="m170.827 497h-52.156v-80.877h52.156z" fill="#ecbd2c"/></g></g><g><g><path d="m118.671 181.974h61.764v30h-61.764z" fill="#acceff"/></g><g><path d="m118.671 255.023h61.764v30h-61.764z" fill="#acceff"/></g><g><path d="m118.671 328.073h61.764v30h-61.764z" fill="#acceff"/></g></g></g><path d="m438.791 252.391v-55.417h-61.226v315.026h110.359v-195.392z" fill="#d5e7ff"/><path d="m267.206 316.608h117.473v129.449h-117.473z" fill="#f5d844"/><path d="m377.565 316.608h110.359v129.449h-110.359z" fill="#ecbd2c"/></g><path d="m292.065 140.81h92.615v69.38h-92.615z" fill="#6b66d0"/><path d="m377.565 140.81h85.5v69.38h-85.5z" fill="#524798"/><g><path d="m24.076 401.123h105.6v30h-105.6z" fill="#d5e7ff"/></g><g><path d="m118.671 401.123h93.248v30h-93.248z" fill="#acceff"/></g><g><path d="m41.034 482h88.642v30h-88.642z" fill="#ecbd2c"/></g><g><path d="m118.671 482h76.29v30h-76.29z" fill="#e68f21"/></g></g></svg>