<svg xmlns="http://www.w3.org/2000/svg" viewBox="0 0 424.09 92.73"><defs><style>.cls-1{fill:#ffe000;}.cls-2{fill:#e50047;}</style></defs><g id="Layer_2" data-name="Layer 2"><g id="Layer_1-2" data-name="Layer 1"><polygon class="cls-1" points="44.1 54.33 30.31 36.99 0 37.08 44.28 92.73 74.61 92.73 44.1 54.33"/><path class="cls-2" d="M45.16,55.65H47.4A27.83,27.83,0,0,0,46.45,0H.88L30.31,37,44.1,54.33Z"/><path class="cls-2" d="M111.87,27.49a30.44,30.44,0,1,0,30.44,30.44A30.45,30.45,0,0,0,111.87,27.49Zm0,44.49a14.06,14.06,0,1,1,14.06-14.05A14.05,14.05,0,0,1,111.87,72Z"/><path class="cls-2" d="M243.24,27.49a30.44,30.44,0,1,0,30.44,30.44A30.44,30.44,0,0,0,243.24,27.49Zm0,44.49A14.06,14.06,0,1,1,257.3,57.93,14,14,0,0,1,243.24,72Z"/><path class="cls-2" d="M308.93,27.49a30.44,30.44,0,1,0,30.44,30.44A30.44,30.44,0,0,0,308.93,27.49Zm0,44.49A14.06,14.06,0,1,1,323,57.93,14,14,0,0,1,308.93,72Z"/><path class="cls-2" d="M177.56,27.51a30.31,30.31,0,0,0-13.71,3.25V.19L147.11,5.35V58c0,.52,0,1,0,1.55a30.44,30.44,0,1,0,30.41-32Zm0,44.49a14.06,14.06,0,1,1,14.06-14A14,14,0,0,1,177.55,72Z"/><path class="cls-2" d="M424.09,43.94V27.53H409.41V9.5L393,14.66V58.91h0a30.43,30.43,0,0,0,27.33,29.34v.16h3.74V72h-.66a14,14,0,0,1-14-13.52V43.94Z"/><path class="cls-2" d="M344.21,46.05a20.35,20.35,0,0,0,20.32,20.32h4.67a1.93,1.93,0,1,1,0,3.86h-25V87.1h25a18.81,18.81,0,1,0,0-37.61h-4.67a3.45,3.45,0,0,1,0-6.89h23.58V25.73H364.53A20.34,20.34,0,0,0,344.21,46.05Z"/></g></g></svg>