<?xml version="1.0" encoding="utf-8"?>
<!-- Generator: Adobe Illustrator 24.2.1, SVG Export Plug-In . SVG Version: 6.00 Build 0)  -->
<svg version="1.1" id="Layer_1" xmlns="http://www.w3.org/2000/svg" xmlns:xlink="http://www.w3.org/1999/xlink" x="0px" y="0px"
	 viewBox="0 0 56 56" style="enable-background:new 0 0 56 56;" xml:space="preserve">
<style type="text/css">
	.st0{fill:#112A4E;}
	.st1{fill:#FFFFFF;}
	.st2{font-family:'AmpleSoft-Regular5';}
	.st3{font-size:18px;}
</style>
<path class="st0" d="M52.8,25.2c0,11.6-8,21.6-18.8,24.4L27.6,56l-6.4-6.4C10.4,46.8,2.4,36.8,2.4,25.2C2.4,11.3,13.7,0,27.6,0
	S52.8,11.3,52.8,25.2z"/>
<path class="st1" d="M33.5,10.5h-12c-0.3,0-0.6,0.3-0.6,0.6v2.6c0,0.8,0.5,1.5,1.2,1.8v5.9c0,0.4,0.3,0.6,0.6,0.6h9.6
	c0.3,0,0.6-0.3,0.6-0.6v-5.9c0.7-0.3,1.2-1,1.2-1.8v-2.6C34.1,10.8,33.9,10.5,33.5,10.5z M29.4,11.7h1.2v1.9c0,0.4-0.3,0.6-0.6,0.6
	c-0.3,0-0.6-0.3-0.6-0.6C29.4,13.7,29.4,11.7,29.4,11.7z M26.9,11.7h1.2v1.9c0,0.4-0.3,0.6-0.6,0.6c-0.3,0-0.6-0.3-0.6-0.6V11.7z
	 M24.5,11.7h1.2v1.9c0,0.4-0.3,0.6-0.6,0.6s-0.6-0.3-0.6-0.6V11.7z M22.8,14.3c-0.3,0-0.6-0.3-0.6-0.6v-1.9h1.2v1.9
	C23.4,14,23.1,14.3,22.8,14.3z M28.8,20.7h-2.4v-1.3c0-0.7,0.5-1.3,1.2-1.3s1.2,0.6,1.2,1.3C28.8,19.4,28.8,20.7,28.8,20.7z
	 M31.7,20.7h-1.8v-1.3c0-1.4-1.1-2.6-2.4-2.6c-1.3,0-2.4,1.2-2.4,2.6v1.3h-1.8v-5.2c0.2-0.1,0.4-0.2,0.6-0.4c0.7,0.6,1.7,0.6,2.4,0
	c0.7,0.6,1.7,0.6,2.4,0c0.7,0.6,1.7,0.6,2.4,0c0.2,0.2,0.4,0.3,0.6,0.4V20.7z M32.9,13.7c0,0.4-0.3,0.6-0.6,0.6
	c-0.3,0-0.6-0.3-0.6-0.6v-1.9h1.2C32.9,11.7,32.9,13.7,32.9,13.7z M22.9,9.2h9.4c0.3,0,0.6-0.3,0.6-0.6c0-0.4-0.3-0.6-0.6-0.6h-9.4
	c-0.3,0-0.6,0.3-0.6,0.6C22.3,8.9,22.6,9.2,22.9,9.2z"/>
<text transform="matrix(1 0 0 1 19.318 41.1175)" class="st1 st2 st3">16</text>
</svg>
