<?xml version="1.0" encoding="utf-8"?>
<!-- Generator: Adobe Illustrator 24.2.1, SVG Export Plug-In . SVG Version: 6.00 Build 0)  -->
<svg version="1.1" id="Layer_1" xmlns="http://www.w3.org/2000/svg" xmlns:xlink="http://www.w3.org/1999/xlink" x="0px" y="0px"
	 viewBox="0 0 56 56" style="enable-background:new 0 0 56 56;" xml:space="preserve">
<style type="text/css">
	.st0{fill:#112A4E;}
	.st1{fill:#FFFFFF;}
	.st2{font-family:'AmpleSoft-Regular5';}
	.st3{font-size:18px;}
</style>
<path class="st0" d="M52.3,25.2c0,11.6-8,21.6-18.8,24.4L27.1,56l-6.4-6.4C9.9,46.8,1.9,36.8,1.9,25.2C1.9,11.3,13.2,0,27.1,0
	S52.3,11.3,52.3,25.2z"/>
<path class="st1" d="M33.1,10.5h-12c-0.3,0-0.6,0.3-0.6,0.6v2.6c0,0.8,0.5,1.5,1.2,1.8v5.9c0,0.4,0.3,0.6,0.6,0.6h9.6
	c0.3,0,0.6-0.3,0.6-0.6v-5.9c0.7-0.3,1.2-1,1.2-1.8v-2.6C33.7,10.8,33.4,10.5,33.1,10.5z M28.9,11.7h1.2v1.9c0,0.4-0.3,0.6-0.6,0.6
	s-0.6-0.3-0.6-0.6C28.9,13.7,28.9,11.7,28.9,11.7z M26.5,11.7h1.2v1.9c0,0.4-0.3,0.6-0.6,0.6s-0.6-0.3-0.6-0.6V11.7z M24.1,11.7h1.2
	v1.9c0,0.4-0.3,0.6-0.6,0.6c-0.3,0-0.6-0.3-0.6-0.6V11.7z M22.3,14.3c-0.3,0-0.6-0.3-0.6-0.6v-1.9h1.2v1.9
	C22.9,14,22.6,14.3,22.3,14.3z M28.3,20.7h-2.4v-1.3c0-0.7,0.5-1.3,1.2-1.3c0.7,0,1.2,0.6,1.2,1.3C28.3,19.4,28.3,20.7,28.3,20.7z
	 M31.3,20.7h-1.8v-1.3c0-1.4-1.1-2.6-2.4-2.6c-1.3,0-2.4,1.2-2.4,2.6v1.3h-1.8v-5.2c0.2-0.1,0.4-0.2,0.6-0.4c0.7,0.6,1.7,0.6,2.4,0
	c0.7,0.6,1.7,0.6,2.4,0c0.7,0.6,1.7,0.6,2.4,0c0.2,0.2,0.4,0.3,0.6,0.4V20.7z M32.5,13.7c0,0.4-0.3,0.6-0.6,0.6
	c-0.3,0-0.6-0.3-0.6-0.6v-1.9h1.2C32.5,11.7,32.5,13.7,32.5,13.7z M22.5,9.2h9.4c0.3,0,0.6-0.3,0.6-0.6c0-0.4-0.3-0.6-0.6-0.6h-9.4
	c-0.3,0-0.6,0.3-0.6,0.6C21.9,8.9,22.2,9.2,22.5,9.2z"/>
<text transform="matrix(1 0 0 1 19.318 41.1175)" class="st1 st2 st3">17</text>
</svg>
