<?xml version="1.0" encoding="utf-8"?>
<!-- Generator: Adobe Illustrator 24.3.0, SVG Export Plug-In . SVG Version: 6.00 Build 0)  -->
<svg version="1.1" id="Layer_1" xmlns="http://www.w3.org/2000/svg" xmlns:xlink="http://www.w3.org/1999/xlink" x="0px" y="0px"
	 viewBox="0 0 56 56" style="enable-background:new 0 0 56 56;" xml:space="preserve">
<style type="text/css">
	.st0{fill:#112A4E;}
	.st1{fill:#FFFFFF;}
</style>
<path class="st0" d="M53.2,25.2c0,11.6-8,21.6-18.8,24.4L28,56l-6.4-6.4C10.8,46.8,2.8,36.8,2.8,25.2C2.8,11.3,14.1,0,28,0
	S53.2,11.3,53.2,25.2z"/>
<path class="st1" d="M38.9,17.4H17.1c-0.6,0-1.1,0.5-1.1,1.1v4.4c0,1.4,0.9,2.6,2.2,3.1v10c0,0.6,0.5,1.1,1.1,1.1h17.5
	c0.6,0,1.1-0.5,1.1-1.1v-10c1.3-0.5,2.2-1.7,2.2-3.1v-4.4C40,17.9,39.5,17.4,38.9,17.4z M31.3,19.5h2.2v3.3c0,0.6-0.5,1.1-1.1,1.1
	s-1.1-0.5-1.1-1.1V19.5z M26.9,19.5h2.2v3.3c0,0.6-0.5,1.1-1.1,1.1s-1.1-0.5-1.1-1.1V19.5z M22.5,19.5h2.2v3.3
	c0,0.6-0.5,1.1-1.1,1.1s-1.1-0.5-1.1-1.1V19.5z M19.3,23.9c-0.6,0-1.1-0.5-1.1-1.1v-3.3h2.2v3.3C20.4,23.4,19.9,23.9,19.3,23.9z
	 M30.2,34.8h-4.4v-2.2c0-1.2,1-2.2,2.2-2.2s2.2,1,2.2,2.2V34.8z M35.6,34.8h-3.3v-2.2c0-2.4-2-4.4-4.4-4.4s-4.4,2-4.4,4.4v2.2h-3.3
	v-8.9c0.4-0.1,0.8-0.4,1.1-0.7c1.2,1.1,3.1,1.1,4.4,0c1.2,1.1,3.1,1.1,4.4,0c1.2,1.1,3.1,1.1,4.4,0c0.3,0.3,0.7,0.5,1.1,0.7V34.8z
	 M37.8,22.8c0,0.6-0.5,1.1-1.1,1.1c-0.6,0-1.1-0.5-1.1-1.1v-3.3h2.2V22.8z M19.6,15.2h17.1c0.6,0,1.1-0.5,1.1-1.1S37.3,13,36.7,13
	H19.6c-0.6,0-1.1,0.5-1.1,1.1S19,15.2,19.6,15.2z"/>
</svg>
