<?xml version="1.0" encoding="utf-8"?>
<!-- Generator: Adobe Illustrator 21.0.0, SVG Export Plug-In . SVG Version: 6.00 Build 0)  -->
<svg version="1.1" id="Layer_1" xmlns="http://www.w3.org/2000/svg" xmlns:xlink="http://www.w3.org/1999/xlink" x="0px" y="0px"
	 viewBox="0 0 56 56" style="enable-background:new 0 0 56 56;" xml:space="preserve">
<style type="text/css">
	.st0{fill:#112A4E;}
	.st1{fill:#FFFFFF;}
	.st2{font-family:'AmpleSoft-Regular5';}
	.st3{font-size:18px;}
</style>
<path class="st0" d="M52.5,25.2c0,11.6-8,21.6-18.8,24.4L27.3,56l-6.4-6.4C10.1,46.8,2.1,36.8,2.1,25.2C2.1,11.3,13.4,0,27.3,0
	S52.5,11.3,52.5,25.2z"/>
<path class="st1" d="M33.3,10.5h-12c-0.3,0-0.6,0.3-0.6,0.6v2.6c0,0.8,0.5,1.5,1.2,1.8v5.9c0,0.4,0.3,0.6,0.6,0.6h9.6
	c0.3,0,0.6-0.3,0.6-0.6v-5.9c0.7-0.3,1.2-1,1.2-1.8v-2.6C33.9,10.8,33.6,10.5,33.3,10.5z M29.1,11.7h1.2v1.9c0,0.4-0.3,0.6-0.6,0.6
	s-0.6-0.3-0.6-0.6C29.1,13.7,29.1,11.7,29.1,11.7z M26.7,11.7h1.2v1.9c0,0.4-0.3,0.6-0.6,0.6s-0.6-0.3-0.6-0.6V11.7z M24.3,11.7h1.2
	v1.9c0,0.4-0.3,0.6-0.6,0.6c-0.3,0-0.6-0.3-0.6-0.6V11.7z M22.5,14.3c-0.3,0-0.6-0.3-0.6-0.6v-1.9h1.2v1.9
	C23.1,14,22.9,14.3,22.5,14.3z M28.5,20.7h-2.4v-1.3c0-0.7,0.5-1.3,1.2-1.3s1.2,0.6,1.2,1.3C28.5,19.4,28.5,20.7,28.5,20.7z
	 M31.5,20.7h-1.8v-1.3c0-1.4-1.1-2.6-2.4-2.6s-2.4,1.2-2.4,2.6v1.3H23v-5.2c0.2-0.1,0.4-0.2,0.6-0.4c0.7,0.6,1.7,0.6,2.4,0
	c0.7,0.6,1.7,0.6,2.4,0c0.7,0.6,1.7,0.6,2.4,0c0.2,0.2,0.4,0.3,0.6,0.4v5.2H31.5z M32.7,13.7c0,0.4-0.3,0.6-0.6,0.6
	s-0.6-0.3-0.6-0.6v-1.9h1.2C32.7,11.7,32.7,13.7,32.7,13.7z M22.7,9.2h9.4c0.3,0,0.6-0.3,0.6-0.6c0-0.4-0.3-0.6-0.6-0.6h-9.4
	c-0.3,0-0.6,0.3-0.6,0.6C22.1,8.9,22.4,9.2,22.7,9.2z"/>
<text transform="matrix(1 0 0 1 22.6774 41.1175)" class="st1 st2 st3">2</text>
</svg>
