<?xml version="1.0" encoding="utf-8"?>
<!-- Generator: Adobe Illustrator 24.2.1, SVG Export Plug-In . SVG Version: 6.00 Build 0)  -->
<svg version="1.1" id="Layer_1" xmlns="http://www.w3.org/2000/svg" xmlns:xlink="http://www.w3.org/1999/xlink" x="0px" y="0px"
	 viewBox="0 0 56 56" style="enable-background:new 0 0 56 56;" xml:space="preserve">
<style type="text/css">
	.st0{fill:#FFC400;}
	.st1{fill:#112A4E;}
</style>
<path class="st0" d="M53.2,25.2c0,11.6-8,21.6-18.8,24.4L28,56l-6.4-6.4C10.8,46.8,2.8,36.8,2.8,25.2C2.8,11.3,14.1,0,28,0
	S53.2,11.3,53.2,25.2z"/>
<path class="st1" d="M31.7,24.7c2.6-2,3.1-5.8,1-8.4c-2-2.6-5.8-3.1-8.4-1s-3.1,5.8-1,8.4c0.3,0.4,0.6,0.7,1,1
	c-3.4,1.4-5.8,4.5-6.2,8.2c-0.1,0.6,0.3,1,0.9,1.1s1-0.3,1.1-0.9c0.5-4.4,4.4-7.5,8.8-7.1c3.7,0.4,6.6,3.3,7.1,7.1
	c0.1,0.5,0.5,0.9,1,0.9h0.1c0.5-0.1,0.9-0.6,0.9-1.1C37.5,29.2,35.1,26.1,31.7,24.7z M28,24c-2.2,0-4-1.8-4-4s1.8-4,4-4s4,1.8,4,4
	S30.2,24,28,24z"/>
</svg>
