<?xml version="1.0" encoding="utf-8"?>
<!-- Generator: Adobe Illustrator 25.2.1, SVG Export Plug-In . SVG Version: 6.00 Build 0)  -->
<svg version="1.1" id="Layer_1" xmlns="http://www.w3.org/2000/svg" xmlns:xlink="http://www.w3.org/1999/xlink" x="0px" y="0px"
	 viewBox="0 0 56 56" style="enable-background:new 0 0 56 56;" xml:space="preserve">
<style type="text/css">
	.st0{fill:#112A4E;}
	.st1{fill:#FFFFFF;}
</style>
<path class="st0" d="M53.2,30.8c0-11.6-8-21.6-18.8-24.4L28,0l-6.4,6.4C10.8,9.2,2.8,19.2,2.8,30.8C2.8,44.7,14.1,56,28,56
	S53.2,44.7,53.2,30.8z"/>
<path class="st1" d="M38.9,23.1H17.1c-0.6,0-1.1,0.5-1.1,1.1v4.4c0,1.4,0.9,2.6,2.2,3.1v10c0,0.6,0.5,1.1,1.1,1.1h17.5
	c0.6,0,1.1-0.5,1.1-1.1v-10c1.3-0.5,2.2-1.7,2.2-3.1v-4.4C40,23.6,39.5,23.1,38.9,23.1z M31.3,25.2h2.2v3.3c0,0.6-0.5,1.1-1.1,1.1
	s-1.1-0.5-1.1-1.1C31.3,28.5,31.3,25.2,31.3,25.2z M26.9,25.2h2.2v3.3c0,0.6-0.5,1.1-1.1,1.1s-1.1-0.5-1.1-1.1V25.2z M22.5,25.2h2.2
	v3.3c0,0.6-0.5,1.1-1.1,1.1s-1.1-0.5-1.1-1.1V25.2z M19.3,29.6c-0.6,0-1.1-0.5-1.1-1.1v-3.3h2.2v3.3C20.4,29.1,19.9,29.6,19.3,29.6z
	 M30.2,40.5h-4.4v-2.2c0-1.2,1-2.2,2.2-2.2s2.2,1,2.2,2.2C30.2,38.3,30.2,40.5,30.2,40.5z M35.6,40.5h-3.3v-2.2c0-2.4-2-4.4-4.4-4.4
	s-4.4,2-4.4,4.4v2.2h-3.3v-8.9c0.4-0.1,0.8-0.4,1.1-0.7c1.2,1.1,3.1,1.1,4.4,0c1.2,1.1,3.1,1.1,4.4,0c1.2,1.1,3.1,1.1,4.4,0
	c0.3,0.3,0.7,0.5,1.1,0.7V40.5z M37.8,28.5c0,0.6-0.5,1.1-1.1,1.1s-1.1-0.5-1.1-1.1v-3.3h2.2C37.8,25.2,37.8,28.5,37.8,28.5z
	 M19.6,21h17.1c0.6,0,1.1-0.5,1.1-1.1s-0.5-1.1-1.1-1.1H19.6c-0.6,0-1.1,0.5-1.1,1.1S19,21,19.6,21z"/>
</svg>
