<?xml version="1.0" encoding="utf-8"?>
<!-- Generator: Adobe Illustrator 24.3.0, SVG Export Plug-In . SVG Version: 6.00 Build 0)  -->
<svg version="1.1" id="Layer_1" xmlns="http://www.w3.org/2000/svg" xmlns:xlink="http://www.w3.org/1999/xlink" x="0px" y="0px"
	 viewBox="0 0 56 56" style="enable-background:new 0 0 56 56;" xml:space="preserve">
<style type="text/css">
	.st0{fill:#CC324C;}
	.st1{fill:#FFFFFF;}
</style>
<path class="st0" d="M53.2,25.2c0,11.6-8,21.6-18.8,24.4L28,56l-6.4-6.4C10.8,46.8,2.8,36.8,2.8,25.2C2.8,11.3,14.1,0,28,0
	S53.2,11.3,53.2,25.2z"/>
<g>
	<path class="st1" d="M32.5,22.5c-0.4,0.6-1.2,1.4-2.2,2.2l-4.1,3.2c-0.6,0.5-0.9,0.8-0.9,1.1c0,0.4,0.2,0.6,1.2,0.6H32
		c0.9,0,1.1,0.2,1.1,1.1v0.2c0,0.9-0.2,1.1-1.1,1.1h-5.6c-2.5,0-3.5-0.7-3.5-2.5c0-1.3,0.5-2.3,1.9-3.4l3.6-2.8
		c0.9-0.7,1.5-1.2,1.8-1.6c0.3-0.4,0.4-0.8,0.4-1.3c0-1.3-0.9-1.9-3-1.9c-1,0-2,0.1-3,0.4c-0.8,0.2-1,0-1-0.9v-0.4
		c0-0.8,0.2-1,1-1.2c0.8-0.2,1.8-0.3,3-0.3c3.6,0,5.6,1.2,5.6,4.1C33.1,21.1,32.9,21.9,32.5,22.5z"/>
</g>
</svg>
