<?xml version="1.0" encoding="utf-8"?>
<!-- Generator: Adobe Illustrator 24.3.0, SVG Export Plug-In . SVG Version: 6.00 Build 0)  -->
<svg version="1.1" id="Layer_1" xmlns="http://www.w3.org/2000/svg" xmlns:xlink="http://www.w3.org/1999/xlink" x="0px" y="0px"
	 viewBox="0 0 56 56" style="enable-background:new 0 0 56 56;" xml:space="preserve">
<style type="text/css">
	.st0{fill:#CC324C;}
	.st1{fill:#FFFFFF;}
</style>
<path class="st0" d="M53.2,25.2c0,11.6-8,21.6-18.8,24.4L28,56l-6.4-6.4C10.8,46.8,2.8,36.8,2.8,25.2C2.8,11.3,14.1,0,28,0
	S53.2,11.3,53.2,25.2z"/>
<g>
	<path class="st1" d="M26.2,23.6c0-0.7,0.2-0.9,0.9-0.9h0.2c2.2,0,2.9-0.6,2.9-2.2c0-1.6-0.7-2.2-2.9-2.2c-0.8,0-1.8,0.1-3,0.4
		c-0.8,0.2-1,0-1-0.9v-0.4c0-0.8,0.2-1,1.1-1.2c0.9-0.2,1.9-0.3,3-0.3c3.6,0,5.4,1.5,5.4,4.4c0,1.7-0.6,2.7-2,3.3
		c1.5,0.6,2.3,1.7,2.3,3.5c0,3.2-1.9,4.8-5.6,4.8c-1.3,0-2.4-0.1-3.3-0.4c-0.8-0.2-1-0.4-1-1.2v-0.4c0-0.8,0.3-1.1,1-0.9
		c1.1,0.3,2.2,0.5,3.3,0.5c2.4,0,3.1-0.7,3.1-2.4c0-1.6-0.8-2.4-3.2-2.4h-0.2c-0.7,0-0.9-0.2-0.9-0.9V23.6z"/>
</g>
</svg>
