<?xml version="1.0" encoding="utf-8"?>
<!-- Generator: Adobe Illustrator 24.3.0, SVG Export Plug-In . SVG Version: 6.00 Build 0)  -->
<svg version="1.1" id="Layer_1" xmlns="http://www.w3.org/2000/svg" xmlns:xlink="http://www.w3.org/1999/xlink" x="0px" y="0px"
	 viewBox="0 0 56 56" style="enable-background:new 0 0 56 56;" xml:space="preserve">
<style type="text/css">
	.st0{fill:#CC324C;}
	.st1{fill:#FFFFFF;}
</style>
<path class="st0" d="M53.2,25.2c0,11.6-8,21.6-18.8,24.4L28,56l-6.4-6.4C10.8,46.8,2.8,36.8,2.8,25.2C2.8,11.3,14.1,0,28,0
	S53.2,11.3,53.2,25.2z"/>
<g>
	<path class="st1" d="M24.6,16.5c0.3-0.9,0.6-1.1,1.5-1.1h0.4c0.9,0,1.1,0.2,0.8,1.1l-2.6,7.7c-0.3,0.9,0,1.2,0.9,1.2h4v-5.1
		c0-0.9,0.2-1.1,1.1-1.1H31c0.9,0,1.1,0.2,1.1,1.1v9.6c0,0.9-0.2,1.1-1.1,1.1h-0.3c-0.9,0-1.1-0.2-1.1-1.1v-2.1h-4.1
		c-3.2,0-4.2-1.3-3.2-4.4L24.6,16.5z"/>
</g>
</svg>
