<?xml version="1.0" encoding="utf-8"?>
<!-- Generator: Adobe Illustrator 24.3.0, SVG Export Plug-In . SVG Version: 6.00 Build 0)  -->
<svg version="1.1" id="Layer_1" xmlns="http://www.w3.org/2000/svg" xmlns:xlink="http://www.w3.org/1999/xlink" x="0px" y="0px"
	 viewBox="0 0 56 56" style="enable-background:new 0 0 56 56;" xml:space="preserve">
<style type="text/css">
	.st0{fill:#CC324C;}
	.st1{fill:#FFFFFF;}
</style>
<path class="st0" d="M53.2,25.2c0,11.6-8,21.6-18.8,24.4L28,56l-6.4-6.4C10.8,46.8,2.8,36.8,2.8,25.2C2.8,11.3,14.1,0,28,0
	S53.2,11.3,53.2,25.2z"/>
<g>
	<path class="st1" d="M23.1,18c0-1.9,0.8-2.7,2.7-2.7h5.3c0.9,0,1.1,0.2,1.1,1.1v0.2c0,0.9-0.2,1.1-1.1,1.1h-4.6
		c-0.6,0-0.9,0.3-0.9,0.9v1.9c0,0.6,0.3,0.9,0.9,0.9h0.9c4,0,5.7,1.6,5.7,4.9c0,3.3-1.9,4.8-5.8,4.8c-1.3,0-2.5-0.1-3.4-0.4
		c-0.8-0.2-1-0.4-1-1.2v-0.4c0-0.9,0.3-1.1,1-0.8c0.9,0.3,2,0.4,3.3,0.4c2.4,0,3.3-0.8,3.3-2.4c0-2-1-2.5-3.7-2.5h-1
		c-1.9,0-2.7-0.8-2.7-2.7V18z"/>
</g>
</svg>
