<?xml version="1.0" encoding="utf-8"?>
<!-- Generator: Adobe Illustrator 24.2.1, SVG Export Plug-In . SVG Version: 6.00 Build 0)  -->
<svg version="1.1" id="Layer_1" xmlns="http://www.w3.org/2000/svg" xmlns:xlink="http://www.w3.org/1999/xlink" x="0px" y="0px"
	 viewBox="0 0 56 56" style="enable-background:new 0 0 56 56;" xml:space="preserve">
<style type="text/css">
	.st0{fill:#CC344B;}
	.st1{fill:#FFFFFF;}
</style>
<g>
	<path class="st0" d="M53.2,25.2c0,11.6-8,21.6-18.8,24.4L28,56l-6.4-6.4C10.8,46.8,2.8,36.8,2.8,25.2C2.8,11.3,14.1,0,28,0
		S53.2,11.3,53.2,25.2z"/>
	<g>
		<g>
			<path class="st1" d="M35.8,25c-0.5,0-1,0.1-1.3,0.2L33.4,23c0.7-0.2,1.6-0.5,2.4-0.5c0.4,0,0.6-0.2,0.6-0.6s-0.2-0.6-0.6-0.6
				c-1.1,0-2,0.2-3,0.6l-2.4-5c-0.1-0.2-0.4-0.4-0.6-0.4h-3.6c-0.4,0-0.6,0.2-0.6,0.6s0.2,0.6,0.6,0.6h3.2l2.4,4.7
				c-0.6,0.4-1.1,0.8-1.6,1.3h-4.4c-0.5-0.5-1.1-1-1.7-1.3l0,0l0,0c-1.2-0.7-2.5-1.1-4-1.1c-0.4,0-0.6,0.2-0.6,0.6s0.2,0.6,0.6,0.6
				c1,0,1.9,0.2,2.8,0.6l-0.5,0.8l-0.7,1.2c-0.5-0.1-1-0.2-1.6-0.2c-2.3,0-4.2,1.9-4.2,4.2s1.9,4.2,4.2,4.2c2.2,0,3.8-1.6,4.2-3.6
				h4.2c0.4,0,0.6-0.2,0.6-0.6c0-1.6,0.6-3,1.6-4.2c0.4-0.4,0.7-0.8,1.2-1.1c0.1-0.1,0.2-0.2,0.4-0.2l1.1,2.2
				c-1.1,0.7-1.8,2-1.8,3.5c0,2.3,1.9,4.2,4.2,4.2s4.2-1.9,4.2-4.2S38,25,35.8,25z M20.1,32.2c-1.7,0-3-1.3-3-3s1.3-3,3-3
				c0.4,0,0.6,0,1,0.1l-1.4,2.5c-0.1,0.2-0.1,0.4,0,0.6s0.2,0.4,0.5,0.4h3C22.8,31.1,21.6,32.2,20.1,32.2z M21.2,28.6l1-1.7
				c0.4,0.5,0.7,1.1,1,1.7H21.2z M28,28.6h-3.6c-0.1-1.1-0.7-2-1.6-2.6l0.5-1l0.7-1.2c0.5,0.4,1,0.7,1.3,1.2h3.8
				C28.5,26.1,28.1,27.3,28,28.6z M35.8,32.2c-1.7,0-3-1.3-3-3c0-1,0.5-1.8,1.2-2.4l1.3,2.6c0.1,0.2,0.4,0.4,0.6,0.4
				c0.1,0,0.2,0,0.2,0c0.2-0.1,0.5-0.5,0.2-0.8L35,26.3c0.2-0.1,0.5-0.1,0.8-0.1c1.7,0,3,1.3,3,3S37.4,32.2,35.8,32.2z"/>
		</g>
	</g>
</g>
</svg>
